M48
;DRILL file {KiCad (5.0.1)-3} date 11/14/2018 5:00:23 PM
;FORMAT={-:-/ absolute / inch / decimal}
FMAT,2
INCH,TZ
T1C0.0157
T2C0.0315
T3C0.0320
T4C0.0350
T5C0.0360
T6C0.0394
T7C0.1250
%
G90
G05
M72
T1
X3.7382Y-3.0472
X3.7388Y-3.2941
X4.0846Y-2.9016
T2
X1.4272Y-3.0354
X1.4272Y-3.2323
X3.9882Y-3.0669
X3.9882Y-3.2638
X1.6299Y-3.0335
X1.6299Y-3.2303
X3.063Y-3.0413
X3.063Y-3.2382
X2.2343Y-3.0394
X2.2343Y-3.2362
X2.4528Y-3.0394
X2.4528Y-3.2362
X2.6654Y-3.0413
X2.6654Y-3.2382
X5.0039Y-3.0591
X5.0039Y-3.2559
T3
X1.988Y-1.7507
X1.988Y-1.8607
X1.988Y-1.9707
X1.988Y-2.0807
X2.313Y-1.7507
X2.313Y-1.8607
X2.313Y-1.9707
X2.313Y-2.0807
X4.1789Y-2.4062
X4.1789Y-2.5162
X4.1789Y-2.6262
X4.1789Y-2.7362
X4.5039Y-2.4062
X4.5039Y-2.5162
X4.5039Y-2.6262
X4.5039Y-2.7362
X4.1593Y-1.7645
X4.1593Y-1.8745
X4.1593Y-1.9845
X4.1593Y-2.0945
X4.4843Y-1.7645
X4.4843Y-1.8745
X4.4843Y-1.9845
X4.4843Y-2.0945
X3.4171Y-1.7566
X3.4171Y-1.8666
X3.4171Y-1.9766
X3.4171Y-2.0866
X3.7421Y-1.7566
X3.7421Y-1.8666
X3.7421Y-1.9766
X3.7421Y-2.0866
X3.423Y-2.3885
X3.423Y-2.4985
X3.423Y-2.6085
X3.423Y-2.7185
X3.748Y-2.3885
X3.748Y-2.4985
X3.748Y-2.6085
X3.748Y-2.7185
X2.6986Y-2.3885
X2.6986Y-2.4985
X2.6986Y-2.6085
X2.6986Y-2.7185
X3.0236Y-2.3885
X3.0236Y-2.4985
X3.0236Y-2.6085
X3.0236Y-2.7185
X2.6986Y-1.7487
X2.6986Y-1.8587
X2.6986Y-1.9687
X2.6986Y-2.0787
X3.0236Y-1.7487
X3.0236Y-1.8587
X3.0236Y-1.9687
X3.0236Y-2.0787
X1.9722Y-2.3924
X1.9722Y-2.5024
X1.9722Y-2.6124
X1.9722Y-2.7224
X2.2972Y-2.3924
X2.2972Y-2.5024
X2.2972Y-2.6124
X2.2972Y-2.7224
T4
X4.7854Y-1.6102
X4.7854Y-2.0602
X4.5276Y-3.0618
X4.5276Y-3.5118
X2.1575Y-1.3425
X2.6075Y-1.3425
X3.4547Y-1.3465
X3.9047Y-1.3465
X5.1299Y-1.613
X5.1299Y-2.063
X1.3965Y-1.3386
X1.8465Y-1.3386
X4.9508Y-1.6122
X4.9508Y-2.0622
X2.8012Y-1.3445
X3.2512Y-1.3445
X4.0984Y-1.3504
X4.5484Y-1.3504
X1.6535Y-2.3209
X1.6535Y-2.7709
X2.8701Y-3.0413
X2.8701Y-3.4913
X3.7882Y-3.4094
X4.2382Y-3.4094
X4.3642Y-3.063
X4.3642Y-3.513
X4.7283Y-2.2441
X5.1783Y-2.2441
X1.3925Y-1.5197
X1.8425Y-1.5197
T5
X3.3799Y-3.0102
X3.3799Y-3.2382
X5.126Y-2.6401
X5.126Y-2.8681
T6
X2.5059Y-1.6181
X5.3543Y-2.435
X1.4194Y-2.2947
X1.4194Y-1.9266
X2.2972Y-3.4508
X1.4213Y-2.1097
X1.4154Y-1.7416
T7
X5.6634Y-1.0591
X1.0768Y-1.0591
X5.6634Y-3.8543
X1.0768Y-3.8543
T0
M30
