G04 #@! TF.GenerationSoftware,KiCad,Pcbnew,(5.0.1)-3*
G04 #@! TF.CreationDate,2018-11-14T16:56:54-05:00*
G04 #@! TF.ProjectId,folding_amp,666F6C64696E675F616D702E6B696361,rev?*
G04 #@! TF.SameCoordinates,Original*
G04 #@! TF.FileFunction,Copper,L1,Top,Signal*
G04 #@! TF.FilePolarity,Positive*
%FSLAX46Y46*%
G04 Gerber Fmt 4.6, Leading zero omitted, Abs format (unit mm)*
G04 Created by KiCad (PCBNEW (5.0.1)-3) date 11/14/2018 4:56:54 PM*
%MOMM*%
%LPD*%
G01*
G04 APERTURE LIST*
G04 #@! TA.AperFunction,ComponentPad*
%ADD10R,1.651000X1.651000*%
G04 #@! TD*
G04 #@! TA.AperFunction,ComponentPad*
%ADD11C,1.651000*%
G04 #@! TD*
G04 #@! TA.AperFunction,ComponentPad*
%ADD12R,1.397000X1.397000*%
G04 #@! TD*
G04 #@! TA.AperFunction,ComponentPad*
%ADD13C,1.397000*%
G04 #@! TD*
G04 #@! TA.AperFunction,SMDPad,CuDef*
%ADD14R,0.355600X1.168400*%
G04 #@! TD*
G04 #@! TA.AperFunction,ComponentPad*
%ADD15C,1.600000*%
G04 #@! TD*
G04 #@! TA.AperFunction,ComponentPad*
%ADD16R,1.422400X1.422400*%
G04 #@! TD*
G04 #@! TA.AperFunction,ComponentPad*
%ADD17C,1.422400*%
G04 #@! TD*
G04 #@! TA.AperFunction,SMDPad,CuDef*
%ADD18R,0.500000X0.700000*%
G04 #@! TD*
G04 #@! TA.AperFunction,ComponentPad*
%ADD19R,1.700000X1.700000*%
G04 #@! TD*
G04 #@! TA.AperFunction,SMDPad,CuDef*
%ADD20R,1.397000X0.431800*%
G04 #@! TD*
G04 #@! TA.AperFunction,SMDPad,CuDef*
%ADD21R,0.508000X1.219200*%
G04 #@! TD*
G04 #@! TA.AperFunction,ViaPad*
%ADD22C,0.800000*%
G04 #@! TD*
G04 #@! TA.AperFunction,Conductor*
%ADD23C,0.250000*%
G04 #@! TD*
G04 APERTURE END LIST*
D10*
G04 #@! TO.P,U7,1*
G04 #@! TO.N,/I2*
X105645000Y-44818000D03*
D11*
G04 #@! TO.P,U7,2*
G04 #@! TO.N,/Vin*
X105645000Y-47612000D03*
G04 #@! TO.P,U7,3*
G04 #@! TO.N,/V_Load_2*
X105645000Y-50406000D03*
G04 #@! TO.P,U7,4*
G04 #@! TO.N,Net-(U7-Pad4)*
X105645000Y-53200000D03*
G04 #@! TO.P,U7,5*
G04 #@! TO.N,/V_Load_1*
X113900000Y-53200000D03*
G04 #@! TO.P,U7,6*
G04 #@! TO.N,/V_REF_2*
X113900000Y-50406000D03*
G04 #@! TO.P,U7,7*
G04 #@! TO.N,/I2*
X113900000Y-47612000D03*
G04 #@! TO.P,U7,8*
X113900000Y-44818000D03*
G04 #@! TD*
D12*
G04 #@! TO.P,R14,1*
G04 #@! TO.N,Net-(R11-Pad1)*
X131530000Y-57000000D03*
D13*
G04 #@! TO.P,R14,2*
G04 #@! TO.N,/Vout*
X120100000Y-57000000D03*
G04 #@! TD*
D14*
G04 #@! TO.P,U11,1*
G04 #@! TO.N,/V_Load_2*
X122789600Y-62741400D03*
G04 #@! TO.P,U11,2*
G04 #@! TO.N,/-Vref*
X123450000Y-62741400D03*
G04 #@! TO.P,U11,3*
G04 #@! TO.N,Net-(R11-Pad1)*
X124110400Y-62741400D03*
G04 #@! TO.P,U11,4*
G04 #@! TO.N,/Vout*
X124110400Y-60658600D03*
G04 #@! TO.P,U11,5*
G04 #@! TO.N,/+Vref*
X122789600Y-60658600D03*
G04 #@! TD*
D12*
G04 #@! TO.P,R9,1*
G04 #@! TO.N,/+Vref*
X121550000Y-52330000D03*
D13*
G04 #@! TO.P,R9,2*
G04 #@! TO.N,Net-(R10-Pad1)*
X121550000Y-40900000D03*
G04 #@! TD*
D15*
G04 #@! TO.P,C4,2*
G04 #@! TO.N,GND*
X62300000Y-82200000D03*
G04 #@! TO.P,C4,1*
G04 #@! TO.N,/+Vref*
X62300000Y-77200000D03*
G04 #@! TD*
D16*
G04 #@! TO.P,L1,1*
G04 #@! TO.N,Net-(C7-Pad2)*
X85850000Y-76458800D03*
D17*
G04 #@! TO.P,L1,2*
G04 #@! TO.N,Net-(C6-Pad1)*
X85850000Y-82250000D03*
G04 #@! TD*
D12*
G04 #@! TO.P,R13,1*
G04 #@! TO.N,Net-(R13-Pad1)*
X96220000Y-86600000D03*
D13*
G04 #@! TO.P,R13,2*
G04 #@! TO.N,Net-(R12-Pad1)*
X107650000Y-86600000D03*
G04 #@! TD*
D10*
G04 #@! TO.P,U6,1*
G04 #@! TO.N,/I3*
X86795000Y-44618000D03*
D11*
G04 #@! TO.P,U6,2*
G04 #@! TO.N,/Vin*
X86795000Y-47412000D03*
G04 #@! TO.P,U6,3*
G04 #@! TO.N,/V_Load_1*
X86795000Y-50206000D03*
G04 #@! TO.P,U6,4*
G04 #@! TO.N,Net-(U6-Pad4)*
X86795000Y-53000000D03*
G04 #@! TO.P,U6,5*
G04 #@! TO.N,/V_Load_2*
X95050000Y-53000000D03*
G04 #@! TO.P,U6,6*
G04 #@! TO.N,/V_REF_3*
X95050000Y-50206000D03*
G04 #@! TO.P,U6,7*
G04 #@! TO.N,/I3*
X95050000Y-47412000D03*
G04 #@! TO.P,U6,8*
X95050000Y-44618000D03*
G04 #@! TD*
D12*
G04 #@! TO.P,R16,1*
G04 #@! TO.N,/Vgate*
X42000000Y-70380000D03*
D13*
G04 #@! TO.P,R16,2*
G04 #@! TO.N,/+Vref*
X42000000Y-58950000D03*
G04 #@! TD*
D10*
G04 #@! TO.P,U4,1*
G04 #@! TO.N,/I5*
X50495000Y-44468000D03*
D11*
G04 #@! TO.P,U4,2*
G04 #@! TO.N,/Vin*
X50495000Y-47262000D03*
G04 #@! TO.P,U4,3*
G04 #@! TO.N,/V_Load_1*
X50495000Y-50056000D03*
G04 #@! TO.P,U4,4*
G04 #@! TO.N,Net-(U4-Pad4)*
X50495000Y-52850000D03*
G04 #@! TO.P,U4,5*
G04 #@! TO.N,/V_Load_2*
X58750000Y-52850000D03*
G04 #@! TO.P,U4,6*
G04 #@! TO.N,GND*
X58750000Y-50056000D03*
G04 #@! TO.P,U4,7*
G04 #@! TO.N,/I5*
X58750000Y-47262000D03*
G04 #@! TO.P,U4,8*
X58750000Y-44468000D03*
G04 #@! TD*
D15*
G04 #@! TO.P,C1,2*
G04 #@! TO.N,GND*
X36250000Y-82100000D03*
G04 #@! TO.P,C1,1*
G04 #@! TO.N,Net-(C1-Pad1)*
X36250000Y-77100000D03*
G04 #@! TD*
G04 #@! TO.P,C2,2*
G04 #@! TO.N,Net-(C2-Pad2)*
X41400000Y-82050000D03*
G04 #@! TO.P,C2,1*
G04 #@! TO.N,Net-(C2-Pad1)*
X41400000Y-77050000D03*
G04 #@! TD*
G04 #@! TO.P,C3,2*
G04 #@! TO.N,Net-(C3-Pad2)*
X56750000Y-82200000D03*
G04 #@! TO.P,C3,1*
G04 #@! TO.N,Net-(C3-Pad1)*
X56750000Y-77200000D03*
G04 #@! TD*
G04 #@! TO.P,C5,2*
G04 #@! TO.N,GND*
X67700000Y-82250000D03*
G04 #@! TO.P,C5,1*
G04 #@! TO.N,Net-(C5-Pad1)*
X67700000Y-77250000D03*
G04 #@! TD*
G04 #@! TO.P,C6,2*
G04 #@! TO.N,GND*
X77800000Y-77250000D03*
G04 #@! TO.P,C6,1*
G04 #@! TO.N,Net-(C6-Pad1)*
X77800000Y-82250000D03*
G04 #@! TD*
G04 #@! TO.P,C7,2*
G04 #@! TO.N,Net-(C7-Pad2)*
X101300000Y-77900000D03*
G04 #@! TO.P,C7,1*
G04 #@! TO.N,Net-(C7-Pad1)*
X101300000Y-82900000D03*
G04 #@! TD*
G04 #@! TO.P,C8,2*
G04 #@! TO.N,GND*
X127100000Y-82700000D03*
G04 #@! TO.P,C8,1*
G04 #@! TO.N,Net-(C8-Pad1)*
X127100000Y-77700000D03*
G04 #@! TD*
D18*
G04 #@! TO.P,D1,1*
G04 #@! TO.N,Net-(C7-Pad1)*
X106200000Y-80600000D03*
G04 #@! TO.P,D1,2*
G04 #@! TO.N,Net-(D1-Pad2)*
X106200000Y-79500000D03*
G04 #@! TD*
D19*
G04 #@! TO.P,J1,1*
G04 #@! TO.N,/Vin*
X36051600Y-48936600D03*
G04 #@! TD*
G04 #@! TO.P,J2,1*
G04 #@! TO.N,/+Vref*
X35951600Y-44236600D03*
G04 #@! TD*
G04 #@! TO.P,J3,1*
G04 #@! TO.N,/Vout*
X36051600Y-58286600D03*
G04 #@! TD*
G04 #@! TO.P,J4,1*
G04 #@! TO.N,GND*
X36101600Y-53586600D03*
G04 #@! TD*
D16*
G04 #@! TO.P,L2,1*
G04 #@! TO.N,/-Vref*
X130200000Y-67058800D03*
D17*
G04 #@! TO.P,L2,2*
G04 #@! TO.N,Net-(C8-Pad1)*
X130200000Y-72850000D03*
G04 #@! TD*
D12*
G04 #@! TO.P,R1,1*
G04 #@! TO.N,/+Vref*
X35470000Y-34000000D03*
D13*
G04 #@! TO.P,R1,2*
G04 #@! TO.N,/V_Load_2*
X46900000Y-34000000D03*
G04 #@! TD*
D12*
G04 #@! TO.P,R3,1*
G04 #@! TO.N,/+Vref*
X35370000Y-38600000D03*
D13*
G04 #@! TO.P,R3,2*
G04 #@! TO.N,/V_Load_1*
X46800000Y-38600000D03*
G04 #@! TD*
D12*
G04 #@! TO.P,R4,1*
G04 #@! TO.N,/V_REF_2*
X66230000Y-34100000D03*
D13*
G04 #@! TO.P,R4,2*
G04 #@! TO.N,/+Vref*
X54800000Y-34100000D03*
G04 #@! TD*
D12*
G04 #@! TO.P,R5,1*
G04 #@! TO.N,/V_REF_3*
X82580000Y-34150000D03*
D13*
G04 #@! TO.P,R5,2*
G04 #@! TO.N,/V_REF_2*
X71150000Y-34150000D03*
G04 #@! TD*
D12*
G04 #@! TO.P,R6,1*
G04 #@! TO.N,/V_REF_4*
X99180000Y-34200000D03*
D13*
G04 #@! TO.P,R6,2*
G04 #@! TO.N,/V_REF_3*
X87750000Y-34200000D03*
G04 #@! TD*
D12*
G04 #@! TO.P,R7,1*
G04 #@! TO.N,GND*
X115530000Y-34300000D03*
D13*
G04 #@! TO.P,R7,2*
G04 #@! TO.N,/V_REF_4*
X104100000Y-34300000D03*
G04 #@! TD*
D12*
G04 #@! TO.P,R8,1*
G04 #@! TO.N,Net-(C6-Pad1)*
X72900000Y-88680000D03*
D13*
G04 #@! TO.P,R8,2*
G04 #@! TO.N,Net-(C5-Pad1)*
X72900000Y-77250000D03*
G04 #@! TD*
D12*
G04 #@! TO.P,R10,1*
G04 #@! TO.N,Net-(R10-Pad1)*
X130300000Y-40970000D03*
D13*
G04 #@! TO.P,R10,2*
G04 #@! TO.N,GND*
X130300000Y-52400000D03*
G04 #@! TD*
D12*
G04 #@! TO.P,R11,1*
G04 #@! TO.N,Net-(R11-Pad1)*
X125750000Y-52380000D03*
D13*
G04 #@! TO.P,R11,2*
G04 #@! TO.N,Net-(R10-Pad1)*
X125750000Y-40950000D03*
G04 #@! TD*
D12*
G04 #@! TO.P,R12,1*
G04 #@! TO.N,Net-(R12-Pad1)*
X110850000Y-89230000D03*
D13*
G04 #@! TO.P,R12,2*
G04 #@! TO.N,Net-(D1-Pad2)*
X110850000Y-77800000D03*
G04 #@! TD*
D12*
G04 #@! TO.P,R15,1*
G04 #@! TO.N,Net-(C8-Pad1)*
X115000000Y-77770000D03*
D13*
G04 #@! TO.P,R15,2*
G04 #@! TO.N,Net-(R12-Pad1)*
X115000000Y-89200000D03*
G04 #@! TD*
D10*
G04 #@! TO.P,U1,1*
G04 #@! TO.N,/-Vref*
X50095000Y-60768000D03*
D11*
G04 #@! TO.P,U1,2*
G04 #@! TO.N,/Vgate*
X50095000Y-63562000D03*
G04 #@! TO.P,U1,3*
X50095000Y-66356000D03*
G04 #@! TO.P,U1,4*
G04 #@! TO.N,Net-(U1-Pad4)*
X50095000Y-69150000D03*
G04 #@! TO.P,U1,5*
G04 #@! TO.N,/I5*
X58350000Y-69150000D03*
G04 #@! TO.P,U1,6*
G04 #@! TO.N,/Vgate*
X58350000Y-66356000D03*
G04 #@! TO.P,U1,7*
G04 #@! TO.N,/-Vref*
X58350000Y-63562000D03*
G04 #@! TO.P,U1,8*
X58350000Y-60768000D03*
G04 #@! TD*
D10*
G04 #@! TO.P,U2,1*
G04 #@! TO.N,/-Vref*
X68545000Y-60668000D03*
D11*
G04 #@! TO.P,U2,2*
G04 #@! TO.N,/Vgate*
X68545000Y-63462000D03*
G04 #@! TO.P,U2,3*
G04 #@! TO.N,/I3*
X68545000Y-66256000D03*
G04 #@! TO.P,U2,4*
G04 #@! TO.N,Net-(U2-Pad4)*
X68545000Y-69050000D03*
G04 #@! TO.P,U2,5*
G04 #@! TO.N,/I4*
X76800000Y-69050000D03*
G04 #@! TO.P,U2,6*
G04 #@! TO.N,/Vgate*
X76800000Y-66256000D03*
G04 #@! TO.P,U2,7*
G04 #@! TO.N,/-Vref*
X76800000Y-63462000D03*
G04 #@! TO.P,U2,8*
X76800000Y-60668000D03*
G04 #@! TD*
D10*
G04 #@! TO.P,U3,1*
G04 #@! TO.N,/-Vref*
X86945000Y-60668000D03*
D11*
G04 #@! TO.P,U3,2*
G04 #@! TO.N,/Vgate*
X86945000Y-63462000D03*
G04 #@! TO.P,U3,3*
G04 #@! TO.N,/I1*
X86945000Y-66256000D03*
G04 #@! TO.P,U3,4*
G04 #@! TO.N,Net-(U3-Pad4)*
X86945000Y-69050000D03*
G04 #@! TO.P,U3,5*
G04 #@! TO.N,/I2*
X95200000Y-69050000D03*
G04 #@! TO.P,U3,6*
G04 #@! TO.N,/Vgate*
X95200000Y-66256000D03*
G04 #@! TO.P,U3,7*
G04 #@! TO.N,/-Vref*
X95200000Y-63462000D03*
G04 #@! TO.P,U3,8*
X95200000Y-60668000D03*
G04 #@! TD*
D10*
G04 #@! TO.P,U5,1*
G04 #@! TO.N,/I4*
X68545000Y-44418000D03*
D11*
G04 #@! TO.P,U5,2*
G04 #@! TO.N,/Vin*
X68545000Y-47212000D03*
G04 #@! TO.P,U5,3*
G04 #@! TO.N,/V_Load_2*
X68545000Y-50006000D03*
G04 #@! TO.P,U5,4*
G04 #@! TO.N,Net-(U5-Pad4)*
X68545000Y-52800000D03*
G04 #@! TO.P,U5,5*
G04 #@! TO.N,/V_Load_1*
X76800000Y-52800000D03*
G04 #@! TO.P,U5,6*
G04 #@! TO.N,/V_REF_4*
X76800000Y-50006000D03*
G04 #@! TO.P,U5,7*
G04 #@! TO.N,/I4*
X76800000Y-47212000D03*
G04 #@! TO.P,U5,8*
X76800000Y-44418000D03*
G04 #@! TD*
D10*
G04 #@! TO.P,U8,1*
G04 #@! TO.N,/I1*
X106145000Y-61118000D03*
D11*
G04 #@! TO.P,U8,2*
G04 #@! TO.N,/Vin*
X106145000Y-63912000D03*
G04 #@! TO.P,U8,3*
G04 #@! TO.N,/V_Load_1*
X106145000Y-66706000D03*
G04 #@! TO.P,U8,4*
G04 #@! TO.N,Net-(U8-Pad4)*
X106145000Y-69500000D03*
G04 #@! TO.P,U8,5*
G04 #@! TO.N,/V_Load_2*
X114400000Y-69500000D03*
G04 #@! TO.P,U8,6*
G04 #@! TO.N,/+Vref*
X114400000Y-66706000D03*
G04 #@! TO.P,U8,7*
G04 #@! TO.N,/I1*
X114400000Y-63912000D03*
G04 #@! TO.P,U8,8*
X114400000Y-61118000D03*
G04 #@! TD*
D20*
G04 #@! TO.P,U9,1*
G04 #@! TO.N,Net-(C1-Pad1)*
X46690200Y-78325001D03*
G04 #@! TO.P,U9,2*
G04 #@! TO.N,Net-(C2-Pad1)*
X46690200Y-78974999D03*
G04 #@! TO.P,U9,3*
G04 #@! TO.N,Net-(C2-Pad2)*
X46690200Y-79625001D03*
G04 #@! TO.P,U9,4*
G04 #@! TO.N,GND*
X46690200Y-80274999D03*
G04 #@! TO.P,U9,5*
G04 #@! TO.N,/+Vref*
X51109800Y-80274999D03*
G04 #@! TO.P,U9,6*
G04 #@! TO.N,Net-(C3-Pad2)*
X51109800Y-79625001D03*
G04 #@! TO.P,U9,7*
G04 #@! TO.N,Net-(C3-Pad1)*
X51109800Y-78974999D03*
G04 #@! TO.P,U9,8*
G04 #@! TO.N,Net-(C5-Pad1)*
X51109800Y-78325001D03*
G04 #@! TD*
D21*
G04 #@! TO.P,U10,1*
G04 #@! TO.N,Net-(C7-Pad2)*
X93965941Y-81664208D03*
G04 #@! TO.P,U10,2*
G04 #@! TO.N,GND*
X94915942Y-81664208D03*
G04 #@! TO.P,U10,3*
G04 #@! TO.N,Net-(R13-Pad1)*
X95865943Y-81664208D03*
G04 #@! TO.P,U10,4*
G04 #@! TO.N,Net-(C6-Pad1)*
X95865943Y-79378208D03*
G04 #@! TO.P,U10,5*
G04 #@! TO.N,Net-(C7-Pad1)*
X94915942Y-79378208D03*
G04 #@! TO.P,U10,6*
G04 #@! TO.N,Net-(C6-Pad1)*
X93965941Y-79378208D03*
G04 #@! TD*
D19*
G04 #@! TO.P,Neg. Vref,1*
G04 #@! TO.N,/-Vref*
X136000000Y-61850000D03*
G04 #@! TD*
G04 #@! TO.P,I5,1*
G04 #@! TO.N,/I5*
X63650000Y-41100000D03*
G04 #@! TD*
G04 #@! TO.P,Pos. Vref_Charged,1*
G04 #@! TO.N,Net-(C5-Pad1)*
X58350000Y-87650000D03*
G04 #@! TD*
D22*
G04 #@! TO.N,GND*
X94965942Y-83671208D03*
G04 #@! TO.N,/+Vref*
X103750000Y-73700000D03*
G04 #@! TO.N,Net-(C7-Pad1)*
X94950000Y-77400000D03*
G04 #@! TD*
D23*
G04 #@! TO.N,Net-(C1-Pad1)*
X46690200Y-77859101D02*
X46690200Y-78325001D01*
X42431099Y-73600000D02*
X46690200Y-77859101D01*
X39750000Y-73600000D02*
X42431099Y-73600000D01*
X36250000Y-77100000D02*
X39750000Y-73600000D01*
G04 #@! TO.N,GND*
X62350000Y-82250000D02*
X62300000Y-82200000D01*
X126747700Y-82700000D02*
X127100000Y-82700000D01*
X36250000Y-82100000D02*
X36250000Y-82200000D01*
X58656000Y-50150000D02*
X58750000Y-50056000D01*
X46690200Y-83259800D02*
X46690200Y-80274999D01*
X44850000Y-85100000D02*
X46690200Y-83259800D01*
X36250000Y-82100000D02*
X39250000Y-85100000D01*
X39250000Y-85100000D02*
X44850000Y-85100000D01*
X94915942Y-81664208D02*
X94915942Y-83621208D01*
X94915942Y-83621208D02*
X94965942Y-83671208D01*
G04 #@! TO.N,Net-(C2-Pad2)*
X46690200Y-79625000D02*
X43825000Y-79625000D01*
X43825000Y-79625000D02*
X41400000Y-82050000D01*
G04 #@! TO.N,Net-(C2-Pad1)*
X46690200Y-78975000D02*
X43325000Y-78975000D01*
X43325000Y-78975000D02*
X41400000Y-77050000D01*
G04 #@! TO.N,Net-(C3-Pad2)*
X51109800Y-79625000D02*
X54175000Y-79625000D01*
X54175000Y-79625000D02*
X56750000Y-82200000D01*
G04 #@! TO.N,Net-(C3-Pad1)*
X54975001Y-78974999D02*
X56750000Y-77200000D01*
X51109800Y-78974999D02*
X54975001Y-78974999D01*
G04 #@! TO.N,/+Vref*
X35951600Y-44236600D02*
X35951600Y-43061300D01*
X35951600Y-43061300D02*
X35370000Y-42479700D01*
X35370000Y-42479700D02*
X35370000Y-38600000D01*
X35470000Y-34000000D02*
X36493800Y-34000000D01*
X54800000Y-34100000D02*
X53876200Y-35023800D01*
X37517600Y-35023800D02*
X36493800Y-34000000D01*
X37517600Y-35023800D02*
X37523800Y-35023800D01*
X37523800Y-35023800D02*
X38900000Y-36400000D01*
X52500000Y-36400000D02*
X53876200Y-35023800D01*
X38900000Y-36400000D02*
X52500000Y-36400000D01*
X62300000Y-77200000D02*
X58850000Y-73750000D01*
X58850000Y-73750000D02*
X52500200Y-73750000D01*
X62300000Y-77200000D02*
X65800000Y-73700000D01*
X65800000Y-73700000D02*
X103750000Y-73700000D01*
X103750000Y-73700000D02*
X103750000Y-73700000D01*
X50161300Y-80274999D02*
X51109800Y-80274999D01*
X48900000Y-79013699D02*
X50161300Y-80274999D01*
X37100000Y-63850000D02*
X37100000Y-71100000D01*
X37100000Y-71100000D02*
X38700000Y-72700000D01*
X42000000Y-58950000D02*
X37100000Y-63850000D01*
X38700000Y-72700000D02*
X44300000Y-72700000D01*
X44300000Y-72700000D02*
X48900000Y-77300000D01*
X48900000Y-77300000D02*
X48900000Y-79013699D01*
X48950200Y-77300000D02*
X52500200Y-73750000D01*
X48900000Y-77300000D02*
X48950200Y-77300000D01*
X114400000Y-66706000D02*
X120447400Y-60658600D01*
X121550000Y-53278500D02*
X121550000Y-60658600D01*
X121550000Y-52330000D02*
X121550000Y-53278500D01*
X120447400Y-60658600D02*
X121550000Y-60658600D01*
X121550000Y-60658600D02*
X122789600Y-60658600D01*
G04 #@! TO.N,Net-(C5-Pad1)*
X72900000Y-77250000D02*
X67700000Y-77250000D01*
X66570700Y-78379300D02*
X67700000Y-77250000D01*
X59450000Y-87650000D02*
X58350000Y-87650000D01*
X65250000Y-79700000D02*
X65250000Y-83600000D01*
X65250000Y-83600000D02*
X61200000Y-87650000D01*
X51109800Y-78325001D02*
X51592400Y-78325001D01*
X65400000Y-79550000D02*
X65450000Y-79500000D01*
X65250000Y-79700000D02*
X65450000Y-79500000D01*
X65450000Y-79500000D02*
X66570700Y-78379300D01*
X60000000Y-87650000D02*
X58350000Y-87650000D01*
X61200000Y-87650000D02*
X60000000Y-87650000D01*
X51109800Y-78325001D02*
X51109800Y-77859101D01*
X51109800Y-77859101D02*
X53918901Y-75050000D01*
X53918901Y-75050000D02*
X58150000Y-75050000D01*
X60000000Y-76900000D02*
X60000000Y-87650000D01*
X58150000Y-75050000D02*
X60000000Y-76900000D01*
G04 #@! TO.N,Net-(C6-Pad1)*
X93965942Y-79366208D02*
X93965942Y-78996608D01*
X93965942Y-79378208D02*
X93965942Y-79366208D01*
X77800000Y-83381370D02*
X77800000Y-82250000D01*
X77800000Y-84728500D02*
X77800000Y-83381370D01*
X73848500Y-88680000D02*
X77800000Y-84728500D01*
X72900000Y-88680000D02*
X73848500Y-88680000D01*
X77800000Y-82250000D02*
X85850000Y-82250000D01*
X93965941Y-79733808D02*
X93965941Y-79378208D01*
X88721792Y-79378208D02*
X85850000Y-82250000D01*
X93965941Y-79378208D02*
X88721792Y-79378208D01*
X94601999Y-76674999D02*
X95424999Y-76674999D01*
X93965941Y-79378208D02*
X93965941Y-77311057D01*
X93965941Y-77311057D02*
X94601999Y-76674999D01*
X95865943Y-77115943D02*
X95865943Y-79378208D01*
X95424999Y-76674999D02*
X95865943Y-77115943D01*
G04 #@! TO.N,Net-(C7-Pad1)*
X106200000Y-80600000D02*
X105624700Y-80600000D01*
X101300000Y-82900000D02*
X103324700Y-82900000D01*
X103324700Y-82900000D02*
X105624700Y-80600000D01*
X94915942Y-78518608D02*
X94950000Y-78050000D01*
X94915942Y-79378208D02*
X94915942Y-78518608D01*
X94950000Y-78484550D02*
X94950000Y-78050000D01*
X94950000Y-78050000D02*
X94950000Y-78484550D01*
X94950000Y-78050000D02*
X94950000Y-77400000D01*
G04 #@! TO.N,Net-(C7-Pad2)*
X100500001Y-77100001D02*
X101300000Y-77900000D01*
X99624990Y-76224990D02*
X100500001Y-77100001D01*
X87045010Y-76224990D02*
X99624990Y-76224990D01*
X86811200Y-76458800D02*
X87045010Y-76224990D01*
X85850000Y-76458800D02*
X86811200Y-76458800D01*
X98700000Y-80500000D02*
X101300000Y-77900000D01*
X98700000Y-88600000D02*
X98700000Y-80500000D01*
X93965941Y-82523808D02*
X93950000Y-82539749D01*
X93965941Y-81664208D02*
X93965941Y-82523808D01*
X93950000Y-88600000D02*
X95350000Y-90000000D01*
X93950000Y-82539749D02*
X93950000Y-88600000D01*
X95350000Y-90000000D02*
X97300000Y-90000000D01*
X97300000Y-90000000D02*
X98700000Y-88600000D01*
G04 #@! TO.N,Net-(C8-Pad1)*
X127100000Y-75950000D02*
X127100000Y-77700000D01*
X130200000Y-72850000D02*
X127100000Y-75950000D01*
X127030000Y-77770000D02*
X127100000Y-77700000D01*
X115000000Y-77770000D02*
X127030000Y-77770000D01*
G04 #@! TO.N,Net-(D1-Pad2)*
X106200000Y-79500000D02*
X106775300Y-79500000D01*
X110850000Y-77800000D02*
X108475300Y-77800000D01*
X108475300Y-77800000D02*
X106775300Y-79500000D01*
G04 #@! TO.N,/Vin*
X50495000Y-47262000D02*
X38901500Y-47262000D01*
X38901500Y-47262000D02*
X37226900Y-48936600D01*
X36051600Y-48936600D02*
X37226900Y-48936600D01*
X51907000Y-45850000D02*
X50495000Y-47262000D01*
X68545000Y-47212000D02*
X67060790Y-45850000D01*
X67060790Y-45850000D02*
X51907000Y-45850000D01*
X104100000Y-47612000D02*
X105645000Y-47612000D01*
X102488000Y-46000000D02*
X104100000Y-47612000D01*
X88200000Y-46000000D02*
X102488000Y-46000000D01*
X87620499Y-46579501D02*
X88200000Y-46000000D01*
X87620499Y-46586501D02*
X87620499Y-46579501D01*
X86795000Y-47412000D02*
X87620499Y-46586501D01*
X69957000Y-45800000D02*
X68545000Y-47212000D01*
X82163590Y-45800000D02*
X69957000Y-45800000D01*
X86795000Y-47412000D02*
X83775590Y-47412000D01*
X83775590Y-47412000D02*
X82163590Y-45800000D01*
G04 #@! TO.N,/-Vref*
X58350000Y-60768000D02*
X51245800Y-60768000D01*
X68545000Y-60668000D02*
X58450000Y-60668000D01*
X58450000Y-60668000D02*
X58350000Y-60768000D01*
X50095000Y-60768000D02*
X51245800Y-60768000D01*
X76800000Y-60668000D02*
X68545000Y-60668000D01*
X86945000Y-60668000D02*
X76800000Y-60668000D01*
X107057600Y-75319600D02*
X95200000Y-63462000D01*
X88020500Y-60668000D02*
X95200000Y-60668000D01*
X86945000Y-60668000D02*
X88020500Y-60668000D01*
X123450000Y-62741400D02*
X123450000Y-63719600D01*
X134900000Y-61850000D02*
X136000000Y-61850000D01*
X134447600Y-61850000D02*
X134900000Y-61850000D01*
X130200000Y-66097600D02*
X134447600Y-61850000D01*
X130200000Y-67058800D02*
X130200000Y-66097600D01*
X126933200Y-67058800D02*
X123450000Y-63575600D01*
X130200000Y-67058800D02*
X126933200Y-67058800D01*
X111706000Y-75319600D02*
X111550000Y-75319600D01*
X123450000Y-63575600D02*
X111706000Y-75319600D01*
X123450000Y-62741400D02*
X123450000Y-63575600D01*
X111550000Y-75319600D02*
X107057600Y-75319600D01*
G04 #@! TO.N,/V_Load_2*
X65701000Y-52850000D02*
X68545000Y-50006000D01*
X58750000Y-52850000D02*
X65701000Y-52850000D01*
X122789600Y-63147800D02*
X122789600Y-62741400D01*
X116437400Y-69500000D02*
X122789600Y-63147800D01*
X114400000Y-69500000D02*
X116437400Y-69500000D01*
X104819501Y-51231499D02*
X105645000Y-50406000D01*
X102225501Y-53825499D02*
X104819501Y-51231499D01*
X95875499Y-53825499D02*
X102225501Y-53825499D01*
X95050000Y-53000000D02*
X95875499Y-53825499D01*
X59917433Y-52850000D02*
X63217433Y-56150000D01*
X58750000Y-52850000D02*
X59917433Y-52850000D01*
X91900000Y-56150000D02*
X95050000Y-53000000D01*
X63217433Y-56150000D02*
X91900000Y-56150000D01*
G04 #@! TO.N,/V_Load_1*
X51695900Y-48855100D02*
X50495000Y-50056000D01*
X76800000Y-52800000D02*
X84201000Y-52800000D01*
X84201000Y-52800000D02*
X86795000Y-50206000D01*
X73000000Y-49000000D02*
X76800000Y-52800000D01*
X72600000Y-48600000D02*
X73000000Y-49000000D01*
X51951000Y-48600000D02*
X72600000Y-48600000D01*
X50495000Y-50056000D02*
X51951000Y-48600000D01*
X103950000Y-48950000D02*
X104000000Y-49000000D01*
X103800000Y-48800000D02*
X104000000Y-49000000D01*
X88200000Y-48800000D02*
X103800000Y-48800000D01*
X87620499Y-49379501D02*
X88200000Y-48800000D01*
X86795000Y-50206000D02*
X87620499Y-49380501D01*
X87620499Y-49380501D02*
X87620499Y-49379501D01*
X109700000Y-49000000D02*
X113900000Y-53200000D01*
X104000000Y-49000000D02*
X109700000Y-49000000D01*
G04 #@! TO.N,/V_REF_2*
X71150000Y-34150000D02*
X67303800Y-34150000D01*
X67303800Y-34150000D02*
X67253800Y-34100000D01*
X66230000Y-34100000D02*
X67253800Y-34100000D01*
X71150000Y-34150000D02*
X75400000Y-38400000D01*
X75400000Y-38400000D02*
X104150000Y-38400000D01*
X104150000Y-38400000D02*
X110000000Y-44250000D01*
X110000000Y-46506000D02*
X113900000Y-50406000D01*
X110000000Y-44250000D02*
X110000000Y-46506000D01*
G04 #@! TO.N,/V_REF_3*
X82580000Y-34150000D02*
X83603800Y-34150000D01*
X87750000Y-34200000D02*
X83653800Y-34200000D01*
X83653800Y-34200000D02*
X83603800Y-34150000D01*
G04 #@! TO.N,/V_REF_4*
X99180000Y-34200000D02*
X100203800Y-34200000D01*
X104100000Y-34300000D02*
X100303800Y-34300000D01*
X100303800Y-34300000D02*
X100203800Y-34200000D01*
G04 #@! TO.N,Net-(R10-Pad1)*
X130230000Y-40900000D02*
X130300000Y-40970000D01*
X121550000Y-40900000D02*
X130230000Y-40900000D01*
G04 #@! TO.N,Net-(R11-Pad1)*
X130581500Y-57000000D02*
X131530000Y-57000000D01*
X129445400Y-57000000D02*
X130581500Y-57000000D01*
X124110400Y-62741400D02*
X124110400Y-62335000D01*
X125750000Y-53328500D02*
X125750000Y-52380000D01*
X129421500Y-57000000D02*
X125750000Y-53328500D01*
X129445400Y-57000000D02*
X129421500Y-57000000D01*
X124538200Y-62741400D02*
X124546800Y-62750000D01*
X124110400Y-62741400D02*
X124538200Y-62741400D01*
X130296800Y-57000000D02*
X131530000Y-57000000D01*
X124546800Y-62750000D02*
X130296800Y-57000000D01*
G04 #@! TO.N,Net-(R12-Pad1)*
X110880000Y-89200000D02*
X110850000Y-89230000D01*
X115000000Y-89200000D02*
X110880000Y-89200000D01*
X110280000Y-89230000D02*
X110850000Y-89230000D01*
X107650000Y-86600000D02*
X110280000Y-89230000D01*
G04 #@! TO.N,Net-(R13-Pad1)*
X95865943Y-86245943D02*
X96220000Y-86600000D01*
X95865943Y-81664208D02*
X95865943Y-86245943D01*
G04 #@! TO.N,/Vout*
X124100000Y-56950000D02*
X124100000Y-56950000D01*
X36051600Y-57186600D02*
X36051600Y-58286600D01*
X36238200Y-57000000D02*
X36051600Y-57186600D01*
X120100000Y-57000000D02*
X36238200Y-57000000D01*
X124110400Y-59824400D02*
X124110400Y-60658600D01*
X124100000Y-59814000D02*
X124110400Y-59824400D01*
X118600000Y-55500000D02*
X118600000Y-49950000D01*
X120100000Y-57000000D02*
X118600000Y-55500000D01*
X118600000Y-49950000D02*
X120600000Y-47950000D01*
X120600000Y-47950000D02*
X122250000Y-47950000D01*
X122250000Y-47950000D02*
X124100000Y-49800000D01*
X124100000Y-49800000D02*
X124100000Y-59814000D01*
G04 #@! TO.N,/I3*
X95050000Y-44618000D02*
X86795000Y-44618000D01*
G04 #@! TO.N,/I1*
X106145000Y-61118000D02*
X104994200Y-61118000D01*
X104994200Y-61118000D02*
X104047200Y-62065000D01*
X104047200Y-62065000D02*
X91136000Y-62065000D01*
X91136000Y-62065000D02*
X86945000Y-66256000D01*
X114400000Y-61118000D02*
X106145000Y-61118000D01*
G04 #@! TO.N,/I5*
X58750000Y-44468000D02*
X50495000Y-44468000D01*
G04 #@! TO.N,/I4*
X76800000Y-44418000D02*
X68545000Y-44418000D01*
G04 #@! TO.N,/Vgate*
X58350000Y-66356000D02*
X50095000Y-66356000D01*
X68545000Y-63462000D02*
X65651000Y-66356000D01*
X65651000Y-66356000D02*
X58350000Y-66356000D01*
X76800000Y-66256000D02*
X74006000Y-63462000D01*
X74006000Y-63462000D02*
X68545000Y-63462000D01*
X86945000Y-63462000D02*
X84151000Y-66256000D01*
X84151000Y-66256000D02*
X76800000Y-66256000D01*
X42000000Y-69431500D02*
X42000000Y-70380000D01*
X45075500Y-66356000D02*
X42000000Y-69431500D01*
X50095000Y-66356000D02*
X45075500Y-66356000D01*
G04 #@! TD*
M02*
