G04 #@! TF.GenerationSoftware,KiCad,Pcbnew,(5.0.1)-3*
G04 #@! TF.CreationDate,2018-11-14T16:56:54-05:00*
G04 #@! TF.ProjectId,folding_amp,666F6C64696E675F616D702E6B696361,rev?*
G04 #@! TF.SameCoordinates,Original*
G04 #@! TF.FileFunction,Legend,Bot*
G04 #@! TF.FilePolarity,Positive*
%FSLAX46Y46*%
G04 Gerber Fmt 4.6, Leading zero omitted, Abs format (unit mm)*
G04 Created by KiCad (PCBNEW (5.0.1)-3) date 11/14/2018 4:56:54 PM*
%MOMM*%
%LPD*%
G01*
G04 APERTURE LIST*
%ADD10C,0.300000*%
G04 APERTURE END LIST*
D10*
X136650000Y-96892857D02*
X136435714Y-96964285D01*
X136364285Y-97035714D01*
X136292857Y-97178571D01*
X136292857Y-97392857D01*
X136364285Y-97535714D01*
X136435714Y-97607142D01*
X136578571Y-97678571D01*
X137150000Y-97678571D01*
X137150000Y-96178571D01*
X136650000Y-96178571D01*
X136507142Y-96250000D01*
X136435714Y-96321428D01*
X136364285Y-96464285D01*
X136364285Y-96607142D01*
X136435714Y-96750000D01*
X136507142Y-96821428D01*
X136650000Y-96892857D01*
X137150000Y-96892857D01*
X135364285Y-96178571D02*
X135078571Y-96178571D01*
X134935714Y-96250000D01*
X134792857Y-96392857D01*
X134721428Y-96678571D01*
X134721428Y-97178571D01*
X134792857Y-97464285D01*
X134935714Y-97607142D01*
X135078571Y-97678571D01*
X135364285Y-97678571D01*
X135507142Y-97607142D01*
X135650000Y-97464285D01*
X135721428Y-97178571D01*
X135721428Y-96678571D01*
X135650000Y-96392857D01*
X135507142Y-96250000D01*
X135364285Y-96178571D01*
X134292857Y-96178571D02*
X133435714Y-96178571D01*
X133864285Y-97678571D02*
X133864285Y-96178571D01*
M02*
