G04 #@! TF.GenerationSoftware,KiCad,Pcbnew,(5.0.1)-3*
G04 #@! TF.CreationDate,2018-11-14T16:56:54-05:00*
G04 #@! TF.ProjectId,folding_amp,666F6C64696E675F616D702E6B696361,rev?*
G04 #@! TF.SameCoordinates,Original*
G04 #@! TF.FileFunction,Copper,L2,Bot,Signal*
G04 #@! TF.FilePolarity,Positive*
%FSLAX46Y46*%
G04 Gerber Fmt 4.6, Leading zero omitted, Abs format (unit mm)*
G04 Created by KiCad (PCBNEW (5.0.1)-3) date 11/14/2018 4:56:54 PM*
%MOMM*%
%LPD*%
G01*
G04 APERTURE LIST*
G04 #@! TA.AperFunction,ComponentPad*
%ADD10R,1.651000X1.651000*%
G04 #@! TD*
G04 #@! TA.AperFunction,ComponentPad*
%ADD11C,1.651000*%
G04 #@! TD*
G04 #@! TA.AperFunction,ComponentPad*
%ADD12R,1.397000X1.397000*%
G04 #@! TD*
G04 #@! TA.AperFunction,ComponentPad*
%ADD13C,1.397000*%
G04 #@! TD*
G04 #@! TA.AperFunction,ComponentPad*
%ADD14C,1.600000*%
G04 #@! TD*
G04 #@! TA.AperFunction,ComponentPad*
%ADD15R,1.422400X1.422400*%
G04 #@! TD*
G04 #@! TA.AperFunction,ComponentPad*
%ADD16C,1.422400*%
G04 #@! TD*
G04 #@! TA.AperFunction,ComponentPad*
%ADD17R,1.700000X1.700000*%
G04 #@! TD*
G04 #@! TA.AperFunction,ViaPad*
%ADD18C,0.800000*%
G04 #@! TD*
G04 #@! TA.AperFunction,Conductor*
%ADD19C,0.250000*%
G04 #@! TD*
G04 #@! TA.AperFunction,Conductor*
%ADD20C,0.254000*%
G04 #@! TD*
G04 APERTURE END LIST*
D10*
G04 #@! TO.P,U7,1*
G04 #@! TO.N,/I2*
X105645000Y-44818000D03*
D11*
G04 #@! TO.P,U7,2*
G04 #@! TO.N,/Vin*
X105645000Y-47612000D03*
G04 #@! TO.P,U7,3*
G04 #@! TO.N,/V_Load_2*
X105645000Y-50406000D03*
G04 #@! TO.P,U7,4*
G04 #@! TO.N,Net-(U7-Pad4)*
X105645000Y-53200000D03*
G04 #@! TO.P,U7,5*
G04 #@! TO.N,/V_Load_1*
X113900000Y-53200000D03*
G04 #@! TO.P,U7,6*
G04 #@! TO.N,/V_REF_2*
X113900000Y-50406000D03*
G04 #@! TO.P,U7,7*
G04 #@! TO.N,/I2*
X113900000Y-47612000D03*
G04 #@! TO.P,U7,8*
X113900000Y-44818000D03*
G04 #@! TD*
D12*
G04 #@! TO.P,R14,1*
G04 #@! TO.N,Net-(R11-Pad1)*
X131530000Y-57000000D03*
D13*
G04 #@! TO.P,R14,2*
G04 #@! TO.N,/Vout*
X120100000Y-57000000D03*
G04 #@! TD*
D12*
G04 #@! TO.P,R9,1*
G04 #@! TO.N,/+Vref*
X121550000Y-52330000D03*
D13*
G04 #@! TO.P,R9,2*
G04 #@! TO.N,Net-(R10-Pad1)*
X121550000Y-40900000D03*
G04 #@! TD*
D14*
G04 #@! TO.P,C4,2*
G04 #@! TO.N,GND*
X62300000Y-82200000D03*
G04 #@! TO.P,C4,1*
G04 #@! TO.N,/+Vref*
X62300000Y-77200000D03*
G04 #@! TD*
D15*
G04 #@! TO.P,L1,1*
G04 #@! TO.N,Net-(C7-Pad2)*
X85850000Y-76458800D03*
D16*
G04 #@! TO.P,L1,2*
G04 #@! TO.N,Net-(C6-Pad1)*
X85850000Y-82250000D03*
G04 #@! TD*
D12*
G04 #@! TO.P,R13,1*
G04 #@! TO.N,Net-(R13-Pad1)*
X96220000Y-86600000D03*
D13*
G04 #@! TO.P,R13,2*
G04 #@! TO.N,Net-(R12-Pad1)*
X107650000Y-86600000D03*
G04 #@! TD*
D10*
G04 #@! TO.P,U6,1*
G04 #@! TO.N,/I3*
X86795000Y-44618000D03*
D11*
G04 #@! TO.P,U6,2*
G04 #@! TO.N,/Vin*
X86795000Y-47412000D03*
G04 #@! TO.P,U6,3*
G04 #@! TO.N,/V_Load_1*
X86795000Y-50206000D03*
G04 #@! TO.P,U6,4*
G04 #@! TO.N,Net-(U6-Pad4)*
X86795000Y-53000000D03*
G04 #@! TO.P,U6,5*
G04 #@! TO.N,/V_Load_2*
X95050000Y-53000000D03*
G04 #@! TO.P,U6,6*
G04 #@! TO.N,/V_REF_3*
X95050000Y-50206000D03*
G04 #@! TO.P,U6,7*
G04 #@! TO.N,/I3*
X95050000Y-47412000D03*
G04 #@! TO.P,U6,8*
X95050000Y-44618000D03*
G04 #@! TD*
D12*
G04 #@! TO.P,R16,1*
G04 #@! TO.N,/Vgate*
X42000000Y-70380000D03*
D13*
G04 #@! TO.P,R16,2*
G04 #@! TO.N,/+Vref*
X42000000Y-58950000D03*
G04 #@! TD*
D10*
G04 #@! TO.P,U4,1*
G04 #@! TO.N,/I5*
X50495000Y-44468000D03*
D11*
G04 #@! TO.P,U4,2*
G04 #@! TO.N,/Vin*
X50495000Y-47262000D03*
G04 #@! TO.P,U4,3*
G04 #@! TO.N,/V_Load_1*
X50495000Y-50056000D03*
G04 #@! TO.P,U4,4*
G04 #@! TO.N,Net-(U4-Pad4)*
X50495000Y-52850000D03*
G04 #@! TO.P,U4,5*
G04 #@! TO.N,/V_Load_2*
X58750000Y-52850000D03*
G04 #@! TO.P,U4,6*
G04 #@! TO.N,GND*
X58750000Y-50056000D03*
G04 #@! TO.P,U4,7*
G04 #@! TO.N,/I5*
X58750000Y-47262000D03*
G04 #@! TO.P,U4,8*
X58750000Y-44468000D03*
G04 #@! TD*
D14*
G04 #@! TO.P,C1,2*
G04 #@! TO.N,GND*
X36250000Y-82100000D03*
G04 #@! TO.P,C1,1*
G04 #@! TO.N,Net-(C1-Pad1)*
X36250000Y-77100000D03*
G04 #@! TD*
G04 #@! TO.P,C2,2*
G04 #@! TO.N,Net-(C2-Pad2)*
X41400000Y-82050000D03*
G04 #@! TO.P,C2,1*
G04 #@! TO.N,Net-(C2-Pad1)*
X41400000Y-77050000D03*
G04 #@! TD*
G04 #@! TO.P,C3,2*
G04 #@! TO.N,Net-(C3-Pad2)*
X56750000Y-82200000D03*
G04 #@! TO.P,C3,1*
G04 #@! TO.N,Net-(C3-Pad1)*
X56750000Y-77200000D03*
G04 #@! TD*
G04 #@! TO.P,C5,2*
G04 #@! TO.N,GND*
X67700000Y-82250000D03*
G04 #@! TO.P,C5,1*
G04 #@! TO.N,Net-(C5-Pad1)*
X67700000Y-77250000D03*
G04 #@! TD*
G04 #@! TO.P,C6,2*
G04 #@! TO.N,GND*
X77800000Y-77250000D03*
G04 #@! TO.P,C6,1*
G04 #@! TO.N,Net-(C6-Pad1)*
X77800000Y-82250000D03*
G04 #@! TD*
G04 #@! TO.P,C7,2*
G04 #@! TO.N,Net-(C7-Pad2)*
X101300000Y-77900000D03*
G04 #@! TO.P,C7,1*
G04 #@! TO.N,Net-(C7-Pad1)*
X101300000Y-82900000D03*
G04 #@! TD*
G04 #@! TO.P,C8,2*
G04 #@! TO.N,GND*
X127100000Y-82700000D03*
G04 #@! TO.P,C8,1*
G04 #@! TO.N,Net-(C8-Pad1)*
X127100000Y-77700000D03*
G04 #@! TD*
D17*
G04 #@! TO.P,J1,1*
G04 #@! TO.N,/Vin*
X36051600Y-48936600D03*
G04 #@! TD*
G04 #@! TO.P,J2,1*
G04 #@! TO.N,/+Vref*
X35951600Y-44236600D03*
G04 #@! TD*
G04 #@! TO.P,J3,1*
G04 #@! TO.N,/Vout*
X36051600Y-58286600D03*
G04 #@! TD*
G04 #@! TO.P,J4,1*
G04 #@! TO.N,GND*
X36101600Y-53586600D03*
G04 #@! TD*
D15*
G04 #@! TO.P,L2,1*
G04 #@! TO.N,/-Vref*
X130200000Y-67058800D03*
D16*
G04 #@! TO.P,L2,2*
G04 #@! TO.N,Net-(C8-Pad1)*
X130200000Y-72850000D03*
G04 #@! TD*
D12*
G04 #@! TO.P,R1,1*
G04 #@! TO.N,/+Vref*
X35470000Y-34000000D03*
D13*
G04 #@! TO.P,R1,2*
G04 #@! TO.N,/V_Load_2*
X46900000Y-34000000D03*
G04 #@! TD*
D12*
G04 #@! TO.P,R3,1*
G04 #@! TO.N,/+Vref*
X35370000Y-38600000D03*
D13*
G04 #@! TO.P,R3,2*
G04 #@! TO.N,/V_Load_1*
X46800000Y-38600000D03*
G04 #@! TD*
D12*
G04 #@! TO.P,R4,1*
G04 #@! TO.N,/V_REF_2*
X66230000Y-34100000D03*
D13*
G04 #@! TO.P,R4,2*
G04 #@! TO.N,/+Vref*
X54800000Y-34100000D03*
G04 #@! TD*
D12*
G04 #@! TO.P,R5,1*
G04 #@! TO.N,/V_REF_3*
X82580000Y-34150000D03*
D13*
G04 #@! TO.P,R5,2*
G04 #@! TO.N,/V_REF_2*
X71150000Y-34150000D03*
G04 #@! TD*
D12*
G04 #@! TO.P,R6,1*
G04 #@! TO.N,/V_REF_4*
X99180000Y-34200000D03*
D13*
G04 #@! TO.P,R6,2*
G04 #@! TO.N,/V_REF_3*
X87750000Y-34200000D03*
G04 #@! TD*
D12*
G04 #@! TO.P,R7,1*
G04 #@! TO.N,GND*
X115530000Y-34300000D03*
D13*
G04 #@! TO.P,R7,2*
G04 #@! TO.N,/V_REF_4*
X104100000Y-34300000D03*
G04 #@! TD*
D12*
G04 #@! TO.P,R8,1*
G04 #@! TO.N,Net-(C6-Pad1)*
X72900000Y-88680000D03*
D13*
G04 #@! TO.P,R8,2*
G04 #@! TO.N,Net-(C5-Pad1)*
X72900000Y-77250000D03*
G04 #@! TD*
D12*
G04 #@! TO.P,R10,1*
G04 #@! TO.N,Net-(R10-Pad1)*
X130300000Y-40970000D03*
D13*
G04 #@! TO.P,R10,2*
G04 #@! TO.N,GND*
X130300000Y-52400000D03*
G04 #@! TD*
D12*
G04 #@! TO.P,R11,1*
G04 #@! TO.N,Net-(R11-Pad1)*
X125750000Y-52380000D03*
D13*
G04 #@! TO.P,R11,2*
G04 #@! TO.N,Net-(R10-Pad1)*
X125750000Y-40950000D03*
G04 #@! TD*
D12*
G04 #@! TO.P,R12,1*
G04 #@! TO.N,Net-(R12-Pad1)*
X110850000Y-89230000D03*
D13*
G04 #@! TO.P,R12,2*
G04 #@! TO.N,Net-(D1-Pad2)*
X110850000Y-77800000D03*
G04 #@! TD*
D12*
G04 #@! TO.P,R15,1*
G04 #@! TO.N,Net-(C8-Pad1)*
X115000000Y-77770000D03*
D13*
G04 #@! TO.P,R15,2*
G04 #@! TO.N,Net-(R12-Pad1)*
X115000000Y-89200000D03*
G04 #@! TD*
D10*
G04 #@! TO.P,U1,1*
G04 #@! TO.N,/-Vref*
X50095000Y-60768000D03*
D11*
G04 #@! TO.P,U1,2*
G04 #@! TO.N,/Vgate*
X50095000Y-63562000D03*
G04 #@! TO.P,U1,3*
X50095000Y-66356000D03*
G04 #@! TO.P,U1,4*
G04 #@! TO.N,Net-(U1-Pad4)*
X50095000Y-69150000D03*
G04 #@! TO.P,U1,5*
G04 #@! TO.N,/I5*
X58350000Y-69150000D03*
G04 #@! TO.P,U1,6*
G04 #@! TO.N,/Vgate*
X58350000Y-66356000D03*
G04 #@! TO.P,U1,7*
G04 #@! TO.N,/-Vref*
X58350000Y-63562000D03*
G04 #@! TO.P,U1,8*
X58350000Y-60768000D03*
G04 #@! TD*
D10*
G04 #@! TO.P,U2,1*
G04 #@! TO.N,/-Vref*
X68545000Y-60668000D03*
D11*
G04 #@! TO.P,U2,2*
G04 #@! TO.N,/Vgate*
X68545000Y-63462000D03*
G04 #@! TO.P,U2,3*
G04 #@! TO.N,/I3*
X68545000Y-66256000D03*
G04 #@! TO.P,U2,4*
G04 #@! TO.N,Net-(U2-Pad4)*
X68545000Y-69050000D03*
G04 #@! TO.P,U2,5*
G04 #@! TO.N,/I4*
X76800000Y-69050000D03*
G04 #@! TO.P,U2,6*
G04 #@! TO.N,/Vgate*
X76800000Y-66256000D03*
G04 #@! TO.P,U2,7*
G04 #@! TO.N,/-Vref*
X76800000Y-63462000D03*
G04 #@! TO.P,U2,8*
X76800000Y-60668000D03*
G04 #@! TD*
D10*
G04 #@! TO.P,U3,1*
G04 #@! TO.N,/-Vref*
X86945000Y-60668000D03*
D11*
G04 #@! TO.P,U3,2*
G04 #@! TO.N,/Vgate*
X86945000Y-63462000D03*
G04 #@! TO.P,U3,3*
G04 #@! TO.N,/I1*
X86945000Y-66256000D03*
G04 #@! TO.P,U3,4*
G04 #@! TO.N,Net-(U3-Pad4)*
X86945000Y-69050000D03*
G04 #@! TO.P,U3,5*
G04 #@! TO.N,/I2*
X95200000Y-69050000D03*
G04 #@! TO.P,U3,6*
G04 #@! TO.N,/Vgate*
X95200000Y-66256000D03*
G04 #@! TO.P,U3,7*
G04 #@! TO.N,/-Vref*
X95200000Y-63462000D03*
G04 #@! TO.P,U3,8*
X95200000Y-60668000D03*
G04 #@! TD*
D10*
G04 #@! TO.P,U5,1*
G04 #@! TO.N,/I4*
X68545000Y-44418000D03*
D11*
G04 #@! TO.P,U5,2*
G04 #@! TO.N,/Vin*
X68545000Y-47212000D03*
G04 #@! TO.P,U5,3*
G04 #@! TO.N,/V_Load_2*
X68545000Y-50006000D03*
G04 #@! TO.P,U5,4*
G04 #@! TO.N,Net-(U5-Pad4)*
X68545000Y-52800000D03*
G04 #@! TO.P,U5,5*
G04 #@! TO.N,/V_Load_1*
X76800000Y-52800000D03*
G04 #@! TO.P,U5,6*
G04 #@! TO.N,/V_REF_4*
X76800000Y-50006000D03*
G04 #@! TO.P,U5,7*
G04 #@! TO.N,/I4*
X76800000Y-47212000D03*
G04 #@! TO.P,U5,8*
X76800000Y-44418000D03*
G04 #@! TD*
D10*
G04 #@! TO.P,U8,1*
G04 #@! TO.N,/I1*
X106145000Y-61118000D03*
D11*
G04 #@! TO.P,U8,2*
G04 #@! TO.N,/Vin*
X106145000Y-63912000D03*
G04 #@! TO.P,U8,3*
G04 #@! TO.N,/V_Load_1*
X106145000Y-66706000D03*
G04 #@! TO.P,U8,4*
G04 #@! TO.N,Net-(U8-Pad4)*
X106145000Y-69500000D03*
G04 #@! TO.P,U8,5*
G04 #@! TO.N,/V_Load_2*
X114400000Y-69500000D03*
G04 #@! TO.P,U8,6*
G04 #@! TO.N,/+Vref*
X114400000Y-66706000D03*
G04 #@! TO.P,U8,7*
G04 #@! TO.N,/I1*
X114400000Y-63912000D03*
G04 #@! TO.P,U8,8*
X114400000Y-61118000D03*
G04 #@! TD*
D17*
G04 #@! TO.P,Neg. Vref,1*
G04 #@! TO.N,/-Vref*
X136000000Y-61850000D03*
G04 #@! TD*
G04 #@! TO.P,I5,1*
G04 #@! TO.N,/I5*
X63650000Y-41100000D03*
G04 #@! TD*
G04 #@! TO.P,Pos. Vref_Charged,1*
G04 #@! TO.N,Net-(C5-Pad1)*
X58350000Y-87650000D03*
G04 #@! TD*
D18*
G04 #@! TO.N,GND*
X94965942Y-83671208D03*
G04 #@! TO.N,/+Vref*
X103750000Y-73700000D03*
G04 #@! TO.N,Net-(C7-Pad1)*
X94950000Y-77400000D03*
G04 #@! TD*
D19*
G04 #@! TO.N,/+Vref*
X35370000Y-38600000D02*
X35370000Y-37576200D01*
X35370000Y-37576200D02*
X35470000Y-37476200D01*
X35470000Y-37476200D02*
X35470000Y-34000000D01*
X42000000Y-58950000D02*
X42000000Y-51460300D01*
X42000000Y-51460300D02*
X35951600Y-45411900D01*
X35951600Y-44236600D02*
X35951600Y-45411900D01*
X107406000Y-73700000D02*
X114400000Y-66706000D01*
X103750000Y-73700000D02*
X107406000Y-73700000D01*
G04 #@! TO.N,Net-(C7-Pad1)*
X95800000Y-77400000D02*
X94950000Y-77400000D01*
X101300000Y-82900000D02*
X95800000Y-77400000D01*
G04 #@! TO.N,Net-(C8-Pad1)*
X127070000Y-77670000D02*
X127100000Y-77700000D01*
G04 #@! TO.N,/Vin*
X106145000Y-63912000D02*
X104262000Y-63912000D01*
X104262000Y-63912000D02*
X102050000Y-61700000D01*
X102050000Y-51207000D02*
X105645000Y-47612000D01*
X102050000Y-61700000D02*
X102050000Y-51207000D01*
G04 #@! TO.N,/-Vref*
X86945000Y-60668000D02*
X88095800Y-60668000D01*
X95200000Y-60668000D02*
X95200000Y-63462000D01*
X58350000Y-60768000D02*
X58350000Y-63562000D01*
X76800000Y-60668000D02*
X76800000Y-63462000D01*
G04 #@! TO.N,/V_Load_2*
X117150000Y-66750000D02*
X117150000Y-66750000D01*
X117150000Y-53350000D02*
X117150000Y-66750000D01*
X115603000Y-51803000D02*
X117150000Y-53350000D01*
X105645000Y-50406000D02*
X107042000Y-51803000D01*
X107042000Y-51803000D02*
X115603000Y-51803000D01*
X117200000Y-66650000D02*
X114400000Y-69500000D01*
X117150000Y-66750000D02*
X117200000Y-66650000D01*
X56000000Y-50100000D02*
X58750000Y-52850000D01*
X46900000Y-34000000D02*
X54600000Y-41700000D01*
X54600000Y-48700000D02*
X56000000Y-50100000D01*
X54600000Y-41700000D02*
X54600000Y-48700000D01*
G04 #@! TO.N,/V_Load_1*
X50495000Y-50056000D02*
X46800000Y-46361000D01*
X46800000Y-46361000D02*
X46800000Y-38600000D01*
X113900000Y-58951000D02*
X113900000Y-53200000D01*
X106145000Y-66706000D02*
X113900000Y-58951000D01*
G04 #@! TO.N,/V_REF_3*
X95050000Y-50206000D02*
X87750000Y-42906000D01*
X87750000Y-42906000D02*
X87750000Y-34200000D01*
G04 #@! TO.N,/V_REF_4*
X98156200Y-34200000D02*
X99180000Y-34200000D01*
X96056200Y-32100000D02*
X98156200Y-34200000D01*
X77967433Y-50006000D02*
X82250000Y-45723433D01*
X76800000Y-50006000D02*
X77967433Y-50006000D01*
X82250000Y-45723433D02*
X82250000Y-39100000D01*
X82250000Y-39100000D02*
X85400000Y-35950000D01*
X85400000Y-35950000D02*
X85400000Y-33550000D01*
X86850000Y-32100000D02*
X96056200Y-32100000D01*
X85400000Y-33550000D02*
X86850000Y-32100000D01*
G04 #@! TO.N,/I3*
X95050000Y-44618000D02*
X95050000Y-47412000D01*
X68545000Y-66256000D02*
X71244000Y-66256000D01*
X71244000Y-66256000D02*
X73150000Y-64350000D01*
X73150000Y-64350000D02*
X73150000Y-60550000D01*
X73150000Y-60550000D02*
X83800000Y-49900000D01*
X83800000Y-49900000D02*
X83800000Y-46050000D01*
X85232000Y-44618000D02*
X86795000Y-44618000D01*
X83800000Y-46050000D02*
X85232000Y-44618000D01*
G04 #@! TO.N,/I1*
X114400000Y-61118000D02*
X114400000Y-63912000D01*
G04 #@! TO.N,/I2*
X106220400Y-44818000D02*
X105645000Y-44818000D01*
X106220400Y-44818000D02*
X106795800Y-44818000D01*
X113900000Y-44818000D02*
X106795800Y-44818000D01*
X113900000Y-44818000D02*
X113900000Y-47612000D01*
X103782000Y-44818000D02*
X105645000Y-44818000D01*
X100500000Y-48100000D02*
X103782000Y-44818000D01*
X100500000Y-64917433D02*
X100500000Y-48100000D01*
X95200000Y-69050000D02*
X96367433Y-69050000D01*
X96367433Y-69050000D02*
X100500000Y-64917433D01*
G04 #@! TO.N,/I5*
X58750000Y-44468000D02*
X58750000Y-47262000D01*
X63650000Y-41100000D02*
X62118000Y-41100000D01*
X62118000Y-41100000D02*
X58750000Y-44468000D01*
X59575499Y-48087499D02*
X58750000Y-47262000D01*
X59587499Y-48087499D02*
X59575499Y-48087499D01*
X61050000Y-49550000D02*
X59587499Y-48087499D01*
X61050000Y-66450000D02*
X61050000Y-49550000D01*
X58350000Y-69150000D02*
X61050000Y-66450000D01*
G04 #@! TO.N,/I4*
X76800000Y-44418000D02*
X76800000Y-47212000D01*
X66832000Y-44418000D02*
X68545000Y-44418000D01*
X63450000Y-47800000D02*
X66832000Y-44418000D01*
X76800000Y-69050000D02*
X73850000Y-72000000D01*
X73850000Y-72000000D02*
X66000000Y-72000000D01*
X63450000Y-69450000D02*
X63450000Y-66800000D01*
X66000000Y-72000000D02*
X63450000Y-69450000D01*
X63450000Y-67000000D02*
X63450000Y-66800000D01*
X63450000Y-66800000D02*
X63450000Y-47800000D01*
G04 #@! TO.N,/Vgate*
X50095000Y-66356000D02*
X50095000Y-63562000D01*
X95200000Y-66256000D02*
X92406000Y-63462000D01*
X92406000Y-63462000D02*
X86945000Y-63462000D01*
G04 #@! TD*
D20*
G04 #@! TO.N,GND*
G36*
X141273000Y-93173000D02*
X31277000Y-93173000D01*
X31277000Y-86800000D01*
X56852560Y-86800000D01*
X56852560Y-88500000D01*
X56901843Y-88747765D01*
X57042191Y-88957809D01*
X57252235Y-89098157D01*
X57500000Y-89147440D01*
X59200000Y-89147440D01*
X59447765Y-89098157D01*
X59657809Y-88957809D01*
X59798157Y-88747765D01*
X59847440Y-88500000D01*
X59847440Y-87981500D01*
X71554060Y-87981500D01*
X71554060Y-89378500D01*
X71603343Y-89626265D01*
X71743691Y-89836309D01*
X71953735Y-89976657D01*
X72201500Y-90025940D01*
X73598500Y-90025940D01*
X73846265Y-89976657D01*
X74056309Y-89836309D01*
X74196657Y-89626265D01*
X74245940Y-89378500D01*
X74245940Y-88531500D01*
X109504060Y-88531500D01*
X109504060Y-89928500D01*
X109553343Y-90176265D01*
X109693691Y-90386309D01*
X109903735Y-90526657D01*
X110151500Y-90575940D01*
X111548500Y-90575940D01*
X111796265Y-90526657D01*
X112006309Y-90386309D01*
X112146657Y-90176265D01*
X112195940Y-89928500D01*
X112195940Y-88934750D01*
X113666500Y-88934750D01*
X113666500Y-89465250D01*
X113869513Y-89955367D01*
X114244633Y-90330487D01*
X114734750Y-90533500D01*
X115265250Y-90533500D01*
X115755367Y-90330487D01*
X116130487Y-89955367D01*
X116333500Y-89465250D01*
X116333500Y-88934750D01*
X116130487Y-88444633D01*
X115755367Y-88069513D01*
X115265250Y-87866500D01*
X114734750Y-87866500D01*
X114244633Y-88069513D01*
X113869513Y-88444633D01*
X113666500Y-88934750D01*
X112195940Y-88934750D01*
X112195940Y-88531500D01*
X112146657Y-88283735D01*
X112006309Y-88073691D01*
X111796265Y-87933343D01*
X111548500Y-87884060D01*
X110151500Y-87884060D01*
X109903735Y-87933343D01*
X109693691Y-88073691D01*
X109553343Y-88283735D01*
X109504060Y-88531500D01*
X74245940Y-88531500D01*
X74245940Y-87981500D01*
X74196657Y-87733735D01*
X74056309Y-87523691D01*
X73846265Y-87383343D01*
X73598500Y-87334060D01*
X72201500Y-87334060D01*
X71953735Y-87383343D01*
X71743691Y-87523691D01*
X71603343Y-87733735D01*
X71554060Y-87981500D01*
X59847440Y-87981500D01*
X59847440Y-86800000D01*
X59798157Y-86552235D01*
X59657809Y-86342191D01*
X59447765Y-86201843D01*
X59200000Y-86152560D01*
X57500000Y-86152560D01*
X57252235Y-86201843D01*
X57042191Y-86342191D01*
X56901843Y-86552235D01*
X56852560Y-86800000D01*
X31277000Y-86800000D01*
X31277000Y-85901500D01*
X94874060Y-85901500D01*
X94874060Y-87298500D01*
X94923343Y-87546265D01*
X95063691Y-87756309D01*
X95273735Y-87896657D01*
X95521500Y-87945940D01*
X96918500Y-87945940D01*
X97166265Y-87896657D01*
X97376309Y-87756309D01*
X97516657Y-87546265D01*
X97565940Y-87298500D01*
X97565940Y-86334750D01*
X106316500Y-86334750D01*
X106316500Y-86865250D01*
X106519513Y-87355367D01*
X106894633Y-87730487D01*
X107384750Y-87933500D01*
X107915250Y-87933500D01*
X108405367Y-87730487D01*
X108780487Y-87355367D01*
X108983500Y-86865250D01*
X108983500Y-86334750D01*
X108780487Y-85844633D01*
X108405367Y-85469513D01*
X107915250Y-85266500D01*
X107384750Y-85266500D01*
X106894633Y-85469513D01*
X106519513Y-85844633D01*
X106316500Y-86334750D01*
X97565940Y-86334750D01*
X97565940Y-85901500D01*
X97516657Y-85653735D01*
X97376309Y-85443691D01*
X97166265Y-85303343D01*
X96918500Y-85254060D01*
X95521500Y-85254060D01*
X95273735Y-85303343D01*
X95063691Y-85443691D01*
X94923343Y-85653735D01*
X94874060Y-85901500D01*
X31277000Y-85901500D01*
X31277000Y-83107745D01*
X35421861Y-83107745D01*
X35495995Y-83353864D01*
X36033223Y-83546965D01*
X36603454Y-83519778D01*
X37004005Y-83353864D01*
X37078139Y-83107745D01*
X36250000Y-82279605D01*
X35421861Y-83107745D01*
X31277000Y-83107745D01*
X31277000Y-81883223D01*
X34803035Y-81883223D01*
X34830222Y-82453454D01*
X34996136Y-82854005D01*
X35242255Y-82928139D01*
X36070395Y-82100000D01*
X36429605Y-82100000D01*
X37257745Y-82928139D01*
X37503864Y-82854005D01*
X37696965Y-82316777D01*
X37670637Y-81764561D01*
X39965000Y-81764561D01*
X39965000Y-82335439D01*
X40183466Y-82862862D01*
X40587138Y-83266534D01*
X41114561Y-83485000D01*
X41685439Y-83485000D01*
X42212862Y-83266534D01*
X42616534Y-82862862D01*
X42835000Y-82335439D01*
X42835000Y-81914561D01*
X55315000Y-81914561D01*
X55315000Y-82485439D01*
X55533466Y-83012862D01*
X55937138Y-83416534D01*
X56464561Y-83635000D01*
X57035439Y-83635000D01*
X57562862Y-83416534D01*
X57771651Y-83207745D01*
X61471861Y-83207745D01*
X61545995Y-83453864D01*
X62083223Y-83646965D01*
X62653454Y-83619778D01*
X63054005Y-83453864D01*
X63113078Y-83257745D01*
X66871861Y-83257745D01*
X66945995Y-83503864D01*
X67483223Y-83696965D01*
X68053454Y-83669778D01*
X68454005Y-83503864D01*
X68528139Y-83257745D01*
X67700000Y-82429605D01*
X66871861Y-83257745D01*
X63113078Y-83257745D01*
X63128139Y-83207745D01*
X62300000Y-82379605D01*
X61471861Y-83207745D01*
X57771651Y-83207745D01*
X57966534Y-83012862D01*
X58185000Y-82485439D01*
X58185000Y-81983223D01*
X60853035Y-81983223D01*
X60880222Y-82553454D01*
X61046136Y-82954005D01*
X61292255Y-83028139D01*
X62120395Y-82200000D01*
X62479605Y-82200000D01*
X63307745Y-83028139D01*
X63553864Y-82954005D01*
X63746965Y-82416777D01*
X63728679Y-82033223D01*
X66253035Y-82033223D01*
X66280222Y-82603454D01*
X66446136Y-83004005D01*
X66692255Y-83078139D01*
X67520395Y-82250000D01*
X67879605Y-82250000D01*
X68707745Y-83078139D01*
X68953864Y-83004005D01*
X69146965Y-82466777D01*
X69123021Y-81964561D01*
X76365000Y-81964561D01*
X76365000Y-82535439D01*
X76583466Y-83062862D01*
X76987138Y-83466534D01*
X77514561Y-83685000D01*
X78085439Y-83685000D01*
X78612862Y-83466534D01*
X79016534Y-83062862D01*
X79235000Y-82535439D01*
X79235000Y-81982224D01*
X84503800Y-81982224D01*
X84503800Y-82517776D01*
X84708746Y-83012561D01*
X85087439Y-83391254D01*
X85582224Y-83596200D01*
X86117776Y-83596200D01*
X86612561Y-83391254D01*
X86991254Y-83012561D01*
X87196200Y-82517776D01*
X87196200Y-81982224D01*
X86991254Y-81487439D01*
X86612561Y-81108746D01*
X86117776Y-80903800D01*
X85582224Y-80903800D01*
X85087439Y-81108746D01*
X84708746Y-81487439D01*
X84503800Y-81982224D01*
X79235000Y-81982224D01*
X79235000Y-81964561D01*
X79016534Y-81437138D01*
X78612862Y-81033466D01*
X78085439Y-80815000D01*
X77514561Y-80815000D01*
X76987138Y-81033466D01*
X76583466Y-81437138D01*
X76365000Y-81964561D01*
X69123021Y-81964561D01*
X69119778Y-81896546D01*
X68953864Y-81495995D01*
X68707745Y-81421861D01*
X67879605Y-82250000D01*
X67520395Y-82250000D01*
X66692255Y-81421861D01*
X66446136Y-81495995D01*
X66253035Y-82033223D01*
X63728679Y-82033223D01*
X63719778Y-81846546D01*
X63553864Y-81445995D01*
X63307745Y-81371861D01*
X62479605Y-82200000D01*
X62120395Y-82200000D01*
X61292255Y-81371861D01*
X61046136Y-81445995D01*
X60853035Y-81983223D01*
X58185000Y-81983223D01*
X58185000Y-81914561D01*
X57966534Y-81387138D01*
X57771651Y-81192255D01*
X61471861Y-81192255D01*
X62300000Y-82020395D01*
X63078139Y-81242255D01*
X66871861Y-81242255D01*
X67700000Y-82070395D01*
X68528139Y-81242255D01*
X68454005Y-80996136D01*
X67916777Y-80803035D01*
X67346546Y-80830222D01*
X66945995Y-80996136D01*
X66871861Y-81242255D01*
X63078139Y-81242255D01*
X63128139Y-81192255D01*
X63054005Y-80946136D01*
X62516777Y-80753035D01*
X61946546Y-80780222D01*
X61545995Y-80946136D01*
X61471861Y-81192255D01*
X57771651Y-81192255D01*
X57562862Y-80983466D01*
X57035439Y-80765000D01*
X56464561Y-80765000D01*
X55937138Y-80983466D01*
X55533466Y-81387138D01*
X55315000Y-81914561D01*
X42835000Y-81914561D01*
X42835000Y-81764561D01*
X42616534Y-81237138D01*
X42212862Y-80833466D01*
X41685439Y-80615000D01*
X41114561Y-80615000D01*
X40587138Y-80833466D01*
X40183466Y-81237138D01*
X39965000Y-81764561D01*
X37670637Y-81764561D01*
X37669778Y-81746546D01*
X37503864Y-81345995D01*
X37257745Y-81271861D01*
X36429605Y-82100000D01*
X36070395Y-82100000D01*
X35242255Y-81271861D01*
X34996136Y-81345995D01*
X34803035Y-81883223D01*
X31277000Y-81883223D01*
X31277000Y-81092255D01*
X35421861Y-81092255D01*
X36250000Y-81920395D01*
X37078139Y-81092255D01*
X37004005Y-80846136D01*
X36466777Y-80653035D01*
X35896546Y-80680222D01*
X35495995Y-80846136D01*
X35421861Y-81092255D01*
X31277000Y-81092255D01*
X31277000Y-76814561D01*
X34815000Y-76814561D01*
X34815000Y-77385439D01*
X35033466Y-77912862D01*
X35437138Y-78316534D01*
X35964561Y-78535000D01*
X36535439Y-78535000D01*
X37062862Y-78316534D01*
X37466534Y-77912862D01*
X37685000Y-77385439D01*
X37685000Y-76814561D01*
X37664290Y-76764561D01*
X39965000Y-76764561D01*
X39965000Y-77335439D01*
X40183466Y-77862862D01*
X40587138Y-78266534D01*
X41114561Y-78485000D01*
X41685439Y-78485000D01*
X42212862Y-78266534D01*
X42616534Y-77862862D01*
X42835000Y-77335439D01*
X42835000Y-76914561D01*
X55315000Y-76914561D01*
X55315000Y-77485439D01*
X55533466Y-78012862D01*
X55937138Y-78416534D01*
X56464561Y-78635000D01*
X57035439Y-78635000D01*
X57562862Y-78416534D01*
X57966534Y-78012862D01*
X58185000Y-77485439D01*
X58185000Y-76914561D01*
X60865000Y-76914561D01*
X60865000Y-77485439D01*
X61083466Y-78012862D01*
X61487138Y-78416534D01*
X62014561Y-78635000D01*
X62585439Y-78635000D01*
X63112862Y-78416534D01*
X63516534Y-78012862D01*
X63735000Y-77485439D01*
X63735000Y-76964561D01*
X66265000Y-76964561D01*
X66265000Y-77535439D01*
X66483466Y-78062862D01*
X66887138Y-78466534D01*
X67414561Y-78685000D01*
X67985439Y-78685000D01*
X68512862Y-78466534D01*
X68916534Y-78062862D01*
X69135000Y-77535439D01*
X69135000Y-76984750D01*
X71566500Y-76984750D01*
X71566500Y-77515250D01*
X71769513Y-78005367D01*
X72144633Y-78380487D01*
X72634750Y-78583500D01*
X73165250Y-78583500D01*
X73655367Y-78380487D01*
X73778109Y-78257745D01*
X76971861Y-78257745D01*
X77045995Y-78503864D01*
X77583223Y-78696965D01*
X78153454Y-78669778D01*
X78554005Y-78503864D01*
X78628139Y-78257745D01*
X77800000Y-77429605D01*
X76971861Y-78257745D01*
X73778109Y-78257745D01*
X74030487Y-78005367D01*
X74233500Y-77515250D01*
X74233500Y-77033223D01*
X76353035Y-77033223D01*
X76380222Y-77603454D01*
X76546136Y-78004005D01*
X76792255Y-78078139D01*
X77620395Y-77250000D01*
X77979605Y-77250000D01*
X78807745Y-78078139D01*
X79053864Y-78004005D01*
X79246965Y-77466777D01*
X79219778Y-76896546D01*
X79053864Y-76495995D01*
X78807745Y-76421861D01*
X77979605Y-77250000D01*
X77620395Y-77250000D01*
X76792255Y-76421861D01*
X76546136Y-76495995D01*
X76353035Y-77033223D01*
X74233500Y-77033223D01*
X74233500Y-76984750D01*
X74030487Y-76494633D01*
X73778109Y-76242255D01*
X76971861Y-76242255D01*
X77800000Y-77070395D01*
X78628139Y-76242255D01*
X78554005Y-75996136D01*
X78016777Y-75803035D01*
X77446546Y-75830222D01*
X77045995Y-75996136D01*
X76971861Y-76242255D01*
X73778109Y-76242255D01*
X73655367Y-76119513D01*
X73165250Y-75916500D01*
X72634750Y-75916500D01*
X72144633Y-76119513D01*
X71769513Y-76494633D01*
X71566500Y-76984750D01*
X69135000Y-76984750D01*
X69135000Y-76964561D01*
X68916534Y-76437138D01*
X68512862Y-76033466D01*
X67985439Y-75815000D01*
X67414561Y-75815000D01*
X66887138Y-76033466D01*
X66483466Y-76437138D01*
X66265000Y-76964561D01*
X63735000Y-76964561D01*
X63735000Y-76914561D01*
X63516534Y-76387138D01*
X63112862Y-75983466D01*
X62585439Y-75765000D01*
X62014561Y-75765000D01*
X61487138Y-75983466D01*
X61083466Y-76387138D01*
X60865000Y-76914561D01*
X58185000Y-76914561D01*
X57966534Y-76387138D01*
X57562862Y-75983466D01*
X57035439Y-75765000D01*
X56464561Y-75765000D01*
X55937138Y-75983466D01*
X55533466Y-76387138D01*
X55315000Y-76914561D01*
X42835000Y-76914561D01*
X42835000Y-76764561D01*
X42616534Y-76237138D01*
X42212862Y-75833466D01*
X42005564Y-75747600D01*
X84491360Y-75747600D01*
X84491360Y-77170000D01*
X84540643Y-77417765D01*
X84680991Y-77627809D01*
X84891035Y-77768157D01*
X85138800Y-77817440D01*
X86561200Y-77817440D01*
X86808965Y-77768157D01*
X87019009Y-77627809D01*
X87159357Y-77417765D01*
X87203841Y-77194126D01*
X93915000Y-77194126D01*
X93915000Y-77605874D01*
X94072569Y-77986280D01*
X94363720Y-78277431D01*
X94744126Y-78435000D01*
X95155874Y-78435000D01*
X95536280Y-78277431D01*
X95569455Y-78244256D01*
X99886896Y-82561698D01*
X99865000Y-82614561D01*
X99865000Y-83185439D01*
X100083466Y-83712862D01*
X100487138Y-84116534D01*
X101014561Y-84335000D01*
X101585439Y-84335000D01*
X102112862Y-84116534D01*
X102516534Y-83712862D01*
X102518653Y-83707745D01*
X126271861Y-83707745D01*
X126345995Y-83953864D01*
X126883223Y-84146965D01*
X127453454Y-84119778D01*
X127854005Y-83953864D01*
X127928139Y-83707745D01*
X127100000Y-82879605D01*
X126271861Y-83707745D01*
X102518653Y-83707745D01*
X102735000Y-83185439D01*
X102735000Y-82614561D01*
X102680598Y-82483223D01*
X125653035Y-82483223D01*
X125680222Y-83053454D01*
X125846136Y-83454005D01*
X126092255Y-83528139D01*
X126920395Y-82700000D01*
X127279605Y-82700000D01*
X128107745Y-83528139D01*
X128353864Y-83454005D01*
X128546965Y-82916777D01*
X128519778Y-82346546D01*
X128353864Y-81945995D01*
X128107745Y-81871861D01*
X127279605Y-82700000D01*
X126920395Y-82700000D01*
X126092255Y-81871861D01*
X125846136Y-81945995D01*
X125653035Y-82483223D01*
X102680598Y-82483223D01*
X102516534Y-82087138D01*
X102121651Y-81692255D01*
X126271861Y-81692255D01*
X127100000Y-82520395D01*
X127928139Y-81692255D01*
X127854005Y-81446136D01*
X127316777Y-81253035D01*
X126746546Y-81280222D01*
X126345995Y-81446136D01*
X126271861Y-81692255D01*
X102121651Y-81692255D01*
X102112862Y-81683466D01*
X101585439Y-81465000D01*
X101014561Y-81465000D01*
X100961698Y-81486896D01*
X97089363Y-77614561D01*
X99865000Y-77614561D01*
X99865000Y-78185439D01*
X100083466Y-78712862D01*
X100487138Y-79116534D01*
X101014561Y-79335000D01*
X101585439Y-79335000D01*
X102112862Y-79116534D01*
X102516534Y-78712862D01*
X102735000Y-78185439D01*
X102735000Y-77614561D01*
X102701942Y-77534750D01*
X109516500Y-77534750D01*
X109516500Y-78065250D01*
X109719513Y-78555367D01*
X110094633Y-78930487D01*
X110584750Y-79133500D01*
X111115250Y-79133500D01*
X111605367Y-78930487D01*
X111980487Y-78555367D01*
X112183500Y-78065250D01*
X112183500Y-77534750D01*
X111991616Y-77071500D01*
X113654060Y-77071500D01*
X113654060Y-78468500D01*
X113703343Y-78716265D01*
X113843691Y-78926309D01*
X114053735Y-79066657D01*
X114301500Y-79115940D01*
X115698500Y-79115940D01*
X115946265Y-79066657D01*
X116156309Y-78926309D01*
X116296657Y-78716265D01*
X116345940Y-78468500D01*
X116345940Y-77414561D01*
X125665000Y-77414561D01*
X125665000Y-77985439D01*
X125883466Y-78512862D01*
X126287138Y-78916534D01*
X126814561Y-79135000D01*
X127385439Y-79135000D01*
X127912862Y-78916534D01*
X128316534Y-78512862D01*
X128535000Y-77985439D01*
X128535000Y-77414561D01*
X128316534Y-76887138D01*
X127912862Y-76483466D01*
X127385439Y-76265000D01*
X126814561Y-76265000D01*
X126287138Y-76483466D01*
X125883466Y-76887138D01*
X125665000Y-77414561D01*
X116345940Y-77414561D01*
X116345940Y-77071500D01*
X116296657Y-76823735D01*
X116156309Y-76613691D01*
X115946265Y-76473343D01*
X115698500Y-76424060D01*
X114301500Y-76424060D01*
X114053735Y-76473343D01*
X113843691Y-76613691D01*
X113703343Y-76823735D01*
X113654060Y-77071500D01*
X111991616Y-77071500D01*
X111980487Y-77044633D01*
X111605367Y-76669513D01*
X111115250Y-76466500D01*
X110584750Y-76466500D01*
X110094633Y-76669513D01*
X109719513Y-77044633D01*
X109516500Y-77534750D01*
X102701942Y-77534750D01*
X102516534Y-77087138D01*
X102112862Y-76683466D01*
X101585439Y-76465000D01*
X101014561Y-76465000D01*
X100487138Y-76683466D01*
X100083466Y-77087138D01*
X99865000Y-77614561D01*
X97089363Y-77614561D01*
X96390331Y-76915530D01*
X96347929Y-76852071D01*
X96096537Y-76684096D01*
X95874852Y-76640000D01*
X95874847Y-76640000D01*
X95800000Y-76625112D01*
X95725153Y-76640000D01*
X95653711Y-76640000D01*
X95536280Y-76522569D01*
X95155874Y-76365000D01*
X94744126Y-76365000D01*
X94363720Y-76522569D01*
X94072569Y-76813720D01*
X93915000Y-77194126D01*
X87203841Y-77194126D01*
X87208640Y-77170000D01*
X87208640Y-75747600D01*
X87159357Y-75499835D01*
X87019009Y-75289791D01*
X86808965Y-75149443D01*
X86561200Y-75100160D01*
X85138800Y-75100160D01*
X84891035Y-75149443D01*
X84680991Y-75289791D01*
X84540643Y-75499835D01*
X84491360Y-75747600D01*
X42005564Y-75747600D01*
X41685439Y-75615000D01*
X41114561Y-75615000D01*
X40587138Y-75833466D01*
X40183466Y-76237138D01*
X39965000Y-76764561D01*
X37664290Y-76764561D01*
X37466534Y-76287138D01*
X37062862Y-75883466D01*
X36535439Y-75665000D01*
X35964561Y-75665000D01*
X35437138Y-75883466D01*
X35033466Y-76287138D01*
X34815000Y-76814561D01*
X31277000Y-76814561D01*
X31277000Y-69681500D01*
X40654060Y-69681500D01*
X40654060Y-71078500D01*
X40703343Y-71326265D01*
X40843691Y-71536309D01*
X41053735Y-71676657D01*
X41301500Y-71725940D01*
X42698500Y-71725940D01*
X42946265Y-71676657D01*
X43156309Y-71536309D01*
X43296657Y-71326265D01*
X43345940Y-71078500D01*
X43345940Y-69681500D01*
X43296657Y-69433735D01*
X43156309Y-69223691D01*
X42946265Y-69083343D01*
X42698500Y-69034060D01*
X41301500Y-69034060D01*
X41053735Y-69083343D01*
X40843691Y-69223691D01*
X40703343Y-69433735D01*
X40654060Y-69681500D01*
X31277000Y-69681500D01*
X31277000Y-57436600D01*
X34554160Y-57436600D01*
X34554160Y-59136600D01*
X34603443Y-59384365D01*
X34743791Y-59594409D01*
X34953835Y-59734757D01*
X35201600Y-59784040D01*
X36901600Y-59784040D01*
X37149365Y-59734757D01*
X37359409Y-59594409D01*
X37499757Y-59384365D01*
X37549040Y-59136600D01*
X37549040Y-57436600D01*
X37499757Y-57188835D01*
X37359409Y-56978791D01*
X37149365Y-56838443D01*
X36901600Y-56789160D01*
X35201600Y-56789160D01*
X34953835Y-56838443D01*
X34743791Y-56978791D01*
X34603443Y-57188835D01*
X34554160Y-57436600D01*
X31277000Y-57436600D01*
X31277000Y-53872350D01*
X34616600Y-53872350D01*
X34616600Y-54562909D01*
X34713273Y-54796298D01*
X34891901Y-54974927D01*
X35125290Y-55071600D01*
X35815850Y-55071600D01*
X35974600Y-54912850D01*
X35974600Y-53713600D01*
X36228600Y-53713600D01*
X36228600Y-54912850D01*
X36387350Y-55071600D01*
X37077910Y-55071600D01*
X37311299Y-54974927D01*
X37489927Y-54796298D01*
X37586600Y-54562909D01*
X37586600Y-53872350D01*
X37427850Y-53713600D01*
X36228600Y-53713600D01*
X35974600Y-53713600D01*
X34775350Y-53713600D01*
X34616600Y-53872350D01*
X31277000Y-53872350D01*
X31277000Y-52610291D01*
X34616600Y-52610291D01*
X34616600Y-53300850D01*
X34775350Y-53459600D01*
X35974600Y-53459600D01*
X35974600Y-52260350D01*
X36228600Y-52260350D01*
X36228600Y-53459600D01*
X37427850Y-53459600D01*
X37586600Y-53300850D01*
X37586600Y-52610291D01*
X37489927Y-52376902D01*
X37311299Y-52198273D01*
X37077910Y-52101600D01*
X36387350Y-52101600D01*
X36228600Y-52260350D01*
X35974600Y-52260350D01*
X35815850Y-52101600D01*
X35125290Y-52101600D01*
X34891901Y-52198273D01*
X34713273Y-52376902D01*
X34616600Y-52610291D01*
X31277000Y-52610291D01*
X31277000Y-43386600D01*
X34454160Y-43386600D01*
X34454160Y-45086600D01*
X34503443Y-45334365D01*
X34643791Y-45544409D01*
X34853835Y-45684757D01*
X35101600Y-45734040D01*
X35252804Y-45734040D01*
X35357642Y-45890940D01*
X35403672Y-45959829D01*
X35467128Y-46002229D01*
X36904669Y-47439770D01*
X36901600Y-47439160D01*
X35201600Y-47439160D01*
X34953835Y-47488443D01*
X34743791Y-47628791D01*
X34603443Y-47838835D01*
X34554160Y-48086600D01*
X34554160Y-49786600D01*
X34603443Y-50034365D01*
X34743791Y-50244409D01*
X34953835Y-50384757D01*
X35201600Y-50434040D01*
X36901600Y-50434040D01*
X37149365Y-50384757D01*
X37359409Y-50244409D01*
X37499757Y-50034365D01*
X37549040Y-49786600D01*
X37549040Y-48086600D01*
X37548430Y-48083531D01*
X41240001Y-51775104D01*
X41240000Y-57824146D01*
X40869513Y-58194633D01*
X40666500Y-58684750D01*
X40666500Y-59215250D01*
X40869513Y-59705367D01*
X41244633Y-60080487D01*
X41734750Y-60283500D01*
X42265250Y-60283500D01*
X42755367Y-60080487D01*
X42893354Y-59942500D01*
X48622060Y-59942500D01*
X48622060Y-61593500D01*
X48671343Y-61841265D01*
X48811691Y-62051309D01*
X49021735Y-62191657D01*
X49269500Y-62240940D01*
X49467850Y-62240940D01*
X49267693Y-62323848D01*
X48856848Y-62734693D01*
X48634500Y-63271488D01*
X48634500Y-63852512D01*
X48856848Y-64389307D01*
X49267693Y-64800152D01*
X49335001Y-64828032D01*
X49335000Y-65089968D01*
X49267693Y-65117848D01*
X48856848Y-65528693D01*
X48634500Y-66065488D01*
X48634500Y-66646512D01*
X48856848Y-67183307D01*
X49267693Y-67594152D01*
X49651186Y-67753000D01*
X49267693Y-67911848D01*
X48856848Y-68322693D01*
X48634500Y-68859488D01*
X48634500Y-69440512D01*
X48856848Y-69977307D01*
X49267693Y-70388152D01*
X49804488Y-70610500D01*
X50385512Y-70610500D01*
X50922307Y-70388152D01*
X51333152Y-69977307D01*
X51555500Y-69440512D01*
X51555500Y-68859488D01*
X51333152Y-68322693D01*
X50922307Y-67911848D01*
X50538814Y-67753000D01*
X50922307Y-67594152D01*
X51333152Y-67183307D01*
X51555500Y-66646512D01*
X51555500Y-66065488D01*
X51333152Y-65528693D01*
X50922307Y-65117848D01*
X50855000Y-65089968D01*
X50855000Y-64828032D01*
X50922307Y-64800152D01*
X51333152Y-64389307D01*
X51555500Y-63852512D01*
X51555500Y-63271488D01*
X51333152Y-62734693D01*
X50922307Y-62323848D01*
X50722150Y-62240940D01*
X50920500Y-62240940D01*
X51168265Y-62191657D01*
X51378309Y-62051309D01*
X51518657Y-61841265D01*
X51567940Y-61593500D01*
X51567940Y-60477488D01*
X56889500Y-60477488D01*
X56889500Y-61058512D01*
X57111848Y-61595307D01*
X57522693Y-62006152D01*
X57590000Y-62034032D01*
X57590001Y-62295968D01*
X57522693Y-62323848D01*
X57111848Y-62734693D01*
X56889500Y-63271488D01*
X56889500Y-63852512D01*
X57111848Y-64389307D01*
X57522693Y-64800152D01*
X57906186Y-64959000D01*
X57522693Y-65117848D01*
X57111848Y-65528693D01*
X56889500Y-66065488D01*
X56889500Y-66646512D01*
X57111848Y-67183307D01*
X57522693Y-67594152D01*
X57906186Y-67753000D01*
X57522693Y-67911848D01*
X57111848Y-68322693D01*
X56889500Y-68859488D01*
X56889500Y-69440512D01*
X57111848Y-69977307D01*
X57522693Y-70388152D01*
X58059488Y-70610500D01*
X58640512Y-70610500D01*
X59177307Y-70388152D01*
X59588152Y-69977307D01*
X59810500Y-69440512D01*
X59810500Y-68859488D01*
X59782620Y-68792181D01*
X61534473Y-67040329D01*
X61597929Y-66997929D01*
X61765904Y-66746537D01*
X61810000Y-66524852D01*
X61810000Y-66524848D01*
X61824888Y-66450000D01*
X61810000Y-66375152D01*
X61810000Y-49624848D01*
X61824888Y-49550000D01*
X61810000Y-49475152D01*
X61810000Y-49475148D01*
X61765904Y-49253463D01*
X61765904Y-49253462D01*
X61640329Y-49065527D01*
X61597929Y-49002071D01*
X61534473Y-48959671D01*
X60374802Y-47800000D01*
X62675112Y-47800000D01*
X62690001Y-47874852D01*
X62690000Y-66725148D01*
X62690000Y-67074851D01*
X62690001Y-67074855D01*
X62690000Y-69375153D01*
X62675112Y-69450000D01*
X62690000Y-69524847D01*
X62690000Y-69524851D01*
X62734096Y-69746536D01*
X62902071Y-69997929D01*
X62965530Y-70040331D01*
X65409671Y-72484473D01*
X65452071Y-72547929D01*
X65703463Y-72715904D01*
X65925148Y-72760000D01*
X65925152Y-72760000D01*
X66000000Y-72774888D01*
X66074848Y-72760000D01*
X73775153Y-72760000D01*
X73850000Y-72774888D01*
X73924847Y-72760000D01*
X73924852Y-72760000D01*
X74146537Y-72715904D01*
X74397929Y-72547929D01*
X74440331Y-72484470D01*
X76442181Y-70482621D01*
X76509488Y-70510500D01*
X77090512Y-70510500D01*
X77627307Y-70288152D01*
X78038152Y-69877307D01*
X78260500Y-69340512D01*
X78260500Y-68759488D01*
X78038152Y-68222693D01*
X77627307Y-67811848D01*
X77243814Y-67653000D01*
X77627307Y-67494152D01*
X78038152Y-67083307D01*
X78260500Y-66546512D01*
X78260500Y-65965488D01*
X78038152Y-65428693D01*
X77627307Y-65017848D01*
X77243814Y-64859000D01*
X77627307Y-64700152D01*
X78038152Y-64289307D01*
X78260500Y-63752512D01*
X78260500Y-63171488D01*
X78038152Y-62634693D01*
X77627307Y-62223848D01*
X77560000Y-62195968D01*
X77560000Y-61934032D01*
X77627307Y-61906152D01*
X78038152Y-61495307D01*
X78260500Y-60958512D01*
X78260500Y-60377488D01*
X78038901Y-59842500D01*
X85472060Y-59842500D01*
X85472060Y-61493500D01*
X85521343Y-61741265D01*
X85661691Y-61951309D01*
X85871735Y-62091657D01*
X86119500Y-62140940D01*
X86317850Y-62140940D01*
X86117693Y-62223848D01*
X85706848Y-62634693D01*
X85484500Y-63171488D01*
X85484500Y-63752512D01*
X85706848Y-64289307D01*
X86117693Y-64700152D01*
X86501186Y-64859000D01*
X86117693Y-65017848D01*
X85706848Y-65428693D01*
X85484500Y-65965488D01*
X85484500Y-66546512D01*
X85706848Y-67083307D01*
X86117693Y-67494152D01*
X86501186Y-67653000D01*
X86117693Y-67811848D01*
X85706848Y-68222693D01*
X85484500Y-68759488D01*
X85484500Y-69340512D01*
X85706848Y-69877307D01*
X86117693Y-70288152D01*
X86654488Y-70510500D01*
X87235512Y-70510500D01*
X87772307Y-70288152D01*
X88183152Y-69877307D01*
X88405500Y-69340512D01*
X88405500Y-68759488D01*
X88183152Y-68222693D01*
X87772307Y-67811848D01*
X87388814Y-67653000D01*
X87772307Y-67494152D01*
X88183152Y-67083307D01*
X88405500Y-66546512D01*
X88405500Y-65965488D01*
X88183152Y-65428693D01*
X87772307Y-65017848D01*
X87388814Y-64859000D01*
X87772307Y-64700152D01*
X88183152Y-64289307D01*
X88211032Y-64222000D01*
X92091199Y-64222000D01*
X93767379Y-65898181D01*
X93739500Y-65965488D01*
X93739500Y-66546512D01*
X93961848Y-67083307D01*
X94372693Y-67494152D01*
X94756186Y-67653000D01*
X94372693Y-67811848D01*
X93961848Y-68222693D01*
X93739500Y-68759488D01*
X93739500Y-69340512D01*
X93961848Y-69877307D01*
X94372693Y-70288152D01*
X94909488Y-70510500D01*
X95490512Y-70510500D01*
X96027307Y-70288152D01*
X96438152Y-69877307D01*
X96468164Y-69804852D01*
X96663970Y-69765904D01*
X96915362Y-69597929D01*
X96957764Y-69534470D01*
X100984476Y-65507760D01*
X101047929Y-65465362D01*
X101090327Y-65401909D01*
X101090329Y-65401907D01*
X101215903Y-65213971D01*
X101215904Y-65213970D01*
X101260000Y-64992285D01*
X101260000Y-64992281D01*
X101274888Y-64917434D01*
X101260000Y-64842587D01*
X101260000Y-48414801D01*
X104096802Y-45578000D01*
X104172060Y-45578000D01*
X104172060Y-45643500D01*
X104221343Y-45891265D01*
X104361691Y-46101309D01*
X104571735Y-46241657D01*
X104819500Y-46290940D01*
X105017850Y-46290940D01*
X104817693Y-46373848D01*
X104406848Y-46784693D01*
X104184500Y-47321488D01*
X104184500Y-47902512D01*
X104212379Y-47969819D01*
X101565528Y-50616671D01*
X101502072Y-50659071D01*
X101459672Y-50722527D01*
X101459671Y-50722528D01*
X101334097Y-50910463D01*
X101275112Y-51207000D01*
X101290001Y-51281852D01*
X101290000Y-61625153D01*
X101275112Y-61700000D01*
X101290000Y-61774847D01*
X101290000Y-61774851D01*
X101334096Y-61996536D01*
X101502071Y-62247929D01*
X101565530Y-62290331D01*
X103671673Y-64396476D01*
X103714071Y-64459929D01*
X103777524Y-64502327D01*
X103777526Y-64502329D01*
X103902902Y-64586102D01*
X103965463Y-64627904D01*
X104187148Y-64672000D01*
X104187152Y-64672000D01*
X104261999Y-64686888D01*
X104336846Y-64672000D01*
X104878968Y-64672000D01*
X104906848Y-64739307D01*
X105317693Y-65150152D01*
X105701186Y-65309000D01*
X105317693Y-65467848D01*
X104906848Y-65878693D01*
X104684500Y-66415488D01*
X104684500Y-66996512D01*
X104906848Y-67533307D01*
X105317693Y-67944152D01*
X105701186Y-68103000D01*
X105317693Y-68261848D01*
X104906848Y-68672693D01*
X104684500Y-69209488D01*
X104684500Y-69790512D01*
X104906848Y-70327307D01*
X105317693Y-70738152D01*
X105854488Y-70960500D01*
X106435512Y-70960500D01*
X106972307Y-70738152D01*
X107383152Y-70327307D01*
X107605500Y-69790512D01*
X107605500Y-69209488D01*
X107383152Y-68672693D01*
X106972307Y-68261848D01*
X106588814Y-68103000D01*
X106972307Y-67944152D01*
X107383152Y-67533307D01*
X107605500Y-66996512D01*
X107605500Y-66415488D01*
X107577620Y-66348181D01*
X112939500Y-60986302D01*
X112939500Y-61408512D01*
X113161848Y-61945307D01*
X113572693Y-62356152D01*
X113640000Y-62384032D01*
X113640001Y-62645968D01*
X113572693Y-62673848D01*
X113161848Y-63084693D01*
X112939500Y-63621488D01*
X112939500Y-64202512D01*
X113161848Y-64739307D01*
X113572693Y-65150152D01*
X113956186Y-65309000D01*
X113572693Y-65467848D01*
X113161848Y-65878693D01*
X112939500Y-66415488D01*
X112939500Y-66996512D01*
X112967379Y-67063819D01*
X107091199Y-72940000D01*
X104453711Y-72940000D01*
X104336280Y-72822569D01*
X103955874Y-72665000D01*
X103544126Y-72665000D01*
X103163720Y-72822569D01*
X102872569Y-73113720D01*
X102715000Y-73494126D01*
X102715000Y-73905874D01*
X102872569Y-74286280D01*
X103163720Y-74577431D01*
X103544126Y-74735000D01*
X103955874Y-74735000D01*
X104336280Y-74577431D01*
X104453711Y-74460000D01*
X107331153Y-74460000D01*
X107406000Y-74474888D01*
X107480847Y-74460000D01*
X107480852Y-74460000D01*
X107702537Y-74415904D01*
X107953929Y-74247929D01*
X107996331Y-74184470D01*
X109598577Y-72582224D01*
X128853800Y-72582224D01*
X128853800Y-73117776D01*
X129058746Y-73612561D01*
X129437439Y-73991254D01*
X129932224Y-74196200D01*
X130467776Y-74196200D01*
X130962561Y-73991254D01*
X131341254Y-73612561D01*
X131546200Y-73117776D01*
X131546200Y-72582224D01*
X131341254Y-72087439D01*
X130962561Y-71708746D01*
X130467776Y-71503800D01*
X129932224Y-71503800D01*
X129437439Y-71708746D01*
X129058746Y-72087439D01*
X128853800Y-72582224D01*
X109598577Y-72582224D01*
X112939500Y-69241302D01*
X112939500Y-69790512D01*
X113161848Y-70327307D01*
X113572693Y-70738152D01*
X114109488Y-70960500D01*
X114690512Y-70960500D01*
X115227307Y-70738152D01*
X115638152Y-70327307D01*
X115860500Y-69790512D01*
X115860500Y-69209488D01*
X115827975Y-69130966D01*
X117496861Y-67432278D01*
X117549818Y-67396894D01*
X117657708Y-67335392D01*
X117674777Y-67313399D01*
X117697929Y-67297929D01*
X117766939Y-67194648D01*
X117796289Y-67156831D01*
X117808423Y-67132563D01*
X117865904Y-67046537D01*
X117873358Y-67009061D01*
X117918500Y-66940191D01*
X117941024Y-66821473D01*
X117972939Y-66704932D01*
X117969025Y-66673886D01*
X117974858Y-66643143D01*
X117950236Y-66524840D01*
X117935123Y-66404960D01*
X117919628Y-66377777D01*
X117913347Y-66347600D01*
X128841360Y-66347600D01*
X128841360Y-67770000D01*
X128890643Y-68017765D01*
X129030991Y-68227809D01*
X129241035Y-68368157D01*
X129488800Y-68417440D01*
X130911200Y-68417440D01*
X131158965Y-68368157D01*
X131369009Y-68227809D01*
X131509357Y-68017765D01*
X131558640Y-67770000D01*
X131558640Y-66347600D01*
X131509357Y-66099835D01*
X131369009Y-65889791D01*
X131158965Y-65749443D01*
X130911200Y-65700160D01*
X129488800Y-65700160D01*
X129241035Y-65749443D01*
X129030991Y-65889791D01*
X128890643Y-66099835D01*
X128841360Y-66347600D01*
X117913347Y-66347600D01*
X117913251Y-66347139D01*
X117910000Y-66342366D01*
X117910000Y-61000000D01*
X134502560Y-61000000D01*
X134502560Y-62700000D01*
X134551843Y-62947765D01*
X134692191Y-63157809D01*
X134902235Y-63298157D01*
X135150000Y-63347440D01*
X136850000Y-63347440D01*
X137097765Y-63298157D01*
X137307809Y-63157809D01*
X137448157Y-62947765D01*
X137497440Y-62700000D01*
X137497440Y-61000000D01*
X137448157Y-60752235D01*
X137307809Y-60542191D01*
X137097765Y-60401843D01*
X136850000Y-60352560D01*
X135150000Y-60352560D01*
X134902235Y-60401843D01*
X134692191Y-60542191D01*
X134551843Y-60752235D01*
X134502560Y-61000000D01*
X117910000Y-61000000D01*
X117910000Y-56734750D01*
X118766500Y-56734750D01*
X118766500Y-57265250D01*
X118969513Y-57755367D01*
X119344633Y-58130487D01*
X119834750Y-58333500D01*
X120365250Y-58333500D01*
X120855367Y-58130487D01*
X121230487Y-57755367D01*
X121433500Y-57265250D01*
X121433500Y-56734750D01*
X121254043Y-56301500D01*
X130184060Y-56301500D01*
X130184060Y-57698500D01*
X130233343Y-57946265D01*
X130373691Y-58156309D01*
X130583735Y-58296657D01*
X130831500Y-58345940D01*
X132228500Y-58345940D01*
X132476265Y-58296657D01*
X132686309Y-58156309D01*
X132826657Y-57946265D01*
X132875940Y-57698500D01*
X132875940Y-56301500D01*
X132826657Y-56053735D01*
X132686309Y-55843691D01*
X132476265Y-55703343D01*
X132228500Y-55654060D01*
X130831500Y-55654060D01*
X130583735Y-55703343D01*
X130373691Y-55843691D01*
X130233343Y-56053735D01*
X130184060Y-56301500D01*
X121254043Y-56301500D01*
X121230487Y-56244633D01*
X120855367Y-55869513D01*
X120365250Y-55666500D01*
X119834750Y-55666500D01*
X119344633Y-55869513D01*
X118969513Y-56244633D01*
X118766500Y-56734750D01*
X117910000Y-56734750D01*
X117910000Y-53424846D01*
X117924888Y-53349999D01*
X117910000Y-53275152D01*
X117910000Y-53275148D01*
X117865904Y-53053463D01*
X117769703Y-52909488D01*
X117740329Y-52865526D01*
X117740327Y-52865524D01*
X117697929Y-52802071D01*
X117634476Y-52759673D01*
X116506302Y-51631500D01*
X120204060Y-51631500D01*
X120204060Y-53028500D01*
X120253343Y-53276265D01*
X120393691Y-53486309D01*
X120603735Y-53626657D01*
X120851500Y-53675940D01*
X122248500Y-53675940D01*
X122496265Y-53626657D01*
X122706309Y-53486309D01*
X122846657Y-53276265D01*
X122895940Y-53028500D01*
X122895940Y-51681500D01*
X124404060Y-51681500D01*
X124404060Y-53078500D01*
X124453343Y-53326265D01*
X124593691Y-53536309D01*
X124803735Y-53676657D01*
X125051500Y-53725940D01*
X126448500Y-53725940D01*
X126696265Y-53676657D01*
X126906309Y-53536309D01*
X127041362Y-53334188D01*
X129545417Y-53334188D01*
X129607071Y-53569800D01*
X130107480Y-53745927D01*
X130637199Y-53717148D01*
X130992929Y-53569800D01*
X131054583Y-53334188D01*
X130300000Y-52579605D01*
X129545417Y-53334188D01*
X127041362Y-53334188D01*
X127046657Y-53326265D01*
X127095940Y-53078500D01*
X127095940Y-52207480D01*
X128954073Y-52207480D01*
X128982852Y-52737199D01*
X129130200Y-53092929D01*
X129365812Y-53154583D01*
X130120395Y-52400000D01*
X130479605Y-52400000D01*
X131234188Y-53154583D01*
X131469800Y-53092929D01*
X131645927Y-52592520D01*
X131617148Y-52062801D01*
X131469800Y-51707071D01*
X131234188Y-51645417D01*
X130479605Y-52400000D01*
X130120395Y-52400000D01*
X129365812Y-51645417D01*
X129130200Y-51707071D01*
X128954073Y-52207480D01*
X127095940Y-52207480D01*
X127095940Y-51681500D01*
X127053038Y-51465812D01*
X129545417Y-51465812D01*
X130300000Y-52220395D01*
X131054583Y-51465812D01*
X130992929Y-51230200D01*
X130492520Y-51054073D01*
X129962801Y-51082852D01*
X129607071Y-51230200D01*
X129545417Y-51465812D01*
X127053038Y-51465812D01*
X127046657Y-51433735D01*
X126906309Y-51223691D01*
X126696265Y-51083343D01*
X126448500Y-51034060D01*
X125051500Y-51034060D01*
X124803735Y-51083343D01*
X124593691Y-51223691D01*
X124453343Y-51433735D01*
X124404060Y-51681500D01*
X122895940Y-51681500D01*
X122895940Y-51631500D01*
X122846657Y-51383735D01*
X122706309Y-51173691D01*
X122496265Y-51033343D01*
X122248500Y-50984060D01*
X120851500Y-50984060D01*
X120603735Y-51033343D01*
X120393691Y-51173691D01*
X120253343Y-51383735D01*
X120204060Y-51631500D01*
X116506302Y-51631500D01*
X116193331Y-51318530D01*
X116150929Y-51255071D01*
X115899537Y-51087096D01*
X115677852Y-51043000D01*
X115677847Y-51043000D01*
X115603000Y-51028112D01*
X115528153Y-51043000D01*
X115216980Y-51043000D01*
X115360500Y-50696512D01*
X115360500Y-50115488D01*
X115138152Y-49578693D01*
X114727307Y-49167848D01*
X114343814Y-49009000D01*
X114727307Y-48850152D01*
X115138152Y-48439307D01*
X115360500Y-47902512D01*
X115360500Y-47321488D01*
X115138152Y-46784693D01*
X114727307Y-46373848D01*
X114660000Y-46345968D01*
X114660000Y-46084032D01*
X114727307Y-46056152D01*
X115138152Y-45645307D01*
X115360500Y-45108512D01*
X115360500Y-44527488D01*
X115138152Y-43990693D01*
X114727307Y-43579848D01*
X114190512Y-43357500D01*
X113609488Y-43357500D01*
X113072693Y-43579848D01*
X112661848Y-43990693D01*
X112633968Y-44058000D01*
X107117940Y-44058000D01*
X107117940Y-43992500D01*
X107068657Y-43744735D01*
X106928309Y-43534691D01*
X106718265Y-43394343D01*
X106470500Y-43345060D01*
X104819500Y-43345060D01*
X104571735Y-43394343D01*
X104361691Y-43534691D01*
X104221343Y-43744735D01*
X104172060Y-43992500D01*
X104172060Y-44058000D01*
X103856847Y-44058000D01*
X103782000Y-44043112D01*
X103707153Y-44058000D01*
X103707148Y-44058000D01*
X103485463Y-44102096D01*
X103234071Y-44270071D01*
X103191671Y-44333527D01*
X100015528Y-47509671D01*
X99952072Y-47552071D01*
X99909672Y-47615527D01*
X99909671Y-47615528D01*
X99784097Y-47803463D01*
X99725112Y-48100000D01*
X99740001Y-48174852D01*
X99740000Y-64602630D01*
X96279045Y-68063586D01*
X96027307Y-67811848D01*
X95643814Y-67653000D01*
X96027307Y-67494152D01*
X96438152Y-67083307D01*
X96660500Y-66546512D01*
X96660500Y-65965488D01*
X96438152Y-65428693D01*
X96027307Y-65017848D01*
X95643814Y-64859000D01*
X96027307Y-64700152D01*
X96438152Y-64289307D01*
X96660500Y-63752512D01*
X96660500Y-63171488D01*
X96438152Y-62634693D01*
X96027307Y-62223848D01*
X95960000Y-62195968D01*
X95960000Y-61934032D01*
X96027307Y-61906152D01*
X96438152Y-61495307D01*
X96660500Y-60958512D01*
X96660500Y-60377488D01*
X96438152Y-59840693D01*
X96027307Y-59429848D01*
X95490512Y-59207500D01*
X94909488Y-59207500D01*
X94372693Y-59429848D01*
X93961848Y-59840693D01*
X93739500Y-60377488D01*
X93739500Y-60958512D01*
X93961848Y-61495307D01*
X94372693Y-61906152D01*
X94440000Y-61934032D01*
X94440001Y-62195968D01*
X94372693Y-62223848D01*
X93961848Y-62634693D01*
X93739500Y-63171488D01*
X93739500Y-63720699D01*
X92996331Y-62977530D01*
X92953929Y-62914071D01*
X92702537Y-62746096D01*
X92480852Y-62702000D01*
X92480847Y-62702000D01*
X92406000Y-62687112D01*
X92331153Y-62702000D01*
X88211032Y-62702000D01*
X88183152Y-62634693D01*
X87772307Y-62223848D01*
X87572150Y-62140940D01*
X87770500Y-62140940D01*
X88018265Y-62091657D01*
X88228309Y-61951309D01*
X88368657Y-61741265D01*
X88417940Y-61493500D01*
X88417940Y-61366797D01*
X88643729Y-61215929D01*
X88811704Y-60964537D01*
X88870689Y-60668000D01*
X88811704Y-60371463D01*
X88643729Y-60120071D01*
X88417940Y-59969203D01*
X88417940Y-59842500D01*
X88368657Y-59594735D01*
X88228309Y-59384691D01*
X88018265Y-59244343D01*
X87770500Y-59195060D01*
X86119500Y-59195060D01*
X85871735Y-59244343D01*
X85661691Y-59384691D01*
X85521343Y-59594735D01*
X85472060Y-59842500D01*
X78038901Y-59842500D01*
X78038152Y-59840693D01*
X77627307Y-59429848D01*
X77090512Y-59207500D01*
X76509488Y-59207500D01*
X75972693Y-59429848D01*
X75561848Y-59840693D01*
X75339500Y-60377488D01*
X75339500Y-60958512D01*
X75561848Y-61495307D01*
X75972693Y-61906152D01*
X76040000Y-61934032D01*
X76040001Y-62195968D01*
X75972693Y-62223848D01*
X75561848Y-62634693D01*
X75339500Y-63171488D01*
X75339500Y-63752512D01*
X75561848Y-64289307D01*
X75972693Y-64700152D01*
X76356186Y-64859000D01*
X75972693Y-65017848D01*
X75561848Y-65428693D01*
X75339500Y-65965488D01*
X75339500Y-66546512D01*
X75561848Y-67083307D01*
X75972693Y-67494152D01*
X76356186Y-67653000D01*
X75972693Y-67811848D01*
X75561848Y-68222693D01*
X75339500Y-68759488D01*
X75339500Y-69340512D01*
X75367379Y-69407819D01*
X73535199Y-71240000D01*
X66314802Y-71240000D01*
X64210000Y-69135199D01*
X64210000Y-59842500D01*
X67072060Y-59842500D01*
X67072060Y-61493500D01*
X67121343Y-61741265D01*
X67261691Y-61951309D01*
X67471735Y-62091657D01*
X67719500Y-62140940D01*
X67917850Y-62140940D01*
X67717693Y-62223848D01*
X67306848Y-62634693D01*
X67084500Y-63171488D01*
X67084500Y-63752512D01*
X67306848Y-64289307D01*
X67717693Y-64700152D01*
X68101186Y-64859000D01*
X67717693Y-65017848D01*
X67306848Y-65428693D01*
X67084500Y-65965488D01*
X67084500Y-66546512D01*
X67306848Y-67083307D01*
X67717693Y-67494152D01*
X68101186Y-67653000D01*
X67717693Y-67811848D01*
X67306848Y-68222693D01*
X67084500Y-68759488D01*
X67084500Y-69340512D01*
X67306848Y-69877307D01*
X67717693Y-70288152D01*
X68254488Y-70510500D01*
X68835512Y-70510500D01*
X69372307Y-70288152D01*
X69783152Y-69877307D01*
X70005500Y-69340512D01*
X70005500Y-68759488D01*
X69783152Y-68222693D01*
X69372307Y-67811848D01*
X68988814Y-67653000D01*
X69372307Y-67494152D01*
X69783152Y-67083307D01*
X69811032Y-67016000D01*
X71169153Y-67016000D01*
X71244000Y-67030888D01*
X71318847Y-67016000D01*
X71318852Y-67016000D01*
X71540537Y-66971904D01*
X71791929Y-66803929D01*
X71834331Y-66740470D01*
X73634473Y-64940329D01*
X73697929Y-64897929D01*
X73865904Y-64646537D01*
X73910000Y-64424852D01*
X73910000Y-64424848D01*
X73924888Y-64350001D01*
X73910000Y-64275154D01*
X73910000Y-60864801D01*
X84284476Y-50490327D01*
X84347929Y-50447929D01*
X84390327Y-50384476D01*
X84390329Y-50384474D01*
X84483917Y-50244409D01*
X84515904Y-50196537D01*
X84560000Y-49974852D01*
X84560000Y-49974848D01*
X84574888Y-49900001D01*
X84560000Y-49825154D01*
X84560000Y-46364801D01*
X85348480Y-45576322D01*
X85371343Y-45691265D01*
X85511691Y-45901309D01*
X85721735Y-46041657D01*
X85969500Y-46090940D01*
X86167850Y-46090940D01*
X85967693Y-46173848D01*
X85556848Y-46584693D01*
X85334500Y-47121488D01*
X85334500Y-47702512D01*
X85556848Y-48239307D01*
X85967693Y-48650152D01*
X86351186Y-48809000D01*
X85967693Y-48967848D01*
X85556848Y-49378693D01*
X85334500Y-49915488D01*
X85334500Y-50496512D01*
X85556848Y-51033307D01*
X85967693Y-51444152D01*
X86351186Y-51603000D01*
X85967693Y-51761848D01*
X85556848Y-52172693D01*
X85334500Y-52709488D01*
X85334500Y-53290512D01*
X85556848Y-53827307D01*
X85967693Y-54238152D01*
X86504488Y-54460500D01*
X87085512Y-54460500D01*
X87622307Y-54238152D01*
X88033152Y-53827307D01*
X88255500Y-53290512D01*
X88255500Y-52709488D01*
X88033152Y-52172693D01*
X87622307Y-51761848D01*
X87238814Y-51603000D01*
X87622307Y-51444152D01*
X88033152Y-51033307D01*
X88255500Y-50496512D01*
X88255500Y-49915488D01*
X88033152Y-49378693D01*
X87622307Y-48967848D01*
X87238814Y-48809000D01*
X87622307Y-48650152D01*
X88033152Y-48239307D01*
X88255500Y-47702512D01*
X88255500Y-47121488D01*
X88033152Y-46584693D01*
X87622307Y-46173848D01*
X87422150Y-46090940D01*
X87620500Y-46090940D01*
X87868265Y-46041657D01*
X88078309Y-45901309D01*
X88218657Y-45691265D01*
X88267940Y-45443500D01*
X88267940Y-44498741D01*
X93617379Y-49848181D01*
X93589500Y-49915488D01*
X93589500Y-50496512D01*
X93811848Y-51033307D01*
X94222693Y-51444152D01*
X94606186Y-51603000D01*
X94222693Y-51761848D01*
X93811848Y-52172693D01*
X93589500Y-52709488D01*
X93589500Y-53290512D01*
X93811848Y-53827307D01*
X94222693Y-54238152D01*
X94759488Y-54460500D01*
X95340512Y-54460500D01*
X95877307Y-54238152D01*
X96288152Y-53827307D01*
X96510500Y-53290512D01*
X96510500Y-52709488D01*
X96288152Y-52172693D01*
X95877307Y-51761848D01*
X95493814Y-51603000D01*
X95877307Y-51444152D01*
X96288152Y-51033307D01*
X96510500Y-50496512D01*
X96510500Y-49915488D01*
X96288152Y-49378693D01*
X95877307Y-48967848D01*
X95493814Y-48809000D01*
X95877307Y-48650152D01*
X96288152Y-48239307D01*
X96510500Y-47702512D01*
X96510500Y-47121488D01*
X96288152Y-46584693D01*
X95877307Y-46173848D01*
X95810000Y-46145968D01*
X95810000Y-45884032D01*
X95877307Y-45856152D01*
X96288152Y-45445307D01*
X96510500Y-44908512D01*
X96510500Y-44327488D01*
X96288152Y-43790693D01*
X95877307Y-43379848D01*
X95340512Y-43157500D01*
X94759488Y-43157500D01*
X94222693Y-43379848D01*
X93811848Y-43790693D01*
X93589500Y-44327488D01*
X93589500Y-44908512D01*
X93811848Y-45445307D01*
X94222693Y-45856152D01*
X94290000Y-45884032D01*
X94290001Y-46145968D01*
X94222693Y-46173848D01*
X93811848Y-46584693D01*
X93589500Y-47121488D01*
X93589500Y-47670698D01*
X88510000Y-42591199D01*
X88510000Y-40634750D01*
X120216500Y-40634750D01*
X120216500Y-41165250D01*
X120419513Y-41655367D01*
X120794633Y-42030487D01*
X121284750Y-42233500D01*
X121815250Y-42233500D01*
X122305367Y-42030487D01*
X122680487Y-41655367D01*
X122883500Y-41165250D01*
X122883500Y-40684750D01*
X124416500Y-40684750D01*
X124416500Y-41215250D01*
X124619513Y-41705367D01*
X124994633Y-42080487D01*
X125484750Y-42283500D01*
X126015250Y-42283500D01*
X126505367Y-42080487D01*
X126880487Y-41705367D01*
X127083500Y-41215250D01*
X127083500Y-40684750D01*
X126912327Y-40271500D01*
X128954060Y-40271500D01*
X128954060Y-41668500D01*
X129003343Y-41916265D01*
X129143691Y-42126309D01*
X129353735Y-42266657D01*
X129601500Y-42315940D01*
X130998500Y-42315940D01*
X131246265Y-42266657D01*
X131456309Y-42126309D01*
X131596657Y-41916265D01*
X131645940Y-41668500D01*
X131645940Y-40271500D01*
X131596657Y-40023735D01*
X131456309Y-39813691D01*
X131246265Y-39673343D01*
X130998500Y-39624060D01*
X129601500Y-39624060D01*
X129353735Y-39673343D01*
X129143691Y-39813691D01*
X129003343Y-40023735D01*
X128954060Y-40271500D01*
X126912327Y-40271500D01*
X126880487Y-40194633D01*
X126505367Y-39819513D01*
X126015250Y-39616500D01*
X125484750Y-39616500D01*
X124994633Y-39819513D01*
X124619513Y-40194633D01*
X124416500Y-40684750D01*
X122883500Y-40684750D01*
X122883500Y-40634750D01*
X122680487Y-40144633D01*
X122305367Y-39769513D01*
X121815250Y-39566500D01*
X121284750Y-39566500D01*
X120794633Y-39769513D01*
X120419513Y-40144633D01*
X120216500Y-40634750D01*
X88510000Y-40634750D01*
X88510000Y-35325854D01*
X88880487Y-34955367D01*
X89083500Y-34465250D01*
X89083500Y-33934750D01*
X88880487Y-33444633D01*
X88505367Y-33069513D01*
X88015250Y-32866500D01*
X87484750Y-32866500D01*
X86994633Y-33069513D01*
X86619513Y-33444633D01*
X86416500Y-33934750D01*
X86416500Y-34465250D01*
X86619513Y-34955367D01*
X86990001Y-35325855D01*
X86990000Y-42831153D01*
X86975112Y-42906000D01*
X86990000Y-42980847D01*
X86990000Y-42980851D01*
X87022663Y-43145060D01*
X85969500Y-43145060D01*
X85721735Y-43194343D01*
X85511691Y-43334691D01*
X85371343Y-43544735D01*
X85322060Y-43792500D01*
X85322060Y-43858000D01*
X85306848Y-43858000D01*
X85232000Y-43843112D01*
X85157152Y-43858000D01*
X85157148Y-43858000D01*
X84983605Y-43892520D01*
X84935462Y-43902096D01*
X84802868Y-43990693D01*
X84684071Y-44070071D01*
X84641671Y-44133527D01*
X83315528Y-45459671D01*
X83252072Y-45502071D01*
X83209672Y-45565527D01*
X83209671Y-45565528D01*
X83084097Y-45753463D01*
X83025112Y-46050000D01*
X83040001Y-46124852D01*
X83040000Y-49585197D01*
X72665528Y-59959671D01*
X72602072Y-60002071D01*
X72559672Y-60065527D01*
X72559671Y-60065528D01*
X72434097Y-60253463D01*
X72375112Y-60550000D01*
X72390001Y-60624852D01*
X72390000Y-64035198D01*
X70929199Y-65496000D01*
X69811032Y-65496000D01*
X69783152Y-65428693D01*
X69372307Y-65017848D01*
X68988814Y-64859000D01*
X69372307Y-64700152D01*
X69783152Y-64289307D01*
X70005500Y-63752512D01*
X70005500Y-63171488D01*
X69783152Y-62634693D01*
X69372307Y-62223848D01*
X69172150Y-62140940D01*
X69370500Y-62140940D01*
X69618265Y-62091657D01*
X69828309Y-61951309D01*
X69968657Y-61741265D01*
X70017940Y-61493500D01*
X70017940Y-59842500D01*
X69968657Y-59594735D01*
X69828309Y-59384691D01*
X69618265Y-59244343D01*
X69370500Y-59195060D01*
X67719500Y-59195060D01*
X67471735Y-59244343D01*
X67261691Y-59384691D01*
X67121343Y-59594735D01*
X67072060Y-59842500D01*
X64210000Y-59842500D01*
X64210000Y-48114801D01*
X67073593Y-45251209D01*
X67121343Y-45491265D01*
X67261691Y-45701309D01*
X67471735Y-45841657D01*
X67719500Y-45890940D01*
X67917850Y-45890940D01*
X67717693Y-45973848D01*
X67306848Y-46384693D01*
X67084500Y-46921488D01*
X67084500Y-47502512D01*
X67306848Y-48039307D01*
X67717693Y-48450152D01*
X68101186Y-48609000D01*
X67717693Y-48767848D01*
X67306848Y-49178693D01*
X67084500Y-49715488D01*
X67084500Y-50296512D01*
X67306848Y-50833307D01*
X67717693Y-51244152D01*
X68101186Y-51403000D01*
X67717693Y-51561848D01*
X67306848Y-51972693D01*
X67084500Y-52509488D01*
X67084500Y-53090512D01*
X67306848Y-53627307D01*
X67717693Y-54038152D01*
X68254488Y-54260500D01*
X68835512Y-54260500D01*
X69372307Y-54038152D01*
X69783152Y-53627307D01*
X70005500Y-53090512D01*
X70005500Y-52509488D01*
X69783152Y-51972693D01*
X69372307Y-51561848D01*
X68988814Y-51403000D01*
X69372307Y-51244152D01*
X69783152Y-50833307D01*
X70005500Y-50296512D01*
X70005500Y-49715488D01*
X69783152Y-49178693D01*
X69372307Y-48767848D01*
X68988814Y-48609000D01*
X69372307Y-48450152D01*
X69783152Y-48039307D01*
X70005500Y-47502512D01*
X70005500Y-46921488D01*
X69783152Y-46384693D01*
X69372307Y-45973848D01*
X69172150Y-45890940D01*
X69370500Y-45890940D01*
X69618265Y-45841657D01*
X69828309Y-45701309D01*
X69968657Y-45491265D01*
X70017940Y-45243500D01*
X70017940Y-44127488D01*
X75339500Y-44127488D01*
X75339500Y-44708512D01*
X75561848Y-45245307D01*
X75972693Y-45656152D01*
X76040000Y-45684032D01*
X76040001Y-45945968D01*
X75972693Y-45973848D01*
X75561848Y-46384693D01*
X75339500Y-46921488D01*
X75339500Y-47502512D01*
X75561848Y-48039307D01*
X75972693Y-48450152D01*
X76356186Y-48609000D01*
X75972693Y-48767848D01*
X75561848Y-49178693D01*
X75339500Y-49715488D01*
X75339500Y-50296512D01*
X75561848Y-50833307D01*
X75972693Y-51244152D01*
X76356186Y-51403000D01*
X75972693Y-51561848D01*
X75561848Y-51972693D01*
X75339500Y-52509488D01*
X75339500Y-53090512D01*
X75561848Y-53627307D01*
X75972693Y-54038152D01*
X76509488Y-54260500D01*
X77090512Y-54260500D01*
X77627307Y-54038152D01*
X78038152Y-53627307D01*
X78260500Y-53090512D01*
X78260500Y-52509488D01*
X78038152Y-51972693D01*
X77627307Y-51561848D01*
X77243814Y-51403000D01*
X77627307Y-51244152D01*
X78038152Y-50833307D01*
X78068164Y-50760852D01*
X78263970Y-50721904D01*
X78515362Y-50553929D01*
X78557764Y-50490470D01*
X82734476Y-46313760D01*
X82797929Y-46271362D01*
X82840327Y-46207909D01*
X82840329Y-46207907D01*
X82941728Y-46056152D01*
X82965904Y-46019970D01*
X83010000Y-45798285D01*
X83010000Y-45798281D01*
X83024888Y-45723434D01*
X83010000Y-45648587D01*
X83010000Y-39414801D01*
X85884473Y-36540329D01*
X85947929Y-36497929D01*
X85990924Y-36433582D01*
X86115904Y-36246538D01*
X86125480Y-36198395D01*
X86160000Y-36024852D01*
X86160000Y-36024848D01*
X86174888Y-35950000D01*
X86160000Y-35875152D01*
X86160000Y-33864801D01*
X87164802Y-32860000D01*
X95741399Y-32860000D01*
X97565873Y-34684476D01*
X97608271Y-34747929D01*
X97671724Y-34790327D01*
X97671726Y-34790329D01*
X97758786Y-34848500D01*
X97834128Y-34898842D01*
X97883343Y-35146265D01*
X98023691Y-35356309D01*
X98233735Y-35496657D01*
X98481500Y-35545940D01*
X99878500Y-35545940D01*
X100126265Y-35496657D01*
X100336309Y-35356309D01*
X100476657Y-35146265D01*
X100525940Y-34898500D01*
X100525940Y-34034750D01*
X102766500Y-34034750D01*
X102766500Y-34565250D01*
X102969513Y-35055367D01*
X103344633Y-35430487D01*
X103834750Y-35633500D01*
X104365250Y-35633500D01*
X104855367Y-35430487D01*
X105230487Y-35055367D01*
X105425008Y-34585750D01*
X114196500Y-34585750D01*
X114196500Y-35124810D01*
X114293173Y-35358199D01*
X114471802Y-35536827D01*
X114705191Y-35633500D01*
X115244250Y-35633500D01*
X115403000Y-35474750D01*
X115403000Y-34427000D01*
X115657000Y-34427000D01*
X115657000Y-35474750D01*
X115815750Y-35633500D01*
X116354809Y-35633500D01*
X116588198Y-35536827D01*
X116766827Y-35358199D01*
X116863500Y-35124810D01*
X116863500Y-34585750D01*
X116704750Y-34427000D01*
X115657000Y-34427000D01*
X115403000Y-34427000D01*
X114355250Y-34427000D01*
X114196500Y-34585750D01*
X105425008Y-34585750D01*
X105433500Y-34565250D01*
X105433500Y-34034750D01*
X105230487Y-33544633D01*
X105161044Y-33475190D01*
X114196500Y-33475190D01*
X114196500Y-34014250D01*
X114355250Y-34173000D01*
X115403000Y-34173000D01*
X115403000Y-33125250D01*
X115657000Y-33125250D01*
X115657000Y-34173000D01*
X116704750Y-34173000D01*
X116863500Y-34014250D01*
X116863500Y-33475190D01*
X116766827Y-33241801D01*
X116588198Y-33063173D01*
X116354809Y-32966500D01*
X115815750Y-32966500D01*
X115657000Y-33125250D01*
X115403000Y-33125250D01*
X115244250Y-32966500D01*
X114705191Y-32966500D01*
X114471802Y-33063173D01*
X114293173Y-33241801D01*
X114196500Y-33475190D01*
X105161044Y-33475190D01*
X104855367Y-33169513D01*
X104365250Y-32966500D01*
X103834750Y-32966500D01*
X103344633Y-33169513D01*
X102969513Y-33544633D01*
X102766500Y-34034750D01*
X100525940Y-34034750D01*
X100525940Y-33501500D01*
X100476657Y-33253735D01*
X100336309Y-33043691D01*
X100126265Y-32903343D01*
X99878500Y-32854060D01*
X98481500Y-32854060D01*
X98233735Y-32903343D01*
X98054265Y-33023262D01*
X96646531Y-31615530D01*
X96604129Y-31552071D01*
X96352737Y-31384096D01*
X96131052Y-31340000D01*
X96131047Y-31340000D01*
X96056200Y-31325112D01*
X95981353Y-31340000D01*
X86924848Y-31340000D01*
X86850000Y-31325112D01*
X86775152Y-31340000D01*
X86775148Y-31340000D01*
X86601605Y-31374520D01*
X86553462Y-31384096D01*
X86366418Y-31509076D01*
X86302071Y-31552071D01*
X86259671Y-31615527D01*
X84915528Y-32959671D01*
X84852072Y-33002071D01*
X84809672Y-33065527D01*
X84809671Y-33065528D01*
X84684097Y-33253463D01*
X84625112Y-33550000D01*
X84640001Y-33624852D01*
X84640000Y-35635198D01*
X81765528Y-38509671D01*
X81702072Y-38552071D01*
X81659672Y-38615527D01*
X81659671Y-38615528D01*
X81534097Y-38803463D01*
X81475112Y-39100000D01*
X81490001Y-39174852D01*
X81490000Y-45408630D01*
X77879045Y-49019586D01*
X77627307Y-48767848D01*
X77243814Y-48609000D01*
X77627307Y-48450152D01*
X78038152Y-48039307D01*
X78260500Y-47502512D01*
X78260500Y-46921488D01*
X78038152Y-46384693D01*
X77627307Y-45973848D01*
X77560000Y-45945968D01*
X77560000Y-45684032D01*
X77627307Y-45656152D01*
X78038152Y-45245307D01*
X78260500Y-44708512D01*
X78260500Y-44127488D01*
X78038152Y-43590693D01*
X77627307Y-43179848D01*
X77090512Y-42957500D01*
X76509488Y-42957500D01*
X75972693Y-43179848D01*
X75561848Y-43590693D01*
X75339500Y-44127488D01*
X70017940Y-44127488D01*
X70017940Y-43592500D01*
X69968657Y-43344735D01*
X69828309Y-43134691D01*
X69618265Y-42994343D01*
X69370500Y-42945060D01*
X67719500Y-42945060D01*
X67471735Y-42994343D01*
X67261691Y-43134691D01*
X67121343Y-43344735D01*
X67072060Y-43592500D01*
X67072060Y-43658000D01*
X66906846Y-43658000D01*
X66831999Y-43643112D01*
X66757152Y-43658000D01*
X66757148Y-43658000D01*
X66535463Y-43702096D01*
X66284071Y-43870071D01*
X66241671Y-43933527D01*
X62965528Y-47209671D01*
X62902072Y-47252071D01*
X62859672Y-47315527D01*
X62859671Y-47315528D01*
X62734097Y-47503463D01*
X62675112Y-47800000D01*
X60374802Y-47800000D01*
X60186135Y-47611334D01*
X60210500Y-47552512D01*
X60210500Y-46971488D01*
X59988152Y-46434693D01*
X59577307Y-46023848D01*
X59510000Y-45995968D01*
X59510000Y-45734032D01*
X59577307Y-45706152D01*
X59988152Y-45295307D01*
X60210500Y-44758512D01*
X60210500Y-44177488D01*
X60182620Y-44110181D01*
X62184123Y-42108679D01*
X62201843Y-42197765D01*
X62342191Y-42407809D01*
X62552235Y-42548157D01*
X62800000Y-42597440D01*
X64500000Y-42597440D01*
X64747765Y-42548157D01*
X64957809Y-42407809D01*
X65098157Y-42197765D01*
X65147440Y-41950000D01*
X65147440Y-40250000D01*
X65098157Y-40002235D01*
X64957809Y-39792191D01*
X64747765Y-39651843D01*
X64500000Y-39602560D01*
X62800000Y-39602560D01*
X62552235Y-39651843D01*
X62342191Y-39792191D01*
X62201843Y-40002235D01*
X62152560Y-40250000D01*
X62152560Y-40331987D01*
X62117999Y-40325112D01*
X62043152Y-40340000D01*
X62043148Y-40340000D01*
X61821463Y-40384096D01*
X61570071Y-40552071D01*
X61527671Y-40615527D01*
X59107819Y-43035380D01*
X59040512Y-43007500D01*
X58459488Y-43007500D01*
X57922693Y-43229848D01*
X57511848Y-43640693D01*
X57289500Y-44177488D01*
X57289500Y-44758512D01*
X57511848Y-45295307D01*
X57922693Y-45706152D01*
X57990000Y-45734032D01*
X57990001Y-45995968D01*
X57922693Y-46023848D01*
X57511848Y-46434693D01*
X57289500Y-46971488D01*
X57289500Y-47552512D01*
X57511848Y-48089307D01*
X57922693Y-48500152D01*
X58290717Y-48652593D01*
X57980656Y-48781024D01*
X57903390Y-49029785D01*
X58750000Y-49876395D01*
X58764143Y-49862253D01*
X58943748Y-50041858D01*
X58929605Y-50056000D01*
X59776215Y-50902610D01*
X60024976Y-50825344D01*
X60222340Y-50278869D01*
X60199031Y-49773833D01*
X60290001Y-49864803D01*
X60290000Y-66135198D01*
X59810500Y-66614698D01*
X59810500Y-66065488D01*
X59588152Y-65528693D01*
X59177307Y-65117848D01*
X58793814Y-64959000D01*
X59177307Y-64800152D01*
X59588152Y-64389307D01*
X59810500Y-63852512D01*
X59810500Y-63271488D01*
X59588152Y-62734693D01*
X59177307Y-62323848D01*
X59110000Y-62295968D01*
X59110000Y-62034032D01*
X59177307Y-62006152D01*
X59588152Y-61595307D01*
X59810500Y-61058512D01*
X59810500Y-60477488D01*
X59588152Y-59940693D01*
X59177307Y-59529848D01*
X58640512Y-59307500D01*
X58059488Y-59307500D01*
X57522693Y-59529848D01*
X57111848Y-59940693D01*
X56889500Y-60477488D01*
X51567940Y-60477488D01*
X51567940Y-59942500D01*
X51518657Y-59694735D01*
X51378309Y-59484691D01*
X51168265Y-59344343D01*
X50920500Y-59295060D01*
X49269500Y-59295060D01*
X49021735Y-59344343D01*
X48811691Y-59484691D01*
X48671343Y-59694735D01*
X48622060Y-59942500D01*
X42893354Y-59942500D01*
X43130487Y-59705367D01*
X43333500Y-59215250D01*
X43333500Y-58684750D01*
X43130487Y-58194633D01*
X42760000Y-57824146D01*
X42760000Y-51535146D01*
X42774888Y-51460299D01*
X42760000Y-51385452D01*
X42760000Y-51385448D01*
X42715904Y-51163763D01*
X42661415Y-51082215D01*
X42590329Y-50975826D01*
X42590327Y-50975824D01*
X42547929Y-50912371D01*
X42484476Y-50869973D01*
X37199165Y-45584663D01*
X37259409Y-45544409D01*
X37399757Y-45334365D01*
X37449040Y-45086600D01*
X37449040Y-43386600D01*
X37399757Y-43138835D01*
X37259409Y-42928791D01*
X37049365Y-42788443D01*
X36801600Y-42739160D01*
X35101600Y-42739160D01*
X34853835Y-42788443D01*
X34643791Y-42928791D01*
X34503443Y-43138835D01*
X34454160Y-43386600D01*
X31277000Y-43386600D01*
X31277000Y-37901500D01*
X34024060Y-37901500D01*
X34024060Y-39298500D01*
X34073343Y-39546265D01*
X34213691Y-39756309D01*
X34423735Y-39896657D01*
X34671500Y-39945940D01*
X36068500Y-39945940D01*
X36316265Y-39896657D01*
X36526309Y-39756309D01*
X36666657Y-39546265D01*
X36715940Y-39298500D01*
X36715940Y-38334750D01*
X45466500Y-38334750D01*
X45466500Y-38865250D01*
X45669513Y-39355367D01*
X46040001Y-39725855D01*
X46040000Y-46286153D01*
X46025112Y-46361000D01*
X46040000Y-46435847D01*
X46040000Y-46435851D01*
X46084096Y-46657536D01*
X46252071Y-46908929D01*
X46315530Y-46951331D01*
X49062379Y-49698181D01*
X49034500Y-49765488D01*
X49034500Y-50346512D01*
X49256848Y-50883307D01*
X49667693Y-51294152D01*
X50051186Y-51453000D01*
X49667693Y-51611848D01*
X49256848Y-52022693D01*
X49034500Y-52559488D01*
X49034500Y-53140512D01*
X49256848Y-53677307D01*
X49667693Y-54088152D01*
X50204488Y-54310500D01*
X50785512Y-54310500D01*
X51322307Y-54088152D01*
X51733152Y-53677307D01*
X51955500Y-53140512D01*
X51955500Y-52559488D01*
X51733152Y-52022693D01*
X51322307Y-51611848D01*
X50938814Y-51453000D01*
X51322307Y-51294152D01*
X51733152Y-50883307D01*
X51955500Y-50346512D01*
X51955500Y-49765488D01*
X51733152Y-49228693D01*
X51322307Y-48817848D01*
X50938814Y-48659000D01*
X51322307Y-48500152D01*
X51733152Y-48089307D01*
X51955500Y-47552512D01*
X51955500Y-46971488D01*
X51733152Y-46434693D01*
X51322307Y-46023848D01*
X51122150Y-45940940D01*
X51320500Y-45940940D01*
X51568265Y-45891657D01*
X51778309Y-45751309D01*
X51918657Y-45541265D01*
X51967940Y-45293500D01*
X51967940Y-43642500D01*
X51918657Y-43394735D01*
X51778309Y-43184691D01*
X51568265Y-43044343D01*
X51320500Y-42995060D01*
X49669500Y-42995060D01*
X49421735Y-43044343D01*
X49211691Y-43184691D01*
X49071343Y-43394735D01*
X49022060Y-43642500D01*
X49022060Y-45293500D01*
X49071343Y-45541265D01*
X49211691Y-45751309D01*
X49421735Y-45891657D01*
X49669500Y-45940940D01*
X49867850Y-45940940D01*
X49667693Y-46023848D01*
X49256848Y-46434693D01*
X49034500Y-46971488D01*
X49034500Y-47520699D01*
X47560000Y-46046199D01*
X47560000Y-39725854D01*
X47930487Y-39355367D01*
X48133500Y-38865250D01*
X48133500Y-38334750D01*
X47930487Y-37844633D01*
X47555367Y-37469513D01*
X47065250Y-37266500D01*
X46534750Y-37266500D01*
X46044633Y-37469513D01*
X45669513Y-37844633D01*
X45466500Y-38334750D01*
X36715940Y-38334750D01*
X36715940Y-37901500D01*
X36666657Y-37653735D01*
X36526309Y-37443691D01*
X36316265Y-37303343D01*
X36230000Y-37286184D01*
X36230000Y-35333707D01*
X36416265Y-35296657D01*
X36626309Y-35156309D01*
X36766657Y-34946265D01*
X36815940Y-34698500D01*
X36815940Y-33734750D01*
X45566500Y-33734750D01*
X45566500Y-34265250D01*
X45769513Y-34755367D01*
X46144633Y-35130487D01*
X46634750Y-35333500D01*
X47158699Y-35333500D01*
X53840000Y-42014803D01*
X53840001Y-48625148D01*
X53825112Y-48700000D01*
X53884097Y-48996537D01*
X54009421Y-49184097D01*
X54052072Y-49247929D01*
X54115528Y-49290329D01*
X55515527Y-50690329D01*
X55515530Y-50690331D01*
X57317379Y-52492182D01*
X57289500Y-52559488D01*
X57289500Y-53140512D01*
X57511848Y-53677307D01*
X57922693Y-54088152D01*
X58459488Y-54310500D01*
X59040512Y-54310500D01*
X59577307Y-54088152D01*
X59988152Y-53677307D01*
X60210500Y-53140512D01*
X60210500Y-52559488D01*
X59988152Y-52022693D01*
X59577307Y-51611848D01*
X59209283Y-51459407D01*
X59519344Y-51330976D01*
X59596610Y-51082215D01*
X58750000Y-50235605D01*
X58735858Y-50249748D01*
X58556253Y-50070143D01*
X58570395Y-50056000D01*
X57723785Y-49209390D01*
X57475024Y-49286656D01*
X57277660Y-49833131D01*
X57300388Y-50325586D01*
X56590331Y-49615530D01*
X56590329Y-49615527D01*
X55360000Y-48385199D01*
X55360000Y-41774846D01*
X55374888Y-41699999D01*
X55360000Y-41625152D01*
X55360000Y-41625148D01*
X55315904Y-41403463D01*
X55274102Y-41340902D01*
X55190329Y-41215526D01*
X55190327Y-41215524D01*
X55147929Y-41152071D01*
X55084476Y-41109673D01*
X48233500Y-34258699D01*
X48233500Y-33834750D01*
X53466500Y-33834750D01*
X53466500Y-34365250D01*
X53669513Y-34855367D01*
X54044633Y-35230487D01*
X54534750Y-35433500D01*
X55065250Y-35433500D01*
X55555367Y-35230487D01*
X55930487Y-34855367D01*
X56133500Y-34365250D01*
X56133500Y-33834750D01*
X55954043Y-33401500D01*
X64884060Y-33401500D01*
X64884060Y-34798500D01*
X64933343Y-35046265D01*
X65073691Y-35256309D01*
X65283735Y-35396657D01*
X65531500Y-35445940D01*
X66928500Y-35445940D01*
X67176265Y-35396657D01*
X67386309Y-35256309D01*
X67526657Y-35046265D01*
X67575940Y-34798500D01*
X67575940Y-33884750D01*
X69816500Y-33884750D01*
X69816500Y-34415250D01*
X70019513Y-34905367D01*
X70394633Y-35280487D01*
X70884750Y-35483500D01*
X71415250Y-35483500D01*
X71905367Y-35280487D01*
X72280487Y-34905367D01*
X72483500Y-34415250D01*
X72483500Y-33884750D01*
X72304043Y-33451500D01*
X81234060Y-33451500D01*
X81234060Y-34848500D01*
X81283343Y-35096265D01*
X81423691Y-35306309D01*
X81633735Y-35446657D01*
X81881500Y-35495940D01*
X83278500Y-35495940D01*
X83526265Y-35446657D01*
X83736309Y-35306309D01*
X83876657Y-35096265D01*
X83925940Y-34848500D01*
X83925940Y-33451500D01*
X83876657Y-33203735D01*
X83736309Y-32993691D01*
X83526265Y-32853343D01*
X83278500Y-32804060D01*
X81881500Y-32804060D01*
X81633735Y-32853343D01*
X81423691Y-32993691D01*
X81283343Y-33203735D01*
X81234060Y-33451500D01*
X72304043Y-33451500D01*
X72280487Y-33394633D01*
X71905367Y-33019513D01*
X71415250Y-32816500D01*
X70884750Y-32816500D01*
X70394633Y-33019513D01*
X70019513Y-33394633D01*
X69816500Y-33884750D01*
X67575940Y-33884750D01*
X67575940Y-33401500D01*
X67526657Y-33153735D01*
X67386309Y-32943691D01*
X67176265Y-32803343D01*
X66928500Y-32754060D01*
X65531500Y-32754060D01*
X65283735Y-32803343D01*
X65073691Y-32943691D01*
X64933343Y-33153735D01*
X64884060Y-33401500D01*
X55954043Y-33401500D01*
X55930487Y-33344633D01*
X55555367Y-32969513D01*
X55065250Y-32766500D01*
X54534750Y-32766500D01*
X54044633Y-32969513D01*
X53669513Y-33344633D01*
X53466500Y-33834750D01*
X48233500Y-33834750D01*
X48233500Y-33734750D01*
X48030487Y-33244633D01*
X47655367Y-32869513D01*
X47165250Y-32666500D01*
X46634750Y-32666500D01*
X46144633Y-32869513D01*
X45769513Y-33244633D01*
X45566500Y-33734750D01*
X36815940Y-33734750D01*
X36815940Y-33301500D01*
X36766657Y-33053735D01*
X36626309Y-32843691D01*
X36416265Y-32703343D01*
X36168500Y-32654060D01*
X34771500Y-32654060D01*
X34523735Y-32703343D01*
X34313691Y-32843691D01*
X34173343Y-33053735D01*
X34124060Y-33301500D01*
X34124060Y-34698500D01*
X34173343Y-34946265D01*
X34313691Y-35156309D01*
X34523735Y-35296657D01*
X34710001Y-35333707D01*
X34710000Y-37195998D01*
X34671159Y-37254128D01*
X34423735Y-37303343D01*
X34213691Y-37443691D01*
X34073343Y-37653735D01*
X34024060Y-37901500D01*
X31277000Y-37901500D01*
X31277000Y-31077000D01*
X141273000Y-31077000D01*
X141273000Y-93173000D01*
X141273000Y-93173000D01*
G37*
X141273000Y-93173000D02*
X31277000Y-93173000D01*
X31277000Y-86800000D01*
X56852560Y-86800000D01*
X56852560Y-88500000D01*
X56901843Y-88747765D01*
X57042191Y-88957809D01*
X57252235Y-89098157D01*
X57500000Y-89147440D01*
X59200000Y-89147440D01*
X59447765Y-89098157D01*
X59657809Y-88957809D01*
X59798157Y-88747765D01*
X59847440Y-88500000D01*
X59847440Y-87981500D01*
X71554060Y-87981500D01*
X71554060Y-89378500D01*
X71603343Y-89626265D01*
X71743691Y-89836309D01*
X71953735Y-89976657D01*
X72201500Y-90025940D01*
X73598500Y-90025940D01*
X73846265Y-89976657D01*
X74056309Y-89836309D01*
X74196657Y-89626265D01*
X74245940Y-89378500D01*
X74245940Y-88531500D01*
X109504060Y-88531500D01*
X109504060Y-89928500D01*
X109553343Y-90176265D01*
X109693691Y-90386309D01*
X109903735Y-90526657D01*
X110151500Y-90575940D01*
X111548500Y-90575940D01*
X111796265Y-90526657D01*
X112006309Y-90386309D01*
X112146657Y-90176265D01*
X112195940Y-89928500D01*
X112195940Y-88934750D01*
X113666500Y-88934750D01*
X113666500Y-89465250D01*
X113869513Y-89955367D01*
X114244633Y-90330487D01*
X114734750Y-90533500D01*
X115265250Y-90533500D01*
X115755367Y-90330487D01*
X116130487Y-89955367D01*
X116333500Y-89465250D01*
X116333500Y-88934750D01*
X116130487Y-88444633D01*
X115755367Y-88069513D01*
X115265250Y-87866500D01*
X114734750Y-87866500D01*
X114244633Y-88069513D01*
X113869513Y-88444633D01*
X113666500Y-88934750D01*
X112195940Y-88934750D01*
X112195940Y-88531500D01*
X112146657Y-88283735D01*
X112006309Y-88073691D01*
X111796265Y-87933343D01*
X111548500Y-87884060D01*
X110151500Y-87884060D01*
X109903735Y-87933343D01*
X109693691Y-88073691D01*
X109553343Y-88283735D01*
X109504060Y-88531500D01*
X74245940Y-88531500D01*
X74245940Y-87981500D01*
X74196657Y-87733735D01*
X74056309Y-87523691D01*
X73846265Y-87383343D01*
X73598500Y-87334060D01*
X72201500Y-87334060D01*
X71953735Y-87383343D01*
X71743691Y-87523691D01*
X71603343Y-87733735D01*
X71554060Y-87981500D01*
X59847440Y-87981500D01*
X59847440Y-86800000D01*
X59798157Y-86552235D01*
X59657809Y-86342191D01*
X59447765Y-86201843D01*
X59200000Y-86152560D01*
X57500000Y-86152560D01*
X57252235Y-86201843D01*
X57042191Y-86342191D01*
X56901843Y-86552235D01*
X56852560Y-86800000D01*
X31277000Y-86800000D01*
X31277000Y-85901500D01*
X94874060Y-85901500D01*
X94874060Y-87298500D01*
X94923343Y-87546265D01*
X95063691Y-87756309D01*
X95273735Y-87896657D01*
X95521500Y-87945940D01*
X96918500Y-87945940D01*
X97166265Y-87896657D01*
X97376309Y-87756309D01*
X97516657Y-87546265D01*
X97565940Y-87298500D01*
X97565940Y-86334750D01*
X106316500Y-86334750D01*
X106316500Y-86865250D01*
X106519513Y-87355367D01*
X106894633Y-87730487D01*
X107384750Y-87933500D01*
X107915250Y-87933500D01*
X108405367Y-87730487D01*
X108780487Y-87355367D01*
X108983500Y-86865250D01*
X108983500Y-86334750D01*
X108780487Y-85844633D01*
X108405367Y-85469513D01*
X107915250Y-85266500D01*
X107384750Y-85266500D01*
X106894633Y-85469513D01*
X106519513Y-85844633D01*
X106316500Y-86334750D01*
X97565940Y-86334750D01*
X97565940Y-85901500D01*
X97516657Y-85653735D01*
X97376309Y-85443691D01*
X97166265Y-85303343D01*
X96918500Y-85254060D01*
X95521500Y-85254060D01*
X95273735Y-85303343D01*
X95063691Y-85443691D01*
X94923343Y-85653735D01*
X94874060Y-85901500D01*
X31277000Y-85901500D01*
X31277000Y-83107745D01*
X35421861Y-83107745D01*
X35495995Y-83353864D01*
X36033223Y-83546965D01*
X36603454Y-83519778D01*
X37004005Y-83353864D01*
X37078139Y-83107745D01*
X36250000Y-82279605D01*
X35421861Y-83107745D01*
X31277000Y-83107745D01*
X31277000Y-81883223D01*
X34803035Y-81883223D01*
X34830222Y-82453454D01*
X34996136Y-82854005D01*
X35242255Y-82928139D01*
X36070395Y-82100000D01*
X36429605Y-82100000D01*
X37257745Y-82928139D01*
X37503864Y-82854005D01*
X37696965Y-82316777D01*
X37670637Y-81764561D01*
X39965000Y-81764561D01*
X39965000Y-82335439D01*
X40183466Y-82862862D01*
X40587138Y-83266534D01*
X41114561Y-83485000D01*
X41685439Y-83485000D01*
X42212862Y-83266534D01*
X42616534Y-82862862D01*
X42835000Y-82335439D01*
X42835000Y-81914561D01*
X55315000Y-81914561D01*
X55315000Y-82485439D01*
X55533466Y-83012862D01*
X55937138Y-83416534D01*
X56464561Y-83635000D01*
X57035439Y-83635000D01*
X57562862Y-83416534D01*
X57771651Y-83207745D01*
X61471861Y-83207745D01*
X61545995Y-83453864D01*
X62083223Y-83646965D01*
X62653454Y-83619778D01*
X63054005Y-83453864D01*
X63113078Y-83257745D01*
X66871861Y-83257745D01*
X66945995Y-83503864D01*
X67483223Y-83696965D01*
X68053454Y-83669778D01*
X68454005Y-83503864D01*
X68528139Y-83257745D01*
X67700000Y-82429605D01*
X66871861Y-83257745D01*
X63113078Y-83257745D01*
X63128139Y-83207745D01*
X62300000Y-82379605D01*
X61471861Y-83207745D01*
X57771651Y-83207745D01*
X57966534Y-83012862D01*
X58185000Y-82485439D01*
X58185000Y-81983223D01*
X60853035Y-81983223D01*
X60880222Y-82553454D01*
X61046136Y-82954005D01*
X61292255Y-83028139D01*
X62120395Y-82200000D01*
X62479605Y-82200000D01*
X63307745Y-83028139D01*
X63553864Y-82954005D01*
X63746965Y-82416777D01*
X63728679Y-82033223D01*
X66253035Y-82033223D01*
X66280222Y-82603454D01*
X66446136Y-83004005D01*
X66692255Y-83078139D01*
X67520395Y-82250000D01*
X67879605Y-82250000D01*
X68707745Y-83078139D01*
X68953864Y-83004005D01*
X69146965Y-82466777D01*
X69123021Y-81964561D01*
X76365000Y-81964561D01*
X76365000Y-82535439D01*
X76583466Y-83062862D01*
X76987138Y-83466534D01*
X77514561Y-83685000D01*
X78085439Y-83685000D01*
X78612862Y-83466534D01*
X79016534Y-83062862D01*
X79235000Y-82535439D01*
X79235000Y-81982224D01*
X84503800Y-81982224D01*
X84503800Y-82517776D01*
X84708746Y-83012561D01*
X85087439Y-83391254D01*
X85582224Y-83596200D01*
X86117776Y-83596200D01*
X86612561Y-83391254D01*
X86991254Y-83012561D01*
X87196200Y-82517776D01*
X87196200Y-81982224D01*
X86991254Y-81487439D01*
X86612561Y-81108746D01*
X86117776Y-80903800D01*
X85582224Y-80903800D01*
X85087439Y-81108746D01*
X84708746Y-81487439D01*
X84503800Y-81982224D01*
X79235000Y-81982224D01*
X79235000Y-81964561D01*
X79016534Y-81437138D01*
X78612862Y-81033466D01*
X78085439Y-80815000D01*
X77514561Y-80815000D01*
X76987138Y-81033466D01*
X76583466Y-81437138D01*
X76365000Y-81964561D01*
X69123021Y-81964561D01*
X69119778Y-81896546D01*
X68953864Y-81495995D01*
X68707745Y-81421861D01*
X67879605Y-82250000D01*
X67520395Y-82250000D01*
X66692255Y-81421861D01*
X66446136Y-81495995D01*
X66253035Y-82033223D01*
X63728679Y-82033223D01*
X63719778Y-81846546D01*
X63553864Y-81445995D01*
X63307745Y-81371861D01*
X62479605Y-82200000D01*
X62120395Y-82200000D01*
X61292255Y-81371861D01*
X61046136Y-81445995D01*
X60853035Y-81983223D01*
X58185000Y-81983223D01*
X58185000Y-81914561D01*
X57966534Y-81387138D01*
X57771651Y-81192255D01*
X61471861Y-81192255D01*
X62300000Y-82020395D01*
X63078139Y-81242255D01*
X66871861Y-81242255D01*
X67700000Y-82070395D01*
X68528139Y-81242255D01*
X68454005Y-80996136D01*
X67916777Y-80803035D01*
X67346546Y-80830222D01*
X66945995Y-80996136D01*
X66871861Y-81242255D01*
X63078139Y-81242255D01*
X63128139Y-81192255D01*
X63054005Y-80946136D01*
X62516777Y-80753035D01*
X61946546Y-80780222D01*
X61545995Y-80946136D01*
X61471861Y-81192255D01*
X57771651Y-81192255D01*
X57562862Y-80983466D01*
X57035439Y-80765000D01*
X56464561Y-80765000D01*
X55937138Y-80983466D01*
X55533466Y-81387138D01*
X55315000Y-81914561D01*
X42835000Y-81914561D01*
X42835000Y-81764561D01*
X42616534Y-81237138D01*
X42212862Y-80833466D01*
X41685439Y-80615000D01*
X41114561Y-80615000D01*
X40587138Y-80833466D01*
X40183466Y-81237138D01*
X39965000Y-81764561D01*
X37670637Y-81764561D01*
X37669778Y-81746546D01*
X37503864Y-81345995D01*
X37257745Y-81271861D01*
X36429605Y-82100000D01*
X36070395Y-82100000D01*
X35242255Y-81271861D01*
X34996136Y-81345995D01*
X34803035Y-81883223D01*
X31277000Y-81883223D01*
X31277000Y-81092255D01*
X35421861Y-81092255D01*
X36250000Y-81920395D01*
X37078139Y-81092255D01*
X37004005Y-80846136D01*
X36466777Y-80653035D01*
X35896546Y-80680222D01*
X35495995Y-80846136D01*
X35421861Y-81092255D01*
X31277000Y-81092255D01*
X31277000Y-76814561D01*
X34815000Y-76814561D01*
X34815000Y-77385439D01*
X35033466Y-77912862D01*
X35437138Y-78316534D01*
X35964561Y-78535000D01*
X36535439Y-78535000D01*
X37062862Y-78316534D01*
X37466534Y-77912862D01*
X37685000Y-77385439D01*
X37685000Y-76814561D01*
X37664290Y-76764561D01*
X39965000Y-76764561D01*
X39965000Y-77335439D01*
X40183466Y-77862862D01*
X40587138Y-78266534D01*
X41114561Y-78485000D01*
X41685439Y-78485000D01*
X42212862Y-78266534D01*
X42616534Y-77862862D01*
X42835000Y-77335439D01*
X42835000Y-76914561D01*
X55315000Y-76914561D01*
X55315000Y-77485439D01*
X55533466Y-78012862D01*
X55937138Y-78416534D01*
X56464561Y-78635000D01*
X57035439Y-78635000D01*
X57562862Y-78416534D01*
X57966534Y-78012862D01*
X58185000Y-77485439D01*
X58185000Y-76914561D01*
X60865000Y-76914561D01*
X60865000Y-77485439D01*
X61083466Y-78012862D01*
X61487138Y-78416534D01*
X62014561Y-78635000D01*
X62585439Y-78635000D01*
X63112862Y-78416534D01*
X63516534Y-78012862D01*
X63735000Y-77485439D01*
X63735000Y-76964561D01*
X66265000Y-76964561D01*
X66265000Y-77535439D01*
X66483466Y-78062862D01*
X66887138Y-78466534D01*
X67414561Y-78685000D01*
X67985439Y-78685000D01*
X68512862Y-78466534D01*
X68916534Y-78062862D01*
X69135000Y-77535439D01*
X69135000Y-76984750D01*
X71566500Y-76984750D01*
X71566500Y-77515250D01*
X71769513Y-78005367D01*
X72144633Y-78380487D01*
X72634750Y-78583500D01*
X73165250Y-78583500D01*
X73655367Y-78380487D01*
X73778109Y-78257745D01*
X76971861Y-78257745D01*
X77045995Y-78503864D01*
X77583223Y-78696965D01*
X78153454Y-78669778D01*
X78554005Y-78503864D01*
X78628139Y-78257745D01*
X77800000Y-77429605D01*
X76971861Y-78257745D01*
X73778109Y-78257745D01*
X74030487Y-78005367D01*
X74233500Y-77515250D01*
X74233500Y-77033223D01*
X76353035Y-77033223D01*
X76380222Y-77603454D01*
X76546136Y-78004005D01*
X76792255Y-78078139D01*
X77620395Y-77250000D01*
X77979605Y-77250000D01*
X78807745Y-78078139D01*
X79053864Y-78004005D01*
X79246965Y-77466777D01*
X79219778Y-76896546D01*
X79053864Y-76495995D01*
X78807745Y-76421861D01*
X77979605Y-77250000D01*
X77620395Y-77250000D01*
X76792255Y-76421861D01*
X76546136Y-76495995D01*
X76353035Y-77033223D01*
X74233500Y-77033223D01*
X74233500Y-76984750D01*
X74030487Y-76494633D01*
X73778109Y-76242255D01*
X76971861Y-76242255D01*
X77800000Y-77070395D01*
X78628139Y-76242255D01*
X78554005Y-75996136D01*
X78016777Y-75803035D01*
X77446546Y-75830222D01*
X77045995Y-75996136D01*
X76971861Y-76242255D01*
X73778109Y-76242255D01*
X73655367Y-76119513D01*
X73165250Y-75916500D01*
X72634750Y-75916500D01*
X72144633Y-76119513D01*
X71769513Y-76494633D01*
X71566500Y-76984750D01*
X69135000Y-76984750D01*
X69135000Y-76964561D01*
X68916534Y-76437138D01*
X68512862Y-76033466D01*
X67985439Y-75815000D01*
X67414561Y-75815000D01*
X66887138Y-76033466D01*
X66483466Y-76437138D01*
X66265000Y-76964561D01*
X63735000Y-76964561D01*
X63735000Y-76914561D01*
X63516534Y-76387138D01*
X63112862Y-75983466D01*
X62585439Y-75765000D01*
X62014561Y-75765000D01*
X61487138Y-75983466D01*
X61083466Y-76387138D01*
X60865000Y-76914561D01*
X58185000Y-76914561D01*
X57966534Y-76387138D01*
X57562862Y-75983466D01*
X57035439Y-75765000D01*
X56464561Y-75765000D01*
X55937138Y-75983466D01*
X55533466Y-76387138D01*
X55315000Y-76914561D01*
X42835000Y-76914561D01*
X42835000Y-76764561D01*
X42616534Y-76237138D01*
X42212862Y-75833466D01*
X42005564Y-75747600D01*
X84491360Y-75747600D01*
X84491360Y-77170000D01*
X84540643Y-77417765D01*
X84680991Y-77627809D01*
X84891035Y-77768157D01*
X85138800Y-77817440D01*
X86561200Y-77817440D01*
X86808965Y-77768157D01*
X87019009Y-77627809D01*
X87159357Y-77417765D01*
X87203841Y-77194126D01*
X93915000Y-77194126D01*
X93915000Y-77605874D01*
X94072569Y-77986280D01*
X94363720Y-78277431D01*
X94744126Y-78435000D01*
X95155874Y-78435000D01*
X95536280Y-78277431D01*
X95569455Y-78244256D01*
X99886896Y-82561698D01*
X99865000Y-82614561D01*
X99865000Y-83185439D01*
X100083466Y-83712862D01*
X100487138Y-84116534D01*
X101014561Y-84335000D01*
X101585439Y-84335000D01*
X102112862Y-84116534D01*
X102516534Y-83712862D01*
X102518653Y-83707745D01*
X126271861Y-83707745D01*
X126345995Y-83953864D01*
X126883223Y-84146965D01*
X127453454Y-84119778D01*
X127854005Y-83953864D01*
X127928139Y-83707745D01*
X127100000Y-82879605D01*
X126271861Y-83707745D01*
X102518653Y-83707745D01*
X102735000Y-83185439D01*
X102735000Y-82614561D01*
X102680598Y-82483223D01*
X125653035Y-82483223D01*
X125680222Y-83053454D01*
X125846136Y-83454005D01*
X126092255Y-83528139D01*
X126920395Y-82700000D01*
X127279605Y-82700000D01*
X128107745Y-83528139D01*
X128353864Y-83454005D01*
X128546965Y-82916777D01*
X128519778Y-82346546D01*
X128353864Y-81945995D01*
X128107745Y-81871861D01*
X127279605Y-82700000D01*
X126920395Y-82700000D01*
X126092255Y-81871861D01*
X125846136Y-81945995D01*
X125653035Y-82483223D01*
X102680598Y-82483223D01*
X102516534Y-82087138D01*
X102121651Y-81692255D01*
X126271861Y-81692255D01*
X127100000Y-82520395D01*
X127928139Y-81692255D01*
X127854005Y-81446136D01*
X127316777Y-81253035D01*
X126746546Y-81280222D01*
X126345995Y-81446136D01*
X126271861Y-81692255D01*
X102121651Y-81692255D01*
X102112862Y-81683466D01*
X101585439Y-81465000D01*
X101014561Y-81465000D01*
X100961698Y-81486896D01*
X97089363Y-77614561D01*
X99865000Y-77614561D01*
X99865000Y-78185439D01*
X100083466Y-78712862D01*
X100487138Y-79116534D01*
X101014561Y-79335000D01*
X101585439Y-79335000D01*
X102112862Y-79116534D01*
X102516534Y-78712862D01*
X102735000Y-78185439D01*
X102735000Y-77614561D01*
X102701942Y-77534750D01*
X109516500Y-77534750D01*
X109516500Y-78065250D01*
X109719513Y-78555367D01*
X110094633Y-78930487D01*
X110584750Y-79133500D01*
X111115250Y-79133500D01*
X111605367Y-78930487D01*
X111980487Y-78555367D01*
X112183500Y-78065250D01*
X112183500Y-77534750D01*
X111991616Y-77071500D01*
X113654060Y-77071500D01*
X113654060Y-78468500D01*
X113703343Y-78716265D01*
X113843691Y-78926309D01*
X114053735Y-79066657D01*
X114301500Y-79115940D01*
X115698500Y-79115940D01*
X115946265Y-79066657D01*
X116156309Y-78926309D01*
X116296657Y-78716265D01*
X116345940Y-78468500D01*
X116345940Y-77414561D01*
X125665000Y-77414561D01*
X125665000Y-77985439D01*
X125883466Y-78512862D01*
X126287138Y-78916534D01*
X126814561Y-79135000D01*
X127385439Y-79135000D01*
X127912862Y-78916534D01*
X128316534Y-78512862D01*
X128535000Y-77985439D01*
X128535000Y-77414561D01*
X128316534Y-76887138D01*
X127912862Y-76483466D01*
X127385439Y-76265000D01*
X126814561Y-76265000D01*
X126287138Y-76483466D01*
X125883466Y-76887138D01*
X125665000Y-77414561D01*
X116345940Y-77414561D01*
X116345940Y-77071500D01*
X116296657Y-76823735D01*
X116156309Y-76613691D01*
X115946265Y-76473343D01*
X115698500Y-76424060D01*
X114301500Y-76424060D01*
X114053735Y-76473343D01*
X113843691Y-76613691D01*
X113703343Y-76823735D01*
X113654060Y-77071500D01*
X111991616Y-77071500D01*
X111980487Y-77044633D01*
X111605367Y-76669513D01*
X111115250Y-76466500D01*
X110584750Y-76466500D01*
X110094633Y-76669513D01*
X109719513Y-77044633D01*
X109516500Y-77534750D01*
X102701942Y-77534750D01*
X102516534Y-77087138D01*
X102112862Y-76683466D01*
X101585439Y-76465000D01*
X101014561Y-76465000D01*
X100487138Y-76683466D01*
X100083466Y-77087138D01*
X99865000Y-77614561D01*
X97089363Y-77614561D01*
X96390331Y-76915530D01*
X96347929Y-76852071D01*
X96096537Y-76684096D01*
X95874852Y-76640000D01*
X95874847Y-76640000D01*
X95800000Y-76625112D01*
X95725153Y-76640000D01*
X95653711Y-76640000D01*
X95536280Y-76522569D01*
X95155874Y-76365000D01*
X94744126Y-76365000D01*
X94363720Y-76522569D01*
X94072569Y-76813720D01*
X93915000Y-77194126D01*
X87203841Y-77194126D01*
X87208640Y-77170000D01*
X87208640Y-75747600D01*
X87159357Y-75499835D01*
X87019009Y-75289791D01*
X86808965Y-75149443D01*
X86561200Y-75100160D01*
X85138800Y-75100160D01*
X84891035Y-75149443D01*
X84680991Y-75289791D01*
X84540643Y-75499835D01*
X84491360Y-75747600D01*
X42005564Y-75747600D01*
X41685439Y-75615000D01*
X41114561Y-75615000D01*
X40587138Y-75833466D01*
X40183466Y-76237138D01*
X39965000Y-76764561D01*
X37664290Y-76764561D01*
X37466534Y-76287138D01*
X37062862Y-75883466D01*
X36535439Y-75665000D01*
X35964561Y-75665000D01*
X35437138Y-75883466D01*
X35033466Y-76287138D01*
X34815000Y-76814561D01*
X31277000Y-76814561D01*
X31277000Y-69681500D01*
X40654060Y-69681500D01*
X40654060Y-71078500D01*
X40703343Y-71326265D01*
X40843691Y-71536309D01*
X41053735Y-71676657D01*
X41301500Y-71725940D01*
X42698500Y-71725940D01*
X42946265Y-71676657D01*
X43156309Y-71536309D01*
X43296657Y-71326265D01*
X43345940Y-71078500D01*
X43345940Y-69681500D01*
X43296657Y-69433735D01*
X43156309Y-69223691D01*
X42946265Y-69083343D01*
X42698500Y-69034060D01*
X41301500Y-69034060D01*
X41053735Y-69083343D01*
X40843691Y-69223691D01*
X40703343Y-69433735D01*
X40654060Y-69681500D01*
X31277000Y-69681500D01*
X31277000Y-57436600D01*
X34554160Y-57436600D01*
X34554160Y-59136600D01*
X34603443Y-59384365D01*
X34743791Y-59594409D01*
X34953835Y-59734757D01*
X35201600Y-59784040D01*
X36901600Y-59784040D01*
X37149365Y-59734757D01*
X37359409Y-59594409D01*
X37499757Y-59384365D01*
X37549040Y-59136600D01*
X37549040Y-57436600D01*
X37499757Y-57188835D01*
X37359409Y-56978791D01*
X37149365Y-56838443D01*
X36901600Y-56789160D01*
X35201600Y-56789160D01*
X34953835Y-56838443D01*
X34743791Y-56978791D01*
X34603443Y-57188835D01*
X34554160Y-57436600D01*
X31277000Y-57436600D01*
X31277000Y-53872350D01*
X34616600Y-53872350D01*
X34616600Y-54562909D01*
X34713273Y-54796298D01*
X34891901Y-54974927D01*
X35125290Y-55071600D01*
X35815850Y-55071600D01*
X35974600Y-54912850D01*
X35974600Y-53713600D01*
X36228600Y-53713600D01*
X36228600Y-54912850D01*
X36387350Y-55071600D01*
X37077910Y-55071600D01*
X37311299Y-54974927D01*
X37489927Y-54796298D01*
X37586600Y-54562909D01*
X37586600Y-53872350D01*
X37427850Y-53713600D01*
X36228600Y-53713600D01*
X35974600Y-53713600D01*
X34775350Y-53713600D01*
X34616600Y-53872350D01*
X31277000Y-53872350D01*
X31277000Y-52610291D01*
X34616600Y-52610291D01*
X34616600Y-53300850D01*
X34775350Y-53459600D01*
X35974600Y-53459600D01*
X35974600Y-52260350D01*
X36228600Y-52260350D01*
X36228600Y-53459600D01*
X37427850Y-53459600D01*
X37586600Y-53300850D01*
X37586600Y-52610291D01*
X37489927Y-52376902D01*
X37311299Y-52198273D01*
X37077910Y-52101600D01*
X36387350Y-52101600D01*
X36228600Y-52260350D01*
X35974600Y-52260350D01*
X35815850Y-52101600D01*
X35125290Y-52101600D01*
X34891901Y-52198273D01*
X34713273Y-52376902D01*
X34616600Y-52610291D01*
X31277000Y-52610291D01*
X31277000Y-43386600D01*
X34454160Y-43386600D01*
X34454160Y-45086600D01*
X34503443Y-45334365D01*
X34643791Y-45544409D01*
X34853835Y-45684757D01*
X35101600Y-45734040D01*
X35252804Y-45734040D01*
X35357642Y-45890940D01*
X35403672Y-45959829D01*
X35467128Y-46002229D01*
X36904669Y-47439770D01*
X36901600Y-47439160D01*
X35201600Y-47439160D01*
X34953835Y-47488443D01*
X34743791Y-47628791D01*
X34603443Y-47838835D01*
X34554160Y-48086600D01*
X34554160Y-49786600D01*
X34603443Y-50034365D01*
X34743791Y-50244409D01*
X34953835Y-50384757D01*
X35201600Y-50434040D01*
X36901600Y-50434040D01*
X37149365Y-50384757D01*
X37359409Y-50244409D01*
X37499757Y-50034365D01*
X37549040Y-49786600D01*
X37549040Y-48086600D01*
X37548430Y-48083531D01*
X41240001Y-51775104D01*
X41240000Y-57824146D01*
X40869513Y-58194633D01*
X40666500Y-58684750D01*
X40666500Y-59215250D01*
X40869513Y-59705367D01*
X41244633Y-60080487D01*
X41734750Y-60283500D01*
X42265250Y-60283500D01*
X42755367Y-60080487D01*
X42893354Y-59942500D01*
X48622060Y-59942500D01*
X48622060Y-61593500D01*
X48671343Y-61841265D01*
X48811691Y-62051309D01*
X49021735Y-62191657D01*
X49269500Y-62240940D01*
X49467850Y-62240940D01*
X49267693Y-62323848D01*
X48856848Y-62734693D01*
X48634500Y-63271488D01*
X48634500Y-63852512D01*
X48856848Y-64389307D01*
X49267693Y-64800152D01*
X49335001Y-64828032D01*
X49335000Y-65089968D01*
X49267693Y-65117848D01*
X48856848Y-65528693D01*
X48634500Y-66065488D01*
X48634500Y-66646512D01*
X48856848Y-67183307D01*
X49267693Y-67594152D01*
X49651186Y-67753000D01*
X49267693Y-67911848D01*
X48856848Y-68322693D01*
X48634500Y-68859488D01*
X48634500Y-69440512D01*
X48856848Y-69977307D01*
X49267693Y-70388152D01*
X49804488Y-70610500D01*
X50385512Y-70610500D01*
X50922307Y-70388152D01*
X51333152Y-69977307D01*
X51555500Y-69440512D01*
X51555500Y-68859488D01*
X51333152Y-68322693D01*
X50922307Y-67911848D01*
X50538814Y-67753000D01*
X50922307Y-67594152D01*
X51333152Y-67183307D01*
X51555500Y-66646512D01*
X51555500Y-66065488D01*
X51333152Y-65528693D01*
X50922307Y-65117848D01*
X50855000Y-65089968D01*
X50855000Y-64828032D01*
X50922307Y-64800152D01*
X51333152Y-64389307D01*
X51555500Y-63852512D01*
X51555500Y-63271488D01*
X51333152Y-62734693D01*
X50922307Y-62323848D01*
X50722150Y-62240940D01*
X50920500Y-62240940D01*
X51168265Y-62191657D01*
X51378309Y-62051309D01*
X51518657Y-61841265D01*
X51567940Y-61593500D01*
X51567940Y-60477488D01*
X56889500Y-60477488D01*
X56889500Y-61058512D01*
X57111848Y-61595307D01*
X57522693Y-62006152D01*
X57590000Y-62034032D01*
X57590001Y-62295968D01*
X57522693Y-62323848D01*
X57111848Y-62734693D01*
X56889500Y-63271488D01*
X56889500Y-63852512D01*
X57111848Y-64389307D01*
X57522693Y-64800152D01*
X57906186Y-64959000D01*
X57522693Y-65117848D01*
X57111848Y-65528693D01*
X56889500Y-66065488D01*
X56889500Y-66646512D01*
X57111848Y-67183307D01*
X57522693Y-67594152D01*
X57906186Y-67753000D01*
X57522693Y-67911848D01*
X57111848Y-68322693D01*
X56889500Y-68859488D01*
X56889500Y-69440512D01*
X57111848Y-69977307D01*
X57522693Y-70388152D01*
X58059488Y-70610500D01*
X58640512Y-70610500D01*
X59177307Y-70388152D01*
X59588152Y-69977307D01*
X59810500Y-69440512D01*
X59810500Y-68859488D01*
X59782620Y-68792181D01*
X61534473Y-67040329D01*
X61597929Y-66997929D01*
X61765904Y-66746537D01*
X61810000Y-66524852D01*
X61810000Y-66524848D01*
X61824888Y-66450000D01*
X61810000Y-66375152D01*
X61810000Y-49624848D01*
X61824888Y-49550000D01*
X61810000Y-49475152D01*
X61810000Y-49475148D01*
X61765904Y-49253463D01*
X61765904Y-49253462D01*
X61640329Y-49065527D01*
X61597929Y-49002071D01*
X61534473Y-48959671D01*
X60374802Y-47800000D01*
X62675112Y-47800000D01*
X62690001Y-47874852D01*
X62690000Y-66725148D01*
X62690000Y-67074851D01*
X62690001Y-67074855D01*
X62690000Y-69375153D01*
X62675112Y-69450000D01*
X62690000Y-69524847D01*
X62690000Y-69524851D01*
X62734096Y-69746536D01*
X62902071Y-69997929D01*
X62965530Y-70040331D01*
X65409671Y-72484473D01*
X65452071Y-72547929D01*
X65703463Y-72715904D01*
X65925148Y-72760000D01*
X65925152Y-72760000D01*
X66000000Y-72774888D01*
X66074848Y-72760000D01*
X73775153Y-72760000D01*
X73850000Y-72774888D01*
X73924847Y-72760000D01*
X73924852Y-72760000D01*
X74146537Y-72715904D01*
X74397929Y-72547929D01*
X74440331Y-72484470D01*
X76442181Y-70482621D01*
X76509488Y-70510500D01*
X77090512Y-70510500D01*
X77627307Y-70288152D01*
X78038152Y-69877307D01*
X78260500Y-69340512D01*
X78260500Y-68759488D01*
X78038152Y-68222693D01*
X77627307Y-67811848D01*
X77243814Y-67653000D01*
X77627307Y-67494152D01*
X78038152Y-67083307D01*
X78260500Y-66546512D01*
X78260500Y-65965488D01*
X78038152Y-65428693D01*
X77627307Y-65017848D01*
X77243814Y-64859000D01*
X77627307Y-64700152D01*
X78038152Y-64289307D01*
X78260500Y-63752512D01*
X78260500Y-63171488D01*
X78038152Y-62634693D01*
X77627307Y-62223848D01*
X77560000Y-62195968D01*
X77560000Y-61934032D01*
X77627307Y-61906152D01*
X78038152Y-61495307D01*
X78260500Y-60958512D01*
X78260500Y-60377488D01*
X78038901Y-59842500D01*
X85472060Y-59842500D01*
X85472060Y-61493500D01*
X85521343Y-61741265D01*
X85661691Y-61951309D01*
X85871735Y-62091657D01*
X86119500Y-62140940D01*
X86317850Y-62140940D01*
X86117693Y-62223848D01*
X85706848Y-62634693D01*
X85484500Y-63171488D01*
X85484500Y-63752512D01*
X85706848Y-64289307D01*
X86117693Y-64700152D01*
X86501186Y-64859000D01*
X86117693Y-65017848D01*
X85706848Y-65428693D01*
X85484500Y-65965488D01*
X85484500Y-66546512D01*
X85706848Y-67083307D01*
X86117693Y-67494152D01*
X86501186Y-67653000D01*
X86117693Y-67811848D01*
X85706848Y-68222693D01*
X85484500Y-68759488D01*
X85484500Y-69340512D01*
X85706848Y-69877307D01*
X86117693Y-70288152D01*
X86654488Y-70510500D01*
X87235512Y-70510500D01*
X87772307Y-70288152D01*
X88183152Y-69877307D01*
X88405500Y-69340512D01*
X88405500Y-68759488D01*
X88183152Y-68222693D01*
X87772307Y-67811848D01*
X87388814Y-67653000D01*
X87772307Y-67494152D01*
X88183152Y-67083307D01*
X88405500Y-66546512D01*
X88405500Y-65965488D01*
X88183152Y-65428693D01*
X87772307Y-65017848D01*
X87388814Y-64859000D01*
X87772307Y-64700152D01*
X88183152Y-64289307D01*
X88211032Y-64222000D01*
X92091199Y-64222000D01*
X93767379Y-65898181D01*
X93739500Y-65965488D01*
X93739500Y-66546512D01*
X93961848Y-67083307D01*
X94372693Y-67494152D01*
X94756186Y-67653000D01*
X94372693Y-67811848D01*
X93961848Y-68222693D01*
X93739500Y-68759488D01*
X93739500Y-69340512D01*
X93961848Y-69877307D01*
X94372693Y-70288152D01*
X94909488Y-70510500D01*
X95490512Y-70510500D01*
X96027307Y-70288152D01*
X96438152Y-69877307D01*
X96468164Y-69804852D01*
X96663970Y-69765904D01*
X96915362Y-69597929D01*
X96957764Y-69534470D01*
X100984476Y-65507760D01*
X101047929Y-65465362D01*
X101090327Y-65401909D01*
X101090329Y-65401907D01*
X101215903Y-65213971D01*
X101215904Y-65213970D01*
X101260000Y-64992285D01*
X101260000Y-64992281D01*
X101274888Y-64917434D01*
X101260000Y-64842587D01*
X101260000Y-48414801D01*
X104096802Y-45578000D01*
X104172060Y-45578000D01*
X104172060Y-45643500D01*
X104221343Y-45891265D01*
X104361691Y-46101309D01*
X104571735Y-46241657D01*
X104819500Y-46290940D01*
X105017850Y-46290940D01*
X104817693Y-46373848D01*
X104406848Y-46784693D01*
X104184500Y-47321488D01*
X104184500Y-47902512D01*
X104212379Y-47969819D01*
X101565528Y-50616671D01*
X101502072Y-50659071D01*
X101459672Y-50722527D01*
X101459671Y-50722528D01*
X101334097Y-50910463D01*
X101275112Y-51207000D01*
X101290001Y-51281852D01*
X101290000Y-61625153D01*
X101275112Y-61700000D01*
X101290000Y-61774847D01*
X101290000Y-61774851D01*
X101334096Y-61996536D01*
X101502071Y-62247929D01*
X101565530Y-62290331D01*
X103671673Y-64396476D01*
X103714071Y-64459929D01*
X103777524Y-64502327D01*
X103777526Y-64502329D01*
X103902902Y-64586102D01*
X103965463Y-64627904D01*
X104187148Y-64672000D01*
X104187152Y-64672000D01*
X104261999Y-64686888D01*
X104336846Y-64672000D01*
X104878968Y-64672000D01*
X104906848Y-64739307D01*
X105317693Y-65150152D01*
X105701186Y-65309000D01*
X105317693Y-65467848D01*
X104906848Y-65878693D01*
X104684500Y-66415488D01*
X104684500Y-66996512D01*
X104906848Y-67533307D01*
X105317693Y-67944152D01*
X105701186Y-68103000D01*
X105317693Y-68261848D01*
X104906848Y-68672693D01*
X104684500Y-69209488D01*
X104684500Y-69790512D01*
X104906848Y-70327307D01*
X105317693Y-70738152D01*
X105854488Y-70960500D01*
X106435512Y-70960500D01*
X106972307Y-70738152D01*
X107383152Y-70327307D01*
X107605500Y-69790512D01*
X107605500Y-69209488D01*
X107383152Y-68672693D01*
X106972307Y-68261848D01*
X106588814Y-68103000D01*
X106972307Y-67944152D01*
X107383152Y-67533307D01*
X107605500Y-66996512D01*
X107605500Y-66415488D01*
X107577620Y-66348181D01*
X112939500Y-60986302D01*
X112939500Y-61408512D01*
X113161848Y-61945307D01*
X113572693Y-62356152D01*
X113640000Y-62384032D01*
X113640001Y-62645968D01*
X113572693Y-62673848D01*
X113161848Y-63084693D01*
X112939500Y-63621488D01*
X112939500Y-64202512D01*
X113161848Y-64739307D01*
X113572693Y-65150152D01*
X113956186Y-65309000D01*
X113572693Y-65467848D01*
X113161848Y-65878693D01*
X112939500Y-66415488D01*
X112939500Y-66996512D01*
X112967379Y-67063819D01*
X107091199Y-72940000D01*
X104453711Y-72940000D01*
X104336280Y-72822569D01*
X103955874Y-72665000D01*
X103544126Y-72665000D01*
X103163720Y-72822569D01*
X102872569Y-73113720D01*
X102715000Y-73494126D01*
X102715000Y-73905874D01*
X102872569Y-74286280D01*
X103163720Y-74577431D01*
X103544126Y-74735000D01*
X103955874Y-74735000D01*
X104336280Y-74577431D01*
X104453711Y-74460000D01*
X107331153Y-74460000D01*
X107406000Y-74474888D01*
X107480847Y-74460000D01*
X107480852Y-74460000D01*
X107702537Y-74415904D01*
X107953929Y-74247929D01*
X107996331Y-74184470D01*
X109598577Y-72582224D01*
X128853800Y-72582224D01*
X128853800Y-73117776D01*
X129058746Y-73612561D01*
X129437439Y-73991254D01*
X129932224Y-74196200D01*
X130467776Y-74196200D01*
X130962561Y-73991254D01*
X131341254Y-73612561D01*
X131546200Y-73117776D01*
X131546200Y-72582224D01*
X131341254Y-72087439D01*
X130962561Y-71708746D01*
X130467776Y-71503800D01*
X129932224Y-71503800D01*
X129437439Y-71708746D01*
X129058746Y-72087439D01*
X128853800Y-72582224D01*
X109598577Y-72582224D01*
X112939500Y-69241302D01*
X112939500Y-69790512D01*
X113161848Y-70327307D01*
X113572693Y-70738152D01*
X114109488Y-70960500D01*
X114690512Y-70960500D01*
X115227307Y-70738152D01*
X115638152Y-70327307D01*
X115860500Y-69790512D01*
X115860500Y-69209488D01*
X115827975Y-69130966D01*
X117496861Y-67432278D01*
X117549818Y-67396894D01*
X117657708Y-67335392D01*
X117674777Y-67313399D01*
X117697929Y-67297929D01*
X117766939Y-67194648D01*
X117796289Y-67156831D01*
X117808423Y-67132563D01*
X117865904Y-67046537D01*
X117873358Y-67009061D01*
X117918500Y-66940191D01*
X117941024Y-66821473D01*
X117972939Y-66704932D01*
X117969025Y-66673886D01*
X117974858Y-66643143D01*
X117950236Y-66524840D01*
X117935123Y-66404960D01*
X117919628Y-66377777D01*
X117913347Y-66347600D01*
X128841360Y-66347600D01*
X128841360Y-67770000D01*
X128890643Y-68017765D01*
X129030991Y-68227809D01*
X129241035Y-68368157D01*
X129488800Y-68417440D01*
X130911200Y-68417440D01*
X131158965Y-68368157D01*
X131369009Y-68227809D01*
X131509357Y-68017765D01*
X131558640Y-67770000D01*
X131558640Y-66347600D01*
X131509357Y-66099835D01*
X131369009Y-65889791D01*
X131158965Y-65749443D01*
X130911200Y-65700160D01*
X129488800Y-65700160D01*
X129241035Y-65749443D01*
X129030991Y-65889791D01*
X128890643Y-66099835D01*
X128841360Y-66347600D01*
X117913347Y-66347600D01*
X117913251Y-66347139D01*
X117910000Y-66342366D01*
X117910000Y-61000000D01*
X134502560Y-61000000D01*
X134502560Y-62700000D01*
X134551843Y-62947765D01*
X134692191Y-63157809D01*
X134902235Y-63298157D01*
X135150000Y-63347440D01*
X136850000Y-63347440D01*
X137097765Y-63298157D01*
X137307809Y-63157809D01*
X137448157Y-62947765D01*
X137497440Y-62700000D01*
X137497440Y-61000000D01*
X137448157Y-60752235D01*
X137307809Y-60542191D01*
X137097765Y-60401843D01*
X136850000Y-60352560D01*
X135150000Y-60352560D01*
X134902235Y-60401843D01*
X134692191Y-60542191D01*
X134551843Y-60752235D01*
X134502560Y-61000000D01*
X117910000Y-61000000D01*
X117910000Y-56734750D01*
X118766500Y-56734750D01*
X118766500Y-57265250D01*
X118969513Y-57755367D01*
X119344633Y-58130487D01*
X119834750Y-58333500D01*
X120365250Y-58333500D01*
X120855367Y-58130487D01*
X121230487Y-57755367D01*
X121433500Y-57265250D01*
X121433500Y-56734750D01*
X121254043Y-56301500D01*
X130184060Y-56301500D01*
X130184060Y-57698500D01*
X130233343Y-57946265D01*
X130373691Y-58156309D01*
X130583735Y-58296657D01*
X130831500Y-58345940D01*
X132228500Y-58345940D01*
X132476265Y-58296657D01*
X132686309Y-58156309D01*
X132826657Y-57946265D01*
X132875940Y-57698500D01*
X132875940Y-56301500D01*
X132826657Y-56053735D01*
X132686309Y-55843691D01*
X132476265Y-55703343D01*
X132228500Y-55654060D01*
X130831500Y-55654060D01*
X130583735Y-55703343D01*
X130373691Y-55843691D01*
X130233343Y-56053735D01*
X130184060Y-56301500D01*
X121254043Y-56301500D01*
X121230487Y-56244633D01*
X120855367Y-55869513D01*
X120365250Y-55666500D01*
X119834750Y-55666500D01*
X119344633Y-55869513D01*
X118969513Y-56244633D01*
X118766500Y-56734750D01*
X117910000Y-56734750D01*
X117910000Y-53424846D01*
X117924888Y-53349999D01*
X117910000Y-53275152D01*
X117910000Y-53275148D01*
X117865904Y-53053463D01*
X117769703Y-52909488D01*
X117740329Y-52865526D01*
X117740327Y-52865524D01*
X117697929Y-52802071D01*
X117634476Y-52759673D01*
X116506302Y-51631500D01*
X120204060Y-51631500D01*
X120204060Y-53028500D01*
X120253343Y-53276265D01*
X120393691Y-53486309D01*
X120603735Y-53626657D01*
X120851500Y-53675940D01*
X122248500Y-53675940D01*
X122496265Y-53626657D01*
X122706309Y-53486309D01*
X122846657Y-53276265D01*
X122895940Y-53028500D01*
X122895940Y-51681500D01*
X124404060Y-51681500D01*
X124404060Y-53078500D01*
X124453343Y-53326265D01*
X124593691Y-53536309D01*
X124803735Y-53676657D01*
X125051500Y-53725940D01*
X126448500Y-53725940D01*
X126696265Y-53676657D01*
X126906309Y-53536309D01*
X127041362Y-53334188D01*
X129545417Y-53334188D01*
X129607071Y-53569800D01*
X130107480Y-53745927D01*
X130637199Y-53717148D01*
X130992929Y-53569800D01*
X131054583Y-53334188D01*
X130300000Y-52579605D01*
X129545417Y-53334188D01*
X127041362Y-53334188D01*
X127046657Y-53326265D01*
X127095940Y-53078500D01*
X127095940Y-52207480D01*
X128954073Y-52207480D01*
X128982852Y-52737199D01*
X129130200Y-53092929D01*
X129365812Y-53154583D01*
X130120395Y-52400000D01*
X130479605Y-52400000D01*
X131234188Y-53154583D01*
X131469800Y-53092929D01*
X131645927Y-52592520D01*
X131617148Y-52062801D01*
X131469800Y-51707071D01*
X131234188Y-51645417D01*
X130479605Y-52400000D01*
X130120395Y-52400000D01*
X129365812Y-51645417D01*
X129130200Y-51707071D01*
X128954073Y-52207480D01*
X127095940Y-52207480D01*
X127095940Y-51681500D01*
X127053038Y-51465812D01*
X129545417Y-51465812D01*
X130300000Y-52220395D01*
X131054583Y-51465812D01*
X130992929Y-51230200D01*
X130492520Y-51054073D01*
X129962801Y-51082852D01*
X129607071Y-51230200D01*
X129545417Y-51465812D01*
X127053038Y-51465812D01*
X127046657Y-51433735D01*
X126906309Y-51223691D01*
X126696265Y-51083343D01*
X126448500Y-51034060D01*
X125051500Y-51034060D01*
X124803735Y-51083343D01*
X124593691Y-51223691D01*
X124453343Y-51433735D01*
X124404060Y-51681500D01*
X122895940Y-51681500D01*
X122895940Y-51631500D01*
X122846657Y-51383735D01*
X122706309Y-51173691D01*
X122496265Y-51033343D01*
X122248500Y-50984060D01*
X120851500Y-50984060D01*
X120603735Y-51033343D01*
X120393691Y-51173691D01*
X120253343Y-51383735D01*
X120204060Y-51631500D01*
X116506302Y-51631500D01*
X116193331Y-51318530D01*
X116150929Y-51255071D01*
X115899537Y-51087096D01*
X115677852Y-51043000D01*
X115677847Y-51043000D01*
X115603000Y-51028112D01*
X115528153Y-51043000D01*
X115216980Y-51043000D01*
X115360500Y-50696512D01*
X115360500Y-50115488D01*
X115138152Y-49578693D01*
X114727307Y-49167848D01*
X114343814Y-49009000D01*
X114727307Y-48850152D01*
X115138152Y-48439307D01*
X115360500Y-47902512D01*
X115360500Y-47321488D01*
X115138152Y-46784693D01*
X114727307Y-46373848D01*
X114660000Y-46345968D01*
X114660000Y-46084032D01*
X114727307Y-46056152D01*
X115138152Y-45645307D01*
X115360500Y-45108512D01*
X115360500Y-44527488D01*
X115138152Y-43990693D01*
X114727307Y-43579848D01*
X114190512Y-43357500D01*
X113609488Y-43357500D01*
X113072693Y-43579848D01*
X112661848Y-43990693D01*
X112633968Y-44058000D01*
X107117940Y-44058000D01*
X107117940Y-43992500D01*
X107068657Y-43744735D01*
X106928309Y-43534691D01*
X106718265Y-43394343D01*
X106470500Y-43345060D01*
X104819500Y-43345060D01*
X104571735Y-43394343D01*
X104361691Y-43534691D01*
X104221343Y-43744735D01*
X104172060Y-43992500D01*
X104172060Y-44058000D01*
X103856847Y-44058000D01*
X103782000Y-44043112D01*
X103707153Y-44058000D01*
X103707148Y-44058000D01*
X103485463Y-44102096D01*
X103234071Y-44270071D01*
X103191671Y-44333527D01*
X100015528Y-47509671D01*
X99952072Y-47552071D01*
X99909672Y-47615527D01*
X99909671Y-47615528D01*
X99784097Y-47803463D01*
X99725112Y-48100000D01*
X99740001Y-48174852D01*
X99740000Y-64602630D01*
X96279045Y-68063586D01*
X96027307Y-67811848D01*
X95643814Y-67653000D01*
X96027307Y-67494152D01*
X96438152Y-67083307D01*
X96660500Y-66546512D01*
X96660500Y-65965488D01*
X96438152Y-65428693D01*
X96027307Y-65017848D01*
X95643814Y-64859000D01*
X96027307Y-64700152D01*
X96438152Y-64289307D01*
X96660500Y-63752512D01*
X96660500Y-63171488D01*
X96438152Y-62634693D01*
X96027307Y-62223848D01*
X95960000Y-62195968D01*
X95960000Y-61934032D01*
X96027307Y-61906152D01*
X96438152Y-61495307D01*
X96660500Y-60958512D01*
X96660500Y-60377488D01*
X96438152Y-59840693D01*
X96027307Y-59429848D01*
X95490512Y-59207500D01*
X94909488Y-59207500D01*
X94372693Y-59429848D01*
X93961848Y-59840693D01*
X93739500Y-60377488D01*
X93739500Y-60958512D01*
X93961848Y-61495307D01*
X94372693Y-61906152D01*
X94440000Y-61934032D01*
X94440001Y-62195968D01*
X94372693Y-62223848D01*
X93961848Y-62634693D01*
X93739500Y-63171488D01*
X93739500Y-63720699D01*
X92996331Y-62977530D01*
X92953929Y-62914071D01*
X92702537Y-62746096D01*
X92480852Y-62702000D01*
X92480847Y-62702000D01*
X92406000Y-62687112D01*
X92331153Y-62702000D01*
X88211032Y-62702000D01*
X88183152Y-62634693D01*
X87772307Y-62223848D01*
X87572150Y-62140940D01*
X87770500Y-62140940D01*
X88018265Y-62091657D01*
X88228309Y-61951309D01*
X88368657Y-61741265D01*
X88417940Y-61493500D01*
X88417940Y-61366797D01*
X88643729Y-61215929D01*
X88811704Y-60964537D01*
X88870689Y-60668000D01*
X88811704Y-60371463D01*
X88643729Y-60120071D01*
X88417940Y-59969203D01*
X88417940Y-59842500D01*
X88368657Y-59594735D01*
X88228309Y-59384691D01*
X88018265Y-59244343D01*
X87770500Y-59195060D01*
X86119500Y-59195060D01*
X85871735Y-59244343D01*
X85661691Y-59384691D01*
X85521343Y-59594735D01*
X85472060Y-59842500D01*
X78038901Y-59842500D01*
X78038152Y-59840693D01*
X77627307Y-59429848D01*
X77090512Y-59207500D01*
X76509488Y-59207500D01*
X75972693Y-59429848D01*
X75561848Y-59840693D01*
X75339500Y-60377488D01*
X75339500Y-60958512D01*
X75561848Y-61495307D01*
X75972693Y-61906152D01*
X76040000Y-61934032D01*
X76040001Y-62195968D01*
X75972693Y-62223848D01*
X75561848Y-62634693D01*
X75339500Y-63171488D01*
X75339500Y-63752512D01*
X75561848Y-64289307D01*
X75972693Y-64700152D01*
X76356186Y-64859000D01*
X75972693Y-65017848D01*
X75561848Y-65428693D01*
X75339500Y-65965488D01*
X75339500Y-66546512D01*
X75561848Y-67083307D01*
X75972693Y-67494152D01*
X76356186Y-67653000D01*
X75972693Y-67811848D01*
X75561848Y-68222693D01*
X75339500Y-68759488D01*
X75339500Y-69340512D01*
X75367379Y-69407819D01*
X73535199Y-71240000D01*
X66314802Y-71240000D01*
X64210000Y-69135199D01*
X64210000Y-59842500D01*
X67072060Y-59842500D01*
X67072060Y-61493500D01*
X67121343Y-61741265D01*
X67261691Y-61951309D01*
X67471735Y-62091657D01*
X67719500Y-62140940D01*
X67917850Y-62140940D01*
X67717693Y-62223848D01*
X67306848Y-62634693D01*
X67084500Y-63171488D01*
X67084500Y-63752512D01*
X67306848Y-64289307D01*
X67717693Y-64700152D01*
X68101186Y-64859000D01*
X67717693Y-65017848D01*
X67306848Y-65428693D01*
X67084500Y-65965488D01*
X67084500Y-66546512D01*
X67306848Y-67083307D01*
X67717693Y-67494152D01*
X68101186Y-67653000D01*
X67717693Y-67811848D01*
X67306848Y-68222693D01*
X67084500Y-68759488D01*
X67084500Y-69340512D01*
X67306848Y-69877307D01*
X67717693Y-70288152D01*
X68254488Y-70510500D01*
X68835512Y-70510500D01*
X69372307Y-70288152D01*
X69783152Y-69877307D01*
X70005500Y-69340512D01*
X70005500Y-68759488D01*
X69783152Y-68222693D01*
X69372307Y-67811848D01*
X68988814Y-67653000D01*
X69372307Y-67494152D01*
X69783152Y-67083307D01*
X69811032Y-67016000D01*
X71169153Y-67016000D01*
X71244000Y-67030888D01*
X71318847Y-67016000D01*
X71318852Y-67016000D01*
X71540537Y-66971904D01*
X71791929Y-66803929D01*
X71834331Y-66740470D01*
X73634473Y-64940329D01*
X73697929Y-64897929D01*
X73865904Y-64646537D01*
X73910000Y-64424852D01*
X73910000Y-64424848D01*
X73924888Y-64350001D01*
X73910000Y-64275154D01*
X73910000Y-60864801D01*
X84284476Y-50490327D01*
X84347929Y-50447929D01*
X84390327Y-50384476D01*
X84390329Y-50384474D01*
X84483917Y-50244409D01*
X84515904Y-50196537D01*
X84560000Y-49974852D01*
X84560000Y-49974848D01*
X84574888Y-49900001D01*
X84560000Y-49825154D01*
X84560000Y-46364801D01*
X85348480Y-45576322D01*
X85371343Y-45691265D01*
X85511691Y-45901309D01*
X85721735Y-46041657D01*
X85969500Y-46090940D01*
X86167850Y-46090940D01*
X85967693Y-46173848D01*
X85556848Y-46584693D01*
X85334500Y-47121488D01*
X85334500Y-47702512D01*
X85556848Y-48239307D01*
X85967693Y-48650152D01*
X86351186Y-48809000D01*
X85967693Y-48967848D01*
X85556848Y-49378693D01*
X85334500Y-49915488D01*
X85334500Y-50496512D01*
X85556848Y-51033307D01*
X85967693Y-51444152D01*
X86351186Y-51603000D01*
X85967693Y-51761848D01*
X85556848Y-52172693D01*
X85334500Y-52709488D01*
X85334500Y-53290512D01*
X85556848Y-53827307D01*
X85967693Y-54238152D01*
X86504488Y-54460500D01*
X87085512Y-54460500D01*
X87622307Y-54238152D01*
X88033152Y-53827307D01*
X88255500Y-53290512D01*
X88255500Y-52709488D01*
X88033152Y-52172693D01*
X87622307Y-51761848D01*
X87238814Y-51603000D01*
X87622307Y-51444152D01*
X88033152Y-51033307D01*
X88255500Y-50496512D01*
X88255500Y-49915488D01*
X88033152Y-49378693D01*
X87622307Y-48967848D01*
X87238814Y-48809000D01*
X87622307Y-48650152D01*
X88033152Y-48239307D01*
X88255500Y-47702512D01*
X88255500Y-47121488D01*
X88033152Y-46584693D01*
X87622307Y-46173848D01*
X87422150Y-46090940D01*
X87620500Y-46090940D01*
X87868265Y-46041657D01*
X88078309Y-45901309D01*
X88218657Y-45691265D01*
X88267940Y-45443500D01*
X88267940Y-44498741D01*
X93617379Y-49848181D01*
X93589500Y-49915488D01*
X93589500Y-50496512D01*
X93811848Y-51033307D01*
X94222693Y-51444152D01*
X94606186Y-51603000D01*
X94222693Y-51761848D01*
X93811848Y-52172693D01*
X93589500Y-52709488D01*
X93589500Y-53290512D01*
X93811848Y-53827307D01*
X94222693Y-54238152D01*
X94759488Y-54460500D01*
X95340512Y-54460500D01*
X95877307Y-54238152D01*
X96288152Y-53827307D01*
X96510500Y-53290512D01*
X96510500Y-52709488D01*
X96288152Y-52172693D01*
X95877307Y-51761848D01*
X95493814Y-51603000D01*
X95877307Y-51444152D01*
X96288152Y-51033307D01*
X96510500Y-50496512D01*
X96510500Y-49915488D01*
X96288152Y-49378693D01*
X95877307Y-48967848D01*
X95493814Y-48809000D01*
X95877307Y-48650152D01*
X96288152Y-48239307D01*
X96510500Y-47702512D01*
X96510500Y-47121488D01*
X96288152Y-46584693D01*
X95877307Y-46173848D01*
X95810000Y-46145968D01*
X95810000Y-45884032D01*
X95877307Y-45856152D01*
X96288152Y-45445307D01*
X96510500Y-44908512D01*
X96510500Y-44327488D01*
X96288152Y-43790693D01*
X95877307Y-43379848D01*
X95340512Y-43157500D01*
X94759488Y-43157500D01*
X94222693Y-43379848D01*
X93811848Y-43790693D01*
X93589500Y-44327488D01*
X93589500Y-44908512D01*
X93811848Y-45445307D01*
X94222693Y-45856152D01*
X94290000Y-45884032D01*
X94290001Y-46145968D01*
X94222693Y-46173848D01*
X93811848Y-46584693D01*
X93589500Y-47121488D01*
X93589500Y-47670698D01*
X88510000Y-42591199D01*
X88510000Y-40634750D01*
X120216500Y-40634750D01*
X120216500Y-41165250D01*
X120419513Y-41655367D01*
X120794633Y-42030487D01*
X121284750Y-42233500D01*
X121815250Y-42233500D01*
X122305367Y-42030487D01*
X122680487Y-41655367D01*
X122883500Y-41165250D01*
X122883500Y-40684750D01*
X124416500Y-40684750D01*
X124416500Y-41215250D01*
X124619513Y-41705367D01*
X124994633Y-42080487D01*
X125484750Y-42283500D01*
X126015250Y-42283500D01*
X126505367Y-42080487D01*
X126880487Y-41705367D01*
X127083500Y-41215250D01*
X127083500Y-40684750D01*
X126912327Y-40271500D01*
X128954060Y-40271500D01*
X128954060Y-41668500D01*
X129003343Y-41916265D01*
X129143691Y-42126309D01*
X129353735Y-42266657D01*
X129601500Y-42315940D01*
X130998500Y-42315940D01*
X131246265Y-42266657D01*
X131456309Y-42126309D01*
X131596657Y-41916265D01*
X131645940Y-41668500D01*
X131645940Y-40271500D01*
X131596657Y-40023735D01*
X131456309Y-39813691D01*
X131246265Y-39673343D01*
X130998500Y-39624060D01*
X129601500Y-39624060D01*
X129353735Y-39673343D01*
X129143691Y-39813691D01*
X129003343Y-40023735D01*
X128954060Y-40271500D01*
X126912327Y-40271500D01*
X126880487Y-40194633D01*
X126505367Y-39819513D01*
X126015250Y-39616500D01*
X125484750Y-39616500D01*
X124994633Y-39819513D01*
X124619513Y-40194633D01*
X124416500Y-40684750D01*
X122883500Y-40684750D01*
X122883500Y-40634750D01*
X122680487Y-40144633D01*
X122305367Y-39769513D01*
X121815250Y-39566500D01*
X121284750Y-39566500D01*
X120794633Y-39769513D01*
X120419513Y-40144633D01*
X120216500Y-40634750D01*
X88510000Y-40634750D01*
X88510000Y-35325854D01*
X88880487Y-34955367D01*
X89083500Y-34465250D01*
X89083500Y-33934750D01*
X88880487Y-33444633D01*
X88505367Y-33069513D01*
X88015250Y-32866500D01*
X87484750Y-32866500D01*
X86994633Y-33069513D01*
X86619513Y-33444633D01*
X86416500Y-33934750D01*
X86416500Y-34465250D01*
X86619513Y-34955367D01*
X86990001Y-35325855D01*
X86990000Y-42831153D01*
X86975112Y-42906000D01*
X86990000Y-42980847D01*
X86990000Y-42980851D01*
X87022663Y-43145060D01*
X85969500Y-43145060D01*
X85721735Y-43194343D01*
X85511691Y-43334691D01*
X85371343Y-43544735D01*
X85322060Y-43792500D01*
X85322060Y-43858000D01*
X85306848Y-43858000D01*
X85232000Y-43843112D01*
X85157152Y-43858000D01*
X85157148Y-43858000D01*
X84983605Y-43892520D01*
X84935462Y-43902096D01*
X84802868Y-43990693D01*
X84684071Y-44070071D01*
X84641671Y-44133527D01*
X83315528Y-45459671D01*
X83252072Y-45502071D01*
X83209672Y-45565527D01*
X83209671Y-45565528D01*
X83084097Y-45753463D01*
X83025112Y-46050000D01*
X83040001Y-46124852D01*
X83040000Y-49585197D01*
X72665528Y-59959671D01*
X72602072Y-60002071D01*
X72559672Y-60065527D01*
X72559671Y-60065528D01*
X72434097Y-60253463D01*
X72375112Y-60550000D01*
X72390001Y-60624852D01*
X72390000Y-64035198D01*
X70929199Y-65496000D01*
X69811032Y-65496000D01*
X69783152Y-65428693D01*
X69372307Y-65017848D01*
X68988814Y-64859000D01*
X69372307Y-64700152D01*
X69783152Y-64289307D01*
X70005500Y-63752512D01*
X70005500Y-63171488D01*
X69783152Y-62634693D01*
X69372307Y-62223848D01*
X69172150Y-62140940D01*
X69370500Y-62140940D01*
X69618265Y-62091657D01*
X69828309Y-61951309D01*
X69968657Y-61741265D01*
X70017940Y-61493500D01*
X70017940Y-59842500D01*
X69968657Y-59594735D01*
X69828309Y-59384691D01*
X69618265Y-59244343D01*
X69370500Y-59195060D01*
X67719500Y-59195060D01*
X67471735Y-59244343D01*
X67261691Y-59384691D01*
X67121343Y-59594735D01*
X67072060Y-59842500D01*
X64210000Y-59842500D01*
X64210000Y-48114801D01*
X67073593Y-45251209D01*
X67121343Y-45491265D01*
X67261691Y-45701309D01*
X67471735Y-45841657D01*
X67719500Y-45890940D01*
X67917850Y-45890940D01*
X67717693Y-45973848D01*
X67306848Y-46384693D01*
X67084500Y-46921488D01*
X67084500Y-47502512D01*
X67306848Y-48039307D01*
X67717693Y-48450152D01*
X68101186Y-48609000D01*
X67717693Y-48767848D01*
X67306848Y-49178693D01*
X67084500Y-49715488D01*
X67084500Y-50296512D01*
X67306848Y-50833307D01*
X67717693Y-51244152D01*
X68101186Y-51403000D01*
X67717693Y-51561848D01*
X67306848Y-51972693D01*
X67084500Y-52509488D01*
X67084500Y-53090512D01*
X67306848Y-53627307D01*
X67717693Y-54038152D01*
X68254488Y-54260500D01*
X68835512Y-54260500D01*
X69372307Y-54038152D01*
X69783152Y-53627307D01*
X70005500Y-53090512D01*
X70005500Y-52509488D01*
X69783152Y-51972693D01*
X69372307Y-51561848D01*
X68988814Y-51403000D01*
X69372307Y-51244152D01*
X69783152Y-50833307D01*
X70005500Y-50296512D01*
X70005500Y-49715488D01*
X69783152Y-49178693D01*
X69372307Y-48767848D01*
X68988814Y-48609000D01*
X69372307Y-48450152D01*
X69783152Y-48039307D01*
X70005500Y-47502512D01*
X70005500Y-46921488D01*
X69783152Y-46384693D01*
X69372307Y-45973848D01*
X69172150Y-45890940D01*
X69370500Y-45890940D01*
X69618265Y-45841657D01*
X69828309Y-45701309D01*
X69968657Y-45491265D01*
X70017940Y-45243500D01*
X70017940Y-44127488D01*
X75339500Y-44127488D01*
X75339500Y-44708512D01*
X75561848Y-45245307D01*
X75972693Y-45656152D01*
X76040000Y-45684032D01*
X76040001Y-45945968D01*
X75972693Y-45973848D01*
X75561848Y-46384693D01*
X75339500Y-46921488D01*
X75339500Y-47502512D01*
X75561848Y-48039307D01*
X75972693Y-48450152D01*
X76356186Y-48609000D01*
X75972693Y-48767848D01*
X75561848Y-49178693D01*
X75339500Y-49715488D01*
X75339500Y-50296512D01*
X75561848Y-50833307D01*
X75972693Y-51244152D01*
X76356186Y-51403000D01*
X75972693Y-51561848D01*
X75561848Y-51972693D01*
X75339500Y-52509488D01*
X75339500Y-53090512D01*
X75561848Y-53627307D01*
X75972693Y-54038152D01*
X76509488Y-54260500D01*
X77090512Y-54260500D01*
X77627307Y-54038152D01*
X78038152Y-53627307D01*
X78260500Y-53090512D01*
X78260500Y-52509488D01*
X78038152Y-51972693D01*
X77627307Y-51561848D01*
X77243814Y-51403000D01*
X77627307Y-51244152D01*
X78038152Y-50833307D01*
X78068164Y-50760852D01*
X78263970Y-50721904D01*
X78515362Y-50553929D01*
X78557764Y-50490470D01*
X82734476Y-46313760D01*
X82797929Y-46271362D01*
X82840327Y-46207909D01*
X82840329Y-46207907D01*
X82941728Y-46056152D01*
X82965904Y-46019970D01*
X83010000Y-45798285D01*
X83010000Y-45798281D01*
X83024888Y-45723434D01*
X83010000Y-45648587D01*
X83010000Y-39414801D01*
X85884473Y-36540329D01*
X85947929Y-36497929D01*
X85990924Y-36433582D01*
X86115904Y-36246538D01*
X86125480Y-36198395D01*
X86160000Y-36024852D01*
X86160000Y-36024848D01*
X86174888Y-35950000D01*
X86160000Y-35875152D01*
X86160000Y-33864801D01*
X87164802Y-32860000D01*
X95741399Y-32860000D01*
X97565873Y-34684476D01*
X97608271Y-34747929D01*
X97671724Y-34790327D01*
X97671726Y-34790329D01*
X97758786Y-34848500D01*
X97834128Y-34898842D01*
X97883343Y-35146265D01*
X98023691Y-35356309D01*
X98233735Y-35496657D01*
X98481500Y-35545940D01*
X99878500Y-35545940D01*
X100126265Y-35496657D01*
X100336309Y-35356309D01*
X100476657Y-35146265D01*
X100525940Y-34898500D01*
X100525940Y-34034750D01*
X102766500Y-34034750D01*
X102766500Y-34565250D01*
X102969513Y-35055367D01*
X103344633Y-35430487D01*
X103834750Y-35633500D01*
X104365250Y-35633500D01*
X104855367Y-35430487D01*
X105230487Y-35055367D01*
X105425008Y-34585750D01*
X114196500Y-34585750D01*
X114196500Y-35124810D01*
X114293173Y-35358199D01*
X114471802Y-35536827D01*
X114705191Y-35633500D01*
X115244250Y-35633500D01*
X115403000Y-35474750D01*
X115403000Y-34427000D01*
X115657000Y-34427000D01*
X115657000Y-35474750D01*
X115815750Y-35633500D01*
X116354809Y-35633500D01*
X116588198Y-35536827D01*
X116766827Y-35358199D01*
X116863500Y-35124810D01*
X116863500Y-34585750D01*
X116704750Y-34427000D01*
X115657000Y-34427000D01*
X115403000Y-34427000D01*
X114355250Y-34427000D01*
X114196500Y-34585750D01*
X105425008Y-34585750D01*
X105433500Y-34565250D01*
X105433500Y-34034750D01*
X105230487Y-33544633D01*
X105161044Y-33475190D01*
X114196500Y-33475190D01*
X114196500Y-34014250D01*
X114355250Y-34173000D01*
X115403000Y-34173000D01*
X115403000Y-33125250D01*
X115657000Y-33125250D01*
X115657000Y-34173000D01*
X116704750Y-34173000D01*
X116863500Y-34014250D01*
X116863500Y-33475190D01*
X116766827Y-33241801D01*
X116588198Y-33063173D01*
X116354809Y-32966500D01*
X115815750Y-32966500D01*
X115657000Y-33125250D01*
X115403000Y-33125250D01*
X115244250Y-32966500D01*
X114705191Y-32966500D01*
X114471802Y-33063173D01*
X114293173Y-33241801D01*
X114196500Y-33475190D01*
X105161044Y-33475190D01*
X104855367Y-33169513D01*
X104365250Y-32966500D01*
X103834750Y-32966500D01*
X103344633Y-33169513D01*
X102969513Y-33544633D01*
X102766500Y-34034750D01*
X100525940Y-34034750D01*
X100525940Y-33501500D01*
X100476657Y-33253735D01*
X100336309Y-33043691D01*
X100126265Y-32903343D01*
X99878500Y-32854060D01*
X98481500Y-32854060D01*
X98233735Y-32903343D01*
X98054265Y-33023262D01*
X96646531Y-31615530D01*
X96604129Y-31552071D01*
X96352737Y-31384096D01*
X96131052Y-31340000D01*
X96131047Y-31340000D01*
X96056200Y-31325112D01*
X95981353Y-31340000D01*
X86924848Y-31340000D01*
X86850000Y-31325112D01*
X86775152Y-31340000D01*
X86775148Y-31340000D01*
X86601605Y-31374520D01*
X86553462Y-31384096D01*
X86366418Y-31509076D01*
X86302071Y-31552071D01*
X86259671Y-31615527D01*
X84915528Y-32959671D01*
X84852072Y-33002071D01*
X84809672Y-33065527D01*
X84809671Y-33065528D01*
X84684097Y-33253463D01*
X84625112Y-33550000D01*
X84640001Y-33624852D01*
X84640000Y-35635198D01*
X81765528Y-38509671D01*
X81702072Y-38552071D01*
X81659672Y-38615527D01*
X81659671Y-38615528D01*
X81534097Y-38803463D01*
X81475112Y-39100000D01*
X81490001Y-39174852D01*
X81490000Y-45408630D01*
X77879045Y-49019586D01*
X77627307Y-48767848D01*
X77243814Y-48609000D01*
X77627307Y-48450152D01*
X78038152Y-48039307D01*
X78260500Y-47502512D01*
X78260500Y-46921488D01*
X78038152Y-46384693D01*
X77627307Y-45973848D01*
X77560000Y-45945968D01*
X77560000Y-45684032D01*
X77627307Y-45656152D01*
X78038152Y-45245307D01*
X78260500Y-44708512D01*
X78260500Y-44127488D01*
X78038152Y-43590693D01*
X77627307Y-43179848D01*
X77090512Y-42957500D01*
X76509488Y-42957500D01*
X75972693Y-43179848D01*
X75561848Y-43590693D01*
X75339500Y-44127488D01*
X70017940Y-44127488D01*
X70017940Y-43592500D01*
X69968657Y-43344735D01*
X69828309Y-43134691D01*
X69618265Y-42994343D01*
X69370500Y-42945060D01*
X67719500Y-42945060D01*
X67471735Y-42994343D01*
X67261691Y-43134691D01*
X67121343Y-43344735D01*
X67072060Y-43592500D01*
X67072060Y-43658000D01*
X66906846Y-43658000D01*
X66831999Y-43643112D01*
X66757152Y-43658000D01*
X66757148Y-43658000D01*
X66535463Y-43702096D01*
X66284071Y-43870071D01*
X66241671Y-43933527D01*
X62965528Y-47209671D01*
X62902072Y-47252071D01*
X62859672Y-47315527D01*
X62859671Y-47315528D01*
X62734097Y-47503463D01*
X62675112Y-47800000D01*
X60374802Y-47800000D01*
X60186135Y-47611334D01*
X60210500Y-47552512D01*
X60210500Y-46971488D01*
X59988152Y-46434693D01*
X59577307Y-46023848D01*
X59510000Y-45995968D01*
X59510000Y-45734032D01*
X59577307Y-45706152D01*
X59988152Y-45295307D01*
X60210500Y-44758512D01*
X60210500Y-44177488D01*
X60182620Y-44110181D01*
X62184123Y-42108679D01*
X62201843Y-42197765D01*
X62342191Y-42407809D01*
X62552235Y-42548157D01*
X62800000Y-42597440D01*
X64500000Y-42597440D01*
X64747765Y-42548157D01*
X64957809Y-42407809D01*
X65098157Y-42197765D01*
X65147440Y-41950000D01*
X65147440Y-40250000D01*
X65098157Y-40002235D01*
X64957809Y-39792191D01*
X64747765Y-39651843D01*
X64500000Y-39602560D01*
X62800000Y-39602560D01*
X62552235Y-39651843D01*
X62342191Y-39792191D01*
X62201843Y-40002235D01*
X62152560Y-40250000D01*
X62152560Y-40331987D01*
X62117999Y-40325112D01*
X62043152Y-40340000D01*
X62043148Y-40340000D01*
X61821463Y-40384096D01*
X61570071Y-40552071D01*
X61527671Y-40615527D01*
X59107819Y-43035380D01*
X59040512Y-43007500D01*
X58459488Y-43007500D01*
X57922693Y-43229848D01*
X57511848Y-43640693D01*
X57289500Y-44177488D01*
X57289500Y-44758512D01*
X57511848Y-45295307D01*
X57922693Y-45706152D01*
X57990000Y-45734032D01*
X57990001Y-45995968D01*
X57922693Y-46023848D01*
X57511848Y-46434693D01*
X57289500Y-46971488D01*
X57289500Y-47552512D01*
X57511848Y-48089307D01*
X57922693Y-48500152D01*
X58290717Y-48652593D01*
X57980656Y-48781024D01*
X57903390Y-49029785D01*
X58750000Y-49876395D01*
X58764143Y-49862253D01*
X58943748Y-50041858D01*
X58929605Y-50056000D01*
X59776215Y-50902610D01*
X60024976Y-50825344D01*
X60222340Y-50278869D01*
X60199031Y-49773833D01*
X60290001Y-49864803D01*
X60290000Y-66135198D01*
X59810500Y-66614698D01*
X59810500Y-66065488D01*
X59588152Y-65528693D01*
X59177307Y-65117848D01*
X58793814Y-64959000D01*
X59177307Y-64800152D01*
X59588152Y-64389307D01*
X59810500Y-63852512D01*
X59810500Y-63271488D01*
X59588152Y-62734693D01*
X59177307Y-62323848D01*
X59110000Y-62295968D01*
X59110000Y-62034032D01*
X59177307Y-62006152D01*
X59588152Y-61595307D01*
X59810500Y-61058512D01*
X59810500Y-60477488D01*
X59588152Y-59940693D01*
X59177307Y-59529848D01*
X58640512Y-59307500D01*
X58059488Y-59307500D01*
X57522693Y-59529848D01*
X57111848Y-59940693D01*
X56889500Y-60477488D01*
X51567940Y-60477488D01*
X51567940Y-59942500D01*
X51518657Y-59694735D01*
X51378309Y-59484691D01*
X51168265Y-59344343D01*
X50920500Y-59295060D01*
X49269500Y-59295060D01*
X49021735Y-59344343D01*
X48811691Y-59484691D01*
X48671343Y-59694735D01*
X48622060Y-59942500D01*
X42893354Y-59942500D01*
X43130487Y-59705367D01*
X43333500Y-59215250D01*
X43333500Y-58684750D01*
X43130487Y-58194633D01*
X42760000Y-57824146D01*
X42760000Y-51535146D01*
X42774888Y-51460299D01*
X42760000Y-51385452D01*
X42760000Y-51385448D01*
X42715904Y-51163763D01*
X42661415Y-51082215D01*
X42590329Y-50975826D01*
X42590327Y-50975824D01*
X42547929Y-50912371D01*
X42484476Y-50869973D01*
X37199165Y-45584663D01*
X37259409Y-45544409D01*
X37399757Y-45334365D01*
X37449040Y-45086600D01*
X37449040Y-43386600D01*
X37399757Y-43138835D01*
X37259409Y-42928791D01*
X37049365Y-42788443D01*
X36801600Y-42739160D01*
X35101600Y-42739160D01*
X34853835Y-42788443D01*
X34643791Y-42928791D01*
X34503443Y-43138835D01*
X34454160Y-43386600D01*
X31277000Y-43386600D01*
X31277000Y-37901500D01*
X34024060Y-37901500D01*
X34024060Y-39298500D01*
X34073343Y-39546265D01*
X34213691Y-39756309D01*
X34423735Y-39896657D01*
X34671500Y-39945940D01*
X36068500Y-39945940D01*
X36316265Y-39896657D01*
X36526309Y-39756309D01*
X36666657Y-39546265D01*
X36715940Y-39298500D01*
X36715940Y-38334750D01*
X45466500Y-38334750D01*
X45466500Y-38865250D01*
X45669513Y-39355367D01*
X46040001Y-39725855D01*
X46040000Y-46286153D01*
X46025112Y-46361000D01*
X46040000Y-46435847D01*
X46040000Y-46435851D01*
X46084096Y-46657536D01*
X46252071Y-46908929D01*
X46315530Y-46951331D01*
X49062379Y-49698181D01*
X49034500Y-49765488D01*
X49034500Y-50346512D01*
X49256848Y-50883307D01*
X49667693Y-51294152D01*
X50051186Y-51453000D01*
X49667693Y-51611848D01*
X49256848Y-52022693D01*
X49034500Y-52559488D01*
X49034500Y-53140512D01*
X49256848Y-53677307D01*
X49667693Y-54088152D01*
X50204488Y-54310500D01*
X50785512Y-54310500D01*
X51322307Y-54088152D01*
X51733152Y-53677307D01*
X51955500Y-53140512D01*
X51955500Y-52559488D01*
X51733152Y-52022693D01*
X51322307Y-51611848D01*
X50938814Y-51453000D01*
X51322307Y-51294152D01*
X51733152Y-50883307D01*
X51955500Y-50346512D01*
X51955500Y-49765488D01*
X51733152Y-49228693D01*
X51322307Y-48817848D01*
X50938814Y-48659000D01*
X51322307Y-48500152D01*
X51733152Y-48089307D01*
X51955500Y-47552512D01*
X51955500Y-46971488D01*
X51733152Y-46434693D01*
X51322307Y-46023848D01*
X51122150Y-45940940D01*
X51320500Y-45940940D01*
X51568265Y-45891657D01*
X51778309Y-45751309D01*
X51918657Y-45541265D01*
X51967940Y-45293500D01*
X51967940Y-43642500D01*
X51918657Y-43394735D01*
X51778309Y-43184691D01*
X51568265Y-43044343D01*
X51320500Y-42995060D01*
X49669500Y-42995060D01*
X49421735Y-43044343D01*
X49211691Y-43184691D01*
X49071343Y-43394735D01*
X49022060Y-43642500D01*
X49022060Y-45293500D01*
X49071343Y-45541265D01*
X49211691Y-45751309D01*
X49421735Y-45891657D01*
X49669500Y-45940940D01*
X49867850Y-45940940D01*
X49667693Y-46023848D01*
X49256848Y-46434693D01*
X49034500Y-46971488D01*
X49034500Y-47520699D01*
X47560000Y-46046199D01*
X47560000Y-39725854D01*
X47930487Y-39355367D01*
X48133500Y-38865250D01*
X48133500Y-38334750D01*
X47930487Y-37844633D01*
X47555367Y-37469513D01*
X47065250Y-37266500D01*
X46534750Y-37266500D01*
X46044633Y-37469513D01*
X45669513Y-37844633D01*
X45466500Y-38334750D01*
X36715940Y-38334750D01*
X36715940Y-37901500D01*
X36666657Y-37653735D01*
X36526309Y-37443691D01*
X36316265Y-37303343D01*
X36230000Y-37286184D01*
X36230000Y-35333707D01*
X36416265Y-35296657D01*
X36626309Y-35156309D01*
X36766657Y-34946265D01*
X36815940Y-34698500D01*
X36815940Y-33734750D01*
X45566500Y-33734750D01*
X45566500Y-34265250D01*
X45769513Y-34755367D01*
X46144633Y-35130487D01*
X46634750Y-35333500D01*
X47158699Y-35333500D01*
X53840000Y-42014803D01*
X53840001Y-48625148D01*
X53825112Y-48700000D01*
X53884097Y-48996537D01*
X54009421Y-49184097D01*
X54052072Y-49247929D01*
X54115528Y-49290329D01*
X55515527Y-50690329D01*
X55515530Y-50690331D01*
X57317379Y-52492182D01*
X57289500Y-52559488D01*
X57289500Y-53140512D01*
X57511848Y-53677307D01*
X57922693Y-54088152D01*
X58459488Y-54310500D01*
X59040512Y-54310500D01*
X59577307Y-54088152D01*
X59988152Y-53677307D01*
X60210500Y-53140512D01*
X60210500Y-52559488D01*
X59988152Y-52022693D01*
X59577307Y-51611848D01*
X59209283Y-51459407D01*
X59519344Y-51330976D01*
X59596610Y-51082215D01*
X58750000Y-50235605D01*
X58735858Y-50249748D01*
X58556253Y-50070143D01*
X58570395Y-50056000D01*
X57723785Y-49209390D01*
X57475024Y-49286656D01*
X57277660Y-49833131D01*
X57300388Y-50325586D01*
X56590331Y-49615530D01*
X56590329Y-49615527D01*
X55360000Y-48385199D01*
X55360000Y-41774846D01*
X55374888Y-41699999D01*
X55360000Y-41625152D01*
X55360000Y-41625148D01*
X55315904Y-41403463D01*
X55274102Y-41340902D01*
X55190329Y-41215526D01*
X55190327Y-41215524D01*
X55147929Y-41152071D01*
X55084476Y-41109673D01*
X48233500Y-34258699D01*
X48233500Y-33834750D01*
X53466500Y-33834750D01*
X53466500Y-34365250D01*
X53669513Y-34855367D01*
X54044633Y-35230487D01*
X54534750Y-35433500D01*
X55065250Y-35433500D01*
X55555367Y-35230487D01*
X55930487Y-34855367D01*
X56133500Y-34365250D01*
X56133500Y-33834750D01*
X55954043Y-33401500D01*
X64884060Y-33401500D01*
X64884060Y-34798500D01*
X64933343Y-35046265D01*
X65073691Y-35256309D01*
X65283735Y-35396657D01*
X65531500Y-35445940D01*
X66928500Y-35445940D01*
X67176265Y-35396657D01*
X67386309Y-35256309D01*
X67526657Y-35046265D01*
X67575940Y-34798500D01*
X67575940Y-33884750D01*
X69816500Y-33884750D01*
X69816500Y-34415250D01*
X70019513Y-34905367D01*
X70394633Y-35280487D01*
X70884750Y-35483500D01*
X71415250Y-35483500D01*
X71905367Y-35280487D01*
X72280487Y-34905367D01*
X72483500Y-34415250D01*
X72483500Y-33884750D01*
X72304043Y-33451500D01*
X81234060Y-33451500D01*
X81234060Y-34848500D01*
X81283343Y-35096265D01*
X81423691Y-35306309D01*
X81633735Y-35446657D01*
X81881500Y-35495940D01*
X83278500Y-35495940D01*
X83526265Y-35446657D01*
X83736309Y-35306309D01*
X83876657Y-35096265D01*
X83925940Y-34848500D01*
X83925940Y-33451500D01*
X83876657Y-33203735D01*
X83736309Y-32993691D01*
X83526265Y-32853343D01*
X83278500Y-32804060D01*
X81881500Y-32804060D01*
X81633735Y-32853343D01*
X81423691Y-32993691D01*
X81283343Y-33203735D01*
X81234060Y-33451500D01*
X72304043Y-33451500D01*
X72280487Y-33394633D01*
X71905367Y-33019513D01*
X71415250Y-32816500D01*
X70884750Y-32816500D01*
X70394633Y-33019513D01*
X70019513Y-33394633D01*
X69816500Y-33884750D01*
X67575940Y-33884750D01*
X67575940Y-33401500D01*
X67526657Y-33153735D01*
X67386309Y-32943691D01*
X67176265Y-32803343D01*
X66928500Y-32754060D01*
X65531500Y-32754060D01*
X65283735Y-32803343D01*
X65073691Y-32943691D01*
X64933343Y-33153735D01*
X64884060Y-33401500D01*
X55954043Y-33401500D01*
X55930487Y-33344633D01*
X55555367Y-32969513D01*
X55065250Y-32766500D01*
X54534750Y-32766500D01*
X54044633Y-32969513D01*
X53669513Y-33344633D01*
X53466500Y-33834750D01*
X48233500Y-33834750D01*
X48233500Y-33734750D01*
X48030487Y-33244633D01*
X47655367Y-32869513D01*
X47165250Y-32666500D01*
X46634750Y-32666500D01*
X46144633Y-32869513D01*
X45769513Y-33244633D01*
X45566500Y-33734750D01*
X36815940Y-33734750D01*
X36815940Y-33301500D01*
X36766657Y-33053735D01*
X36626309Y-32843691D01*
X36416265Y-32703343D01*
X36168500Y-32654060D01*
X34771500Y-32654060D01*
X34523735Y-32703343D01*
X34313691Y-32843691D01*
X34173343Y-33053735D01*
X34124060Y-33301500D01*
X34124060Y-34698500D01*
X34173343Y-34946265D01*
X34313691Y-35156309D01*
X34523735Y-35296657D01*
X34710001Y-35333707D01*
X34710000Y-37195998D01*
X34671159Y-37254128D01*
X34423735Y-37303343D01*
X34213691Y-37443691D01*
X34073343Y-37653735D01*
X34024060Y-37901500D01*
X31277000Y-37901500D01*
X31277000Y-31077000D01*
X141273000Y-31077000D01*
X141273000Y-93173000D01*
G04 #@! TD*
M02*
