<?xml version="1.0" standalone="no"?>
 <!DOCTYPE svg PUBLIC "-//W3C//DTD SVG 1.1//EN" 
 "http://www.w3.org/Graphics/SVG/1.1/DTD/svg11.dtd"> 
<svg xmlns="http://www.w3.org/2000/svg" version="1.1" 
    width="29.7002cm" height="21.0007cm" viewBox="0 0 116930 82680 ">
<title>SVG Picture created as folding_amp-drl_map.svg date 2018/11/11 23:10:54 </title>
  <desc>Picture generated by PCBNEW </desc>
<g style="fill:#000000; fill-opacity:1;stroke:#000000; stroke-opacity:1;
stroke-linecap:round; stroke-linejoin:round; "
 transform="translate(0 0) scale(1 1)">
</g>
<g style="fill:#000000; fill-opacity:0.0; 
stroke:#000000; stroke-width:-0.000393701; stroke-opacity:1; 
stroke-linecap:round; stroke-linejoin:round;">
</g>
<g style="fill:#000000; fill-opacity:0.0; 
stroke:#000000; stroke-width:39.3701; stroke-opacity:1; 
stroke-linecap:round; stroke-linejoin:round;">
<path d="M8602 40728
L8602 8385
" />
<path d="M58838 40728
L8602 40728
" />
<path d="M58838 8385
L58838 40728
" />
<path d="M8602 8385
L58838 8385
" />
</g>
<g style="fill:#000000; fill-opacity:0.0; 
stroke:#000000; stroke-width:78.7402; stroke-opacity:1; 
stroke-linecap:round; stroke-linejoin:round;">
<path d="M52699 20762
L52856 20919
" />
<path d="M52856 20762
L52699 20919
" />
<circle cx="15826.8" cy="30551.2" r="157.48" /> 
<circle cx="15826.8" cy="32519.7" r="157.48" /> 
<circle cx="26181.1" cy="30629.9" r="157.48" /> 
<circle cx="26181.1" cy="32598.4" r="157.48" /> 
<circle cx="30157.5" cy="30629.9" r="157.48" /> 
<circle cx="30157.5" cy="32598.4" r="157.48" /> 
<circle cx="39409.4" cy="30885.8" r="157.48" /> 
<circle cx="39409.4" cy="32854.3" r="157.48" /> 
<circle cx="49566.9" cy="30807.1" r="157.48" /> 
<circle cx="49566.9" cy="32775.6" r="157.48" /> 
<circle cx="21870.1" cy="30610.2" r="157.48" /> 
<circle cx="21870.1" cy="32578.7" r="157.48" /> 
<circle cx="13799.2" cy="30570.9" r="157.48" /> 
<circle cx="13799.2" cy="32539.4" r="157.48" /> 
<circle cx="24055.1" cy="30610.2" r="157.48" /> 
<circle cx="24055.1" cy="32578.7" r="157.48" /> 
<path d="M26513 23941
L26513 24261
" />
<path d="M26353 24101
L26673 24101
" />
<path d="M26513 25041
L26513 25361
" />
<path d="M26353 25201
L26673 25201
" />
<path d="M26513 26141
L26513 26461
" />
<path d="M26353 26301
L26673 26301
" />
<path d="M26513 27241
L26513 27561
" />
<path d="M26353 27401
L26673 27401
" />
<path d="M29763 23941
L29763 24261
" />
<path d="M29603 24101
L29923 24101
" />
<path d="M29763 25041
L29763 25361
" />
<path d="M29603 25201
L29923 25201
" />
<path d="M29763 26141
L29763 26461
" />
<path d="M29603 26301
L29923 26301
" />
<path d="M29763 27241
L29763 27561
" />
<path d="M29603 27401
L29923 27401
" />
<path d="M33757 23941
L33757 24261
" />
<path d="M33597 24101
L33917 24101
" />
<path d="M33757 25041
L33757 25361
" />
<path d="M33597 25201
L33917 25201
" />
<path d="M33757 26141
L33757 26461
" />
<path d="M33597 26301
L33917 26301
" />
<path d="M33757 27241
L33757 27561
" />
<path d="M33597 27401
L33917 27401
" />
<path d="M37007 23941
L37007 24261
" />
<path d="M36847 24101
L37167 24101
" />
<path d="M37007 25041
L37007 25361
" />
<path d="M36847 25201
L37167 25201
" />
<path d="M37007 26141
L37007 26461
" />
<path d="M36847 26301
L37167 26301
" />
<path d="M37007 27241
L37007 27561
" />
<path d="M36847 27401
L37167 27401
" />
<path d="M19407 17563
L19407 17883
" />
<path d="M19247 17723
L19567 17723
" />
<path d="M19407 18663
L19407 18983
" />
<path d="M19247 18823
L19567 18823
" />
<path d="M19407 19763
L19407 20083
" />
<path d="M19247 19923
L19567 19923
" />
<path d="M19407 20863
L19407 21183
" />
<path d="M19247 21023
L19567 21023
" />
<path d="M22657 17563
L22657 17883
" />
<path d="M22497 17723
L22817 17723
" />
<path d="M22657 18663
L22657 18983
" />
<path d="M22497 18823
L22817 18823
" />
<path d="M22657 19763
L22657 20083
" />
<path d="M22497 19923
L22817 19923
" />
<path d="M22657 20863
L22657 21183
" />
<path d="M22497 21023
L22817 21023
" />
<path d="M41316 24118
L41316 24438
" />
<path d="M41156 24278
L41476 24278
" />
<path d="M41316 25218
L41316 25538
" />
<path d="M41156 25378
L41476 25378
" />
<path d="M41316 26318
L41316 26638
" />
<path d="M41156 26478
L41476 26478
" />
<path d="M41316 27418
L41316 27738
" />
<path d="M41156 27578
L41476 27578
" />
<path d="M44566 24118
L44566 24438
" />
<path d="M44406 24278
L44726 24278
" />
<path d="M44566 25218
L44566 25538
" />
<path d="M44406 25378
L44726 25378
" />
<path d="M44566 26318
L44566 26638
" />
<path d="M44406 26478
L44726 26478
" />
<path d="M44566 27418
L44566 27738
" />
<path d="M44406 27578
L44726 27578
" />
<path d="M19250 23980
L19250 24300
" />
<path d="M19090 24140
L19410 24140
" />
<path d="M19250 25080
L19250 25400
" />
<path d="M19090 25240
L19410 25240
" />
<path d="M19250 26180
L19250 26500
" />
<path d="M19090 26340
L19410 26340
" />
<path d="M19250 27280
L19250 27600
" />
<path d="M19090 27440
L19410 27440
" />
<path d="M22500 23980
L22500 24300
" />
<path d="M22340 24140
L22660 24140
" />
<path d="M22500 25080
L22500 25400
" />
<path d="M22340 25240
L22660 25240
" />
<path d="M22500 26180
L22500 26500
" />
<path d="M22340 26340
L22660 26340
" />
<path d="M22500 27280
L22500 27600
" />
<path d="M22340 27440
L22660 27440
" />
<path d="M41120 17701
L41120 18021
" />
<path d="M40960 17861
L41280 17861
" />
<path d="M41120 18801
L41120 19121
" />
<path d="M40960 18961
L41280 18961
" />
<path d="M41120 19901
L41120 20221
" />
<path d="M40960 20061
L41280 20061
" />
<path d="M41120 21001
L41120 21321
" />
<path d="M40960 21161
L41280 21161
" />
<path d="M44370 17701
L44370 18021
" />
<path d="M44210 17861
L44530 17861
" />
<path d="M44370 18801
L44370 19121
" />
<path d="M44210 18961
L44530 18961
" />
<path d="M44370 19901
L44370 20221
" />
<path d="M44210 20061
L44530 20061
" />
<path d="M44370 21001
L44370 21321
" />
<path d="M44210 21161
L44530 21161
" />
<path d="M33698 17622
L33698 17942
" />
<path d="M33538 17782
L33858 17782
" />
<path d="M33698 18722
L33698 19042
" />
<path d="M33538 18882
L33858 18882
" />
<path d="M33698 19822
L33698 20142
" />
<path d="M33538 19982
L33858 19982
" />
<path d="M33698 20922
L33698 21242
" />
<path d="M33538 21082
L33858 21082
" />
<path d="M36948 17622
L36948 17942
" />
<path d="M36788 17782
L37108 17782
" />
<path d="M36948 18722
L36948 19042
" />
<path d="M36788 18882
L37108 18882
" />
<path d="M36948 19822
L36948 20142
" />
<path d="M36788 19982
L37108 19982
" />
<path d="M36948 20922
L36948 21242
" />
<path d="M36788 21082
L37108 21082
" />
<path d="M26513 17543
L26513 17863
" />
<path d="M26353 17703
L26673 17703
" />
<path d="M26513 18643
L26513 18963
" />
<path d="M26353 18803
L26673 18803
" />
<path d="M26513 19743
L26513 20063
" />
<path d="M26353 19903
L26673 19903
" />
<path d="M26513 20843
L26513 21163
" />
<path d="M26353 21003
L26673 21003
" />
<path d="M29763 17543
L29763 17863
" />
<path d="M29603 17703
L29923 17703
" />
<path d="M29763 18643
L29763 18963
" />
<path d="M29603 18803
L29923 18803
" />
<path d="M29763 19743
L29763 20063
" />
<path d="M29603 19903
L29923 19903
" />
<path d="M29763 20843
L29763 21163
" />
<path d="M29603 21003
L29923 21003
" />
<polyline fill="none;"
points="21226,13765
21226,13517
20978,13517
20978,13765
21226,13765
" /> 
<polyline fill="none;"
points="25726,13765
25726,13517
25478,13517
25478,13765
25726,13765
" /> 
<polyline fill="none;"
points="49643,23952
49643,23704
49395,23704
49395,23952
49643,23952
" /> 
<polyline fill="none;"
points="54143,23952
54143,23704
53895,23704
53895,23952
54143,23952
" /> 
<polyline fill="none;"
points="27663,13785
27663,13537
27415,13537
27415,13785
27663,13785
" /> 
<polyline fill="none;"
points="32163,13785
32163,13537
31915,13537
31915,13785
32163,13785
" /> 
<polyline fill="none;"
points="16186,23548
16186,23301
15939,23301
15939,23548
16186,23548
" /> 
<polyline fill="none;"
points="16186,28048
16186,27801
15939,27801
15939,28048
16186,28048
" /> 
<polyline fill="none;"
points="34198,13804
34198,13557
33951,13557
33951,13804
34198,13804
" /> 
<polyline fill="none;"
points="38698,13804
38698,13557
38451,13557
38451,13804
38698,13804
" /> 
<polyline fill="none;"
points="49674,18420
49674,18173
49427,18173
49427,18420
49674,18420
" /> 
<polyline fill="none;"
points="54174,18420
54174,18173
53927,18173
53927,18420
54174,18420
" /> 
<polyline fill="none;"
points="40635,13844
40635,13596
40388,13596
40388,13844
40635,13844
" /> 
<polyline fill="none;"
points="45135,13844
45135,13596
44888,13596
44888,13844
45135,13844
" /> 
<polyline fill="none;"
points="28352,30753
28352,30506
28104,30506
28104,30753
28352,30753
" /> 
<polyline fill="none;"
points="28352,35253
28352,35006
28104,35006
28104,35253
28352,35253
" /> 
<polyline fill="none;"
points="47623,30919
47623,30671
47376,30671
47376,30919
47623,30919
" /> 
<polyline fill="none;"
points="47623,35419
47623,35171
47376,35171
47376,35419
47623,35419
" /> 
<polyline fill="none;"
points="49635,13971
49635,13724
49387,13724
49387,13971
49635,13971
" /> 
<polyline fill="none;"
points="54135,13971
54135,13724
53887,13724
53887,13971
54135,13971
" /> 
<polyline fill="none;"
points="13615,13726
13615,13478
13368,13478
13368,13726
13615,13726
" /> 
<polyline fill="none;"
points="18115,13726
18115,13478
17868,13478
17868,13726
18115,13726
" /> 
<polyline fill="none;"
points="49643,16176
49643,15929
49395,15929
49395,16176
49643,16176
" /> 
<polyline fill="none;"
points="54143,16176
54143,15929
53895,15929
53895,16176
54143,16176
" /> 
<polyline fill="none;"
points="13576,15537
13576,15289
13329,15289
13329,15537
13576,15537
" /> 
<polyline fill="none;"
points="18076,15537
18076,15289
17829,15289
17829,15537
18076,15537
" /> 
<polyline fill="none;"
points="45478,30950
45478,30703
45230,30703
45230,30950
45478,30950
" /> 
<polyline fill="none;"
points="45478,35450
45478,35203
45230,35203
45230,35450
45478,35450
" /> 
<polyline fill="none;"
points="43293,30970
43293,30722
43045,30722
43045,30970
43293,30970
" /> 
<polyline fill="none;"
points="43293,35470
43293,35222
43045,35222
43045,35470
43293,35470
" /> 
<polyline fill="none;"
points="33503,31187
33683,31007
33503,30827
33323,31007
33503,31187
" /> 
<polyline fill="none;"
points="33503,33467
33683,33287
33503,33107
33323,33287
33503,33467
" /> 
<polyline fill="none;"
points="52814,31341
52994,31161
52814,30981
52634,31161
52814,31341
" /> 
<polyline fill="none;"
points="52814,33621
52994,33441
52814,33261
52634,33441
52814,33621
" /> 
<path d="M13524 19286
L13917 19679
" />
<path d="M13917 19286
L13524 19679
" />
<circle cx="13721.1" cy="19482.9" r="196.85" /> 
<path d="M13484 17435
L13878 17829
" />
<path d="M13878 17435
L13484 17829
" />
<circle cx="13681.7" cy="17632.5" r="196.85" /> 
<path d="M13524 22967
L13917 23360
" />
<path d="M13917 22967
L13524 23360
" />
<circle cx="13721.1" cy="23164" r="196.85" /> 
<path d="M13543 21116
L13937 21510
" />
<path d="M13937 21116
L13543 21510
" />
<circle cx="13740.8" cy="21313.6" r="196.85" /> 
<path d="M56043 37952
L57224 39133
" />
<path d="M57224 37952
L56043 39133
" />
<path d="M56633 37952
L56633 39133
" />
<path d="M56043 38543
L57224 38543
" />
<path d="M56043 10000
L57224 11181
" />
<path d="M57224 10000
L56043 11181
" />
<path d="M56633 10000
L56633 11181
" />
<path d="M56043 10590
L57224 10590
" />
<path d="M10177 10000
L11358 11181
" />
<path d="M11358 10000
L10177 11181
" />
<path d="M10767 10000
L10767 11181
" />
<path d="M10177 10590
L11358 10590
" />
<path d="M10177 37952
L11358 39133
" />
<path d="M11358 37952
L10177 39133
" />
<path d="M10767 37952
L10767 39133
" />
<path d="M10177 38543
L11358 38543
" />
</g>
<g style="fill:#000000; fill-opacity:0.0; 
stroke:#000000; stroke-width:118.11; stroke-opacity:1; 
stroke-linecap:round; stroke-linejoin:round;">
<path d="M9710 42581
L9710 41400
L9991 41400
L10160 41456
L10272 41569
L10329 41681
L10385 41906
L10385 42075
L10329 42300
L10272 42412
L10160 42525
L9991 42581
L9710 42581
" />
<path d="M10891 42581
L10891 41794
" />
<path d="M10891 42019
L10947 41906
L11003 41850
L11116 41794
L11228 41794
" />
<path d="M11622 42581
L11622 41794
" />
<path d="M11622 41400
L11566 41456
L11622 41512
L11678 41456
L11622 41400
L11622 41512
" />
<path d="M12353 42581
L12241 42525
L12185 42412
L12185 41400
" />
<path d="M12972 42581
L12859 42525
L12803 42412
L12803 41400
" />
<path d="M14322 42581
L14322 41400
L14715 42244
L15109 41400
L15109 42581
" />
<path d="M16178 42581
L16178 41962
L16122 41850
L16009 41794
L15784 41794
L15672 41850
" />
<path d="M16178 42525
L16065 42581
L15784 42581
L15672 42525
L15615 42412
L15615 42300
L15672 42187
L15784 42131
L16065 42131
L16178 42075
" />
<path d="M16740 41794
L16740 42975
" />
<path d="M16740 41850
L16853 41794
L17078 41794
L17190 41850
L17246 41906
L17303 42019
L17303 42356
L17246 42469
L17190 42525
L17078 42581
L16853 42581
L16740 42525
" />
<path d="M17809 42469
L17865 42525
L17809 42581
L17753 42525
L17809 42469
L17809 42581
" />
<path d="M17809 41850
L17865 41906
L17809 41962
L17753 41906
L17809 41850
L17809 41962
" />
<path d="M8425 44448
L8582 44606
" />
<path d="M8582 44448
L8425 44606
" />
<path d="M9935 43880
L10047 43880
L10160 43937
L10216 43993
L10272 44105
L10329 44330
L10329 44611
L10272 44836
L10216 44949
L10160 45005
L10047 45061
L9935 45061
L9822 45005
L9766 44949
L9710 44836
L9654 44611
L9654 44330
L9710 44105
L9766 43993
L9822 43937
L9935 43880
" />
<path d="M10835 44949
L10891 45005
L10835 45061
L10778 45005
L10835 44949
L10835 45061
" />
<path d="M11903 44274
L11903 45061
" />
<path d="M11622 43824
L11341 44668
L12072 44668
" />
<path d="M12747 43880
L12859 43880
L12972 43937
L13028 43993
L13084 44105
L13141 44330
L13141 44611
L13084 44836
L13028 44949
L12972 45005
L12859 45061
L12747 45061
L12634 45005
L12578 44949
L12522 44836
L12466 44611
L12466 44330
L12522 44105
L12578 43993
L12634 43937
L12747 43880
" />
<path d="M13647 45061
L13647 44274
" />
<path d="M13647 44386
L13703 44330
L13816 44274
L13984 44274
L14097 44330
L14153 44443
L14153 45061
" />
<path d="M14153 44443
L14209 44330
L14322 44274
L14491 44274
L14603 44330
L14659 44443
L14659 45061
" />
<path d="M15222 45061
L15222 44274
" />
<path d="M15222 44386
L15278 44330
L15390 44274
L15559 44274
L15672 44330
L15728 44443
L15728 45061
" />
<path d="M15728 44443
L15784 44330
L15897 44274
L16065 44274
L16178 44330
L16234 44443
L16234 45061
" />
<path d="M18540 43824
L17528 45343
" />
<path d="M20059 43880
L20171 43880
L20284 43937
L20340 43993
L20396 44105
L20452 44330
L20452 44611
L20396 44836
L20340 44949
L20284 45005
L20171 45061
L20059 45061
L19946 45005
L19890 44949
L19834 44836
L19777 44611
L19777 44330
L19834 44105
L19890 43993
L19946 43937
L20059 43880
" />
<path d="M20958 44949
L21015 45005
L20958 45061
L20902 45005
L20958 44949
L20958 45061
" />
<path d="M21746 43880
L21858 43880
L21971 43937
L22027 43993
L22083 44105
L22140 44330
L22140 44611
L22083 44836
L22027 44949
L21971 45005
L21858 45061
L21746 45061
L21633 45005
L21577 44949
L21521 44836
L21465 44611
L21465 44330
L21521 44105
L21577 43993
L21633 43937
L21746 43880
" />
<path d="M23264 45061
L22589 45061
" />
<path d="M22927 45061
L22927 43880
L22814 44049
L22702 44161
L22589 44218
" />
<path d="M24277 43880
L24052 43880
L23939 43937
L23883 43993
L23771 44161
L23714 44386
L23714 44836
L23771 44949
L23827 45005
L23939 45061
L24164 45061
L24277 45005
L24333 44949
L24389 44836
L24389 44555
L24333 44443
L24277 44386
L24164 44330
L23939 44330
L23827 44386
L23771 44443
L23714 44555
" />
<path d="M24839 43880
L24839 44105
" />
<path d="M25289 43880
L25289 44105
" />
<path d="M27033 45511
L26976 45455
L26864 45286
L26808 45174
L26751 45005
L26695 44724
L26695 44499
L26751 44218
L26808 44049
L26864 43937
L26976 43768
L27033 43712
" />
<path d="M28101 45061
L27426 45061
" />
<path d="M27764 45061
L27764 43880
L27651 44049
L27539 44161
L27426 44218
" />
<path d="M29507 45061
L29507 43880
" />
<path d="M30014 45061
L30014 44443
L29957 44330
L29845 44274
L29676 44274
L29564 44330
L29507 44386
" />
<path d="M30745 45061
L30632 45005
L30576 44949
L30520 44836
L30520 44499
L30576 44386
L30632 44330
L30745 44274
L30913 44274
L31026 44330
L31082 44386
L31138 44499
L31138 44836
L31082 44949
L31026 45005
L30913 45061
L30745 45061
" />
<path d="M31813 45061
L31701 45005
L31645 44893
L31645 43880
" />
<path d="M32713 45005
L32601 45061
L32376 45061
L32263 45005
L32207 44893
L32207 44443
L32263 44330
L32376 44274
L32601 44274
L32713 44330
L32769 44443
L32769 44555
L32207 44668
" />
<path d="M33163 45511
L33219 45455
L33332 45286
L33388 45174
L33444 45005
L33501 44724
L33501 44499
L33444 44218
L33388 44049
L33332 43937
L33219 43768
L33163 43712
" />
<circle cx="8425.2" cy="46086.6" r="157.48" /> 
<path d="M9935 45439
L10047 45439
L10160 45496
L10216 45552
L10272 45664
L10329 45889
L10329 46170
L10272 46395
L10216 46508
L10160 46564
L10047 46620
L9935 46620
L9822 46564
L9766 46508
L9710 46395
L9654 46170
L9654 45889
L9710 45664
L9766 45552
L9822 45496
L9935 45439
" />
<path d="M10835 46508
L10891 46564
L10835 46620
L10778 46564
L10835 46508
L10835 46620
" />
<path d="M11566 45946
L11453 45889
L11397 45833
L11341 45721
L11341 45664
L11397 45552
L11453 45496
L11566 45439
L11791 45439
L11903 45496
L11960 45552
L12016 45664
L12016 45721
L11960 45833
L11903 45889
L11791 45946
L11566 45946
L11453 46002
L11397 46058
L11341 46170
L11341 46395
L11397 46508
L11453 46564
L11566 46620
L11791 46620
L11903 46564
L11960 46508
L12016 46395
L12016 46170
L11960 46058
L11903 46002
L11791 45946
" />
<path d="M12747 45439
L12859 45439
L12972 45496
L13028 45552
L13084 45664
L13141 45889
L13141 46170
L13084 46395
L13028 46508
L12972 46564
L12859 46620
L12747 46620
L12634 46564
L12578 46508
L12522 46395
L12466 46170
L12466 45889
L12522 45664
L12578 45552
L12634 45496
L12747 45439
" />
<path d="M13647 46620
L13647 45833
" />
<path d="M13647 45946
L13703 45889
L13816 45833
L13984 45833
L14097 45889
L14153 46002
L14153 46620
" />
<path d="M14153 46002
L14209 45889
L14322 45833
L14491 45833
L14603 45889
L14659 46002
L14659 46620
" />
<path d="M15222 46620
L15222 45833
" />
<path d="M15222 45946
L15278 45889
L15390 45833
L15559 45833
L15672 45889
L15728 46002
L15728 46620
" />
<path d="M15728 46002
L15784 45889
L15897 45833
L16065 45833
L16178 45889
L16234 46002
L16234 46620
" />
<path d="M18540 45383
L17528 46902
" />
<path d="M20059 45439
L20171 45439
L20284 45496
L20340 45552
L20396 45664
L20452 45889
L20452 46170
L20396 46395
L20340 46508
L20284 46564
L20171 46620
L20059 46620
L19946 46564
L19890 46508
L19834 46395
L19777 46170
L19777 45889
L19834 45664
L19890 45552
L19946 45496
L20059 45439
" />
<path d="M20958 46508
L21015 46564
L20958 46620
L20902 46564
L20958 46508
L20958 46620
" />
<path d="M21746 45439
L21858 45439
L21971 45496
L22027 45552
L22083 45664
L22140 45889
L22140 46170
L22083 46395
L22027 46508
L21971 46564
L21858 46620
L21746 46620
L21633 46564
L21577 46508
L21521 46395
L21465 46170
L21465 45889
L21521 45664
L21577 45552
L21633 45496
L21746 45439
" />
<path d="M22533 45439
L23264 45439
L22871 45889
L23039 45889
L23152 45946
L23208 46002
L23264 46114
L23264 46395
L23208 46508
L23152 46564
L23039 46620
L22702 46620
L22589 46564
L22533 46508
" />
<path d="M24389 46620
L23714 46620
" />
<path d="M24052 46620
L24052 45439
L23939 45608
L23827 45721
L23714 45777
" />
<path d="M24839 45439
L24839 45664
" />
<path d="M25289 45439
L25289 45664
" />
<path d="M27033 47070
L26976 47014
L26864 46845
L26808 46733
L26751 46564
L26695 46283
L26695 46058
L26751 45777
L26808 45608
L26864 45496
L26976 45327
L27033 45271
" />
<path d="M28101 46620
L27426 46620
" />
<path d="M27764 46620
L27764 45439
L27651 45608
L27539 45721
L27426 45777
" />
<path d="M29114 45439
L28889 45439
L28776 45496
L28720 45552
L28607 45721
L28551 45946
L28551 46395
L28607 46508
L28664 46564
L28776 46620
L29001 46620
L29114 46564
L29170 46508
L29226 46395
L29226 46114
L29170 46002
L29114 45946
L29001 45889
L28776 45889
L28664 45946
L28607 46002
L28551 46114
" />
<path d="M30632 46620
L30632 45439
" />
<path d="M31138 46620
L31138 46002
L31082 45889
L30970 45833
L30801 45833
L30688 45889
L30632 45946
" />
<path d="M31870 46620
L31757 46564
L31701 46508
L31645 46395
L31645 46058
L31701 45946
L31757 45889
L31870 45833
L32038 45833
L32151 45889
L32207 45946
L32263 46058
L32263 46395
L32207 46508
L32151 46564
L32038 46620
L31870 46620
" />
<path d="M32938 46620
L32826 46564
L32769 46452
L32769 45439
" />
<path d="M33838 46564
L33726 46620
L33501 46620
L33388 46564
L33332 46452
L33332 46002
L33388 45889
L33501 45833
L33726 45833
L33838 45889
L33894 46002
L33894 46114
L33332 46227
" />
<path d="M34344 46564
L34457 46620
L34682 46620
L34794 46564
L34850 46452
L34850 46395
L34794 46283
L34682 46227
L34513 46227
L34401 46170
L34344 46058
L34344 46002
L34401 45889
L34513 45833
L34682 45833
L34794 45889
" />
<path d="M35244 47070
L35300 47014
L35413 46845
L35469 46733
L35525 46564
L35582 46283
L35582 46058
L35525 45777
L35469 45608
L35413 45496
L35300 45327
L35244 45271
" />
<path d="M8422 47485
L8422 47805
" />
<path d="M8262 47645
L8582 47645
" />
<path d="M9935 46998
L10047 46998
L10160 47055
L10216 47111
L10272 47223
L10329 47448
L10329 47730
L10272 47955
L10216 48067
L10160 48123
L10047 48179
L9935 48179
L9822 48123
L9766 48067
L9710 47955
L9654 47730
L9654 47448
L9710 47223
L9766 47111
L9822 47055
L9935 46998
" />
<path d="M10835 48067
L10891 48123
L10835 48179
L10778 48123
L10835 48067
L10835 48179
" />
<path d="M11566 47505
L11453 47448
L11397 47392
L11341 47280
L11341 47223
L11397 47111
L11453 47055
L11566 46998
L11791 46998
L11903 47055
L11960 47111
L12016 47223
L12016 47280
L11960 47392
L11903 47448
L11791 47505
L11566 47505
L11453 47561
L11397 47617
L11341 47730
L11341 47955
L11397 48067
L11453 48123
L11566 48179
L11791 48179
L11903 48123
L11960 48067
L12016 47955
L12016 47730
L11960 47617
L11903 47561
L11791 47505
" />
<path d="M13141 48179
L12466 48179
" />
<path d="M12803 48179
L12803 46998
L12691 47167
L12578 47280
L12466 47336
" />
<path d="M13647 48179
L13647 47392
" />
<path d="M13647 47505
L13703 47448
L13816 47392
L13984 47392
L14097 47448
L14153 47561
L14153 48179
" />
<path d="M14153 47561
L14209 47448
L14322 47392
L14491 47392
L14603 47448
L14659 47561
L14659 48179
" />
<path d="M15222 48179
L15222 47392
" />
<path d="M15222 47505
L15278 47448
L15390 47392
L15559 47392
L15672 47448
L15728 47561
L15728 48179
" />
<path d="M15728 47561
L15784 47448
L15897 47392
L16065 47392
L16178 47448
L16234 47561
L16234 48179
" />
<path d="M18540 46942
L17528 48461
" />
<path d="M20059 46998
L20171 46998
L20284 47055
L20340 47111
L20396 47223
L20452 47448
L20452 47730
L20396 47955
L20340 48067
L20284 48123
L20171 48179
L20059 48179
L19946 48123
L19890 48067
L19834 47955
L19777 47730
L19777 47448
L19834 47223
L19890 47111
L19946 47055
L20059 46998
" />
<path d="M20958 48067
L21015 48123
L20958 48179
L20902 48123
L20958 48067
L20958 48179
" />
<path d="M21746 46998
L21858 46998
L21971 47055
L22027 47111
L22083 47223
L22140 47448
L22140 47730
L22083 47955
L22027 48067
L21971 48123
L21858 48179
L21746 48179
L21633 48123
L21577 48067
L21521 47955
L21465 47730
L21465 47448
L21521 47223
L21577 47111
L21633 47055
L21746 46998
" />
<path d="M22533 46998
L23264 46998
L22871 47448
L23039 47448
L23152 47505
L23208 47561
L23264 47673
L23264 47955
L23208 48067
L23152 48123
L23039 48179
L22702 48179
L22589 48123
L22533 48067
" />
<path d="M23714 47111
L23771 47055
L23883 46998
L24164 46998
L24277 47055
L24333 47111
L24389 47223
L24389 47336
L24333 47505
L23658 48179
L24389 48179
" />
<path d="M24839 46998
L24839 47223
" />
<path d="M25289 46998
L25289 47223
" />
<path d="M27033 48629
L26976 48573
L26864 48404
L26808 48292
L26751 48123
L26695 47842
L26695 47617
L26751 47336
L26808 47167
L26864 47055
L26976 46886
L27033 46830
" />
<path d="M27989 46998
L27764 46998
L27651 47055
L27595 47111
L27483 47280
L27426 47505
L27426 47955
L27483 48067
L27539 48123
L27651 48179
L27876 48179
L27989 48123
L28045 48067
L28101 47955
L28101 47673
L28045 47561
L27989 47505
L27876 47448
L27651 47448
L27539 47505
L27483 47561
L27426 47673
" />
<path d="M29114 47392
L29114 48179
" />
<path d="M28832 46942
L28551 47786
L29282 47786
" />
<path d="M30632 48179
L30632 46998
" />
<path d="M31138 48179
L31138 47561
L31082 47448
L30970 47392
L30801 47392
L30688 47448
L30632 47505
" />
<path d="M31870 48179
L31757 48123
L31701 48067
L31645 47955
L31645 47617
L31701 47505
L31757 47448
L31870 47392
L32038 47392
L32151 47448
L32207 47505
L32263 47617
L32263 47955
L32207 48067
L32151 48123
L32038 48179
L31870 48179
" />
<path d="M32938 48179
L32826 48123
L32769 48011
L32769 46998
" />
<path d="M33838 48123
L33726 48179
L33501 48179
L33388 48123
L33332 48011
L33332 47561
L33388 47448
L33501 47392
L33726 47392
L33838 47448
L33894 47561
L33894 47673
L33332 47786
" />
<path d="M34344 48123
L34457 48179
L34682 48179
L34794 48123
L34850 48011
L34850 47955
L34794 47842
L34682 47786
L34513 47786
L34401 47730
L34344 47617
L34344 47561
L34401 47448
L34513 47392
L34682 47392
L34794 47448
" />
<path d="M35244 48629
L35300 48573
L35413 48404
L35469 48292
L35525 48123
L35582 47842
L35582 47617
L35525 47336
L35469 47167
L35413 47055
L35300 46886
L35244 46830
" />
<polyline fill="none;"
points="8531,49328
8531,49080
8283,49080
8283,49328
8531,49328
" /> 
<path d="M9935 48557
L10047 48557
L10160 48614
L10216 48670
L10272 48782
L10329 49007
L10329 49289
L10272 49514
L10216 49626
L10160 49682
L10047 49739
L9935 49739
L9822 49682
L9766 49626
L9710 49514
L9654 49289
L9654 49007
L9710 48782
L9766 48670
L9822 48614
L9935 48557
" />
<path d="M10835 49626
L10891 49682
L10835 49739
L10778 49682
L10835 49626
L10835 49739
" />
<path d="M11566 49064
L11453 49007
L11397 48951
L11341 48839
L11341 48782
L11397 48670
L11453 48614
L11566 48557
L11791 48557
L11903 48614
L11960 48670
L12016 48782
L12016 48839
L11960 48951
L11903 49007
L11791 49064
L11566 49064
L11453 49120
L11397 49176
L11341 49289
L11341 49514
L11397 49626
L11453 49682
L11566 49739
L11791 49739
L11903 49682
L11960 49626
L12016 49514
L12016 49289
L11960 49176
L11903 49120
L11791 49064
" />
<path d="M12578 49739
L12803 49739
L12916 49682
L12972 49626
L13084 49457
L13141 49232
L13141 48782
L13084 48670
L13028 48614
L12916 48557
L12691 48557
L12578 48614
L12522 48670
L12466 48782
L12466 49064
L12522 49176
L12578 49232
L12691 49289
L12916 49289
L13028 49232
L13084 49176
L13141 49064
" />
<path d="M13647 49739
L13647 48951
" />
<path d="M13647 49064
L13703 49007
L13816 48951
L13984 48951
L14097 49007
L14153 49120
L14153 49739
" />
<path d="M14153 49120
L14209 49007
L14322 48951
L14491 48951
L14603 49007
L14659 49120
L14659 49739
" />
<path d="M15222 49739
L15222 48951
" />
<path d="M15222 49064
L15278 49007
L15390 48951
L15559 48951
L15672 49007
L15728 49120
L15728 49739
" />
<path d="M15728 49120
L15784 49007
L15897 48951
L16065 48951
L16178 49007
L16234 49120
L16234 49739
" />
<path d="M18540 48501
L17528 50020
" />
<path d="M20059 48557
L20171 48557
L20284 48614
L20340 48670
L20396 48782
L20452 49007
L20452 49289
L20396 49514
L20340 49626
L20284 49682
L20171 49739
L20059 49739
L19946 49682
L19890 49626
L19834 49514
L19777 49289
L19777 49007
L19834 48782
L19890 48670
L19946 48614
L20059 48557
" />
<path d="M20958 49626
L21015 49682
L20958 49739
L20902 49682
L20958 49626
L20958 49739
" />
<path d="M21746 48557
L21858 48557
L21971 48614
L22027 48670
L22083 48782
L22140 49007
L22140 49289
L22083 49514
L22027 49626
L21971 49682
L21858 49739
L21746 49739
L21633 49682
L21577 49626
L21521 49514
L21465 49289
L21465 49007
L21521 48782
L21577 48670
L21633 48614
L21746 48557
" />
<path d="M22533 48557
L23264 48557
L22871 49007
L23039 49007
L23152 49064
L23208 49120
L23264 49232
L23264 49514
L23208 49626
L23152 49682
L23039 49739
L22702 49739
L22589 49682
L22533 49626
" />
<path d="M24333 48557
L23771 48557
L23714 49120
L23771 49064
L23883 49007
L24164 49007
L24277 49064
L24333 49120
L24389 49232
L24389 49514
L24333 49626
L24277 49682
L24164 49739
L23883 49739
L23771 49682
L23714 49626
" />
<path d="M24839 48557
L24839 48782
" />
<path d="M25289 48557
L25289 48782
" />
<path d="M27033 50188
L26976 50132
L26864 49964
L26808 49851
L26751 49682
L26695 49401
L26695 49176
L26751 48895
L26808 48726
L26864 48614
L26976 48445
L27033 48389
" />
<path d="M27370 48557
L28101 48557
L27708 49007
L27876 49007
L27989 49064
L28045 49120
L28101 49232
L28101 49514
L28045 49626
L27989 49682
L27876 49739
L27539 49739
L27426 49682
L27370 49626
" />
<path d="M28832 48557
L28945 48557
L29057 48614
L29114 48670
L29170 48782
L29226 49007
L29226 49289
L29170 49514
L29114 49626
L29057 49682
L28945 49739
L28832 49739
L28720 49682
L28664 49626
L28607 49514
L28551 49289
L28551 49007
L28607 48782
L28664 48670
L28720 48614
L28832 48557
" />
<path d="M30632 49739
L30632 48557
" />
<path d="M31138 49739
L31138 49120
L31082 49007
L30970 48951
L30801 48951
L30688 49007
L30632 49064
" />
<path d="M31870 49739
L31757 49682
L31701 49626
L31645 49514
L31645 49176
L31701 49064
L31757 49007
L31870 48951
L32038 48951
L32151 49007
L32207 49064
L32263 49176
L32263 49514
L32207 49626
L32151 49682
L32038 49739
L31870 49739
" />
<path d="M32938 49739
L32826 49682
L32769 49570
L32769 48557
" />
<path d="M33838 49682
L33726 49739
L33501 49739
L33388 49682
L33332 49570
L33332 49120
L33388 49007
L33501 48951
L33726 48951
L33838 49007
L33894 49120
L33894 49232
L33332 49345
" />
<path d="M34344 49682
L34457 49739
L34682 49739
L34794 49682
L34850 49570
L34850 49514
L34794 49401
L34682 49345
L34513 49345
L34401 49289
L34344 49176
L34344 49120
L34401 49007
L34513 48951
L34682 48951
L34794 49007
" />
<path d="M35244 50188
L35300 50132
L35413 49964
L35469 49851
L35525 49682
L35582 49401
L35582 49176
L35525 48895
L35469 48726
L35413 48614
L35300 48445
L35244 48389
" />
<polyline fill="none;"
points="8402,50943
8582,50763
8402,50583
8222,50763
8402,50943
" /> 
<path d="M9935 50116
L10047 50116
L10160 50173
L10216 50229
L10272 50341
L10329 50566
L10329 50848
L10272 51073
L10216 51185
L10160 51241
L10047 51298
L9935 51298
L9822 51241
L9766 51185
L9710 51073
L9654 50848
L9654 50566
L9710 50341
L9766 50229
L9822 50173
L9935 50116
" />
<path d="M10835 51185
L10891 51241
L10835 51298
L10778 51241
L10835 51185
L10835 51298
" />
<path d="M11453 51298
L11678 51298
L11791 51241
L11847 51185
L11960 51016
L12016 50791
L12016 50341
L11960 50229
L11903 50173
L11791 50116
L11566 50116
L11453 50173
L11397 50229
L11341 50341
L11341 50623
L11397 50735
L11453 50791
L11566 50848
L11791 50848
L11903 50791
L11960 50735
L12016 50623
" />
<path d="M13141 51298
L12466 51298
" />
<path d="M12803 51298
L12803 50116
L12691 50285
L12578 50398
L12466 50454
" />
<path d="M13647 51298
L13647 50510
" />
<path d="M13647 50623
L13703 50566
L13816 50510
L13984 50510
L14097 50566
L14153 50679
L14153 51298
" />
<path d="M14153 50679
L14209 50566
L14322 50510
L14491 50510
L14603 50566
L14659 50679
L14659 51298
" />
<path d="M15222 51298
L15222 50510
" />
<path d="M15222 50623
L15278 50566
L15390 50510
L15559 50510
L15672 50566
L15728 50679
L15728 51298
" />
<path d="M15728 50679
L15784 50566
L15897 50510
L16065 50510
L16178 50566
L16234 50679
L16234 51298
" />
<path d="M18540 50060
L17528 51579
" />
<path d="M20059 50116
L20171 50116
L20284 50173
L20340 50229
L20396 50341
L20452 50566
L20452 50848
L20396 51073
L20340 51185
L20284 51241
L20171 51298
L20059 51298
L19946 51241
L19890 51185
L19834 51073
L19777 50848
L19777 50566
L19834 50341
L19890 50229
L19946 50173
L20059 50116
" />
<path d="M20958 51185
L21015 51241
L20958 51298
L20902 51241
L20958 51185
L20958 51298
" />
<path d="M21746 50116
L21858 50116
L21971 50173
L22027 50229
L22083 50341
L22140 50566
L22140 50848
L22083 51073
L22027 51185
L21971 51241
L21858 51298
L21746 51298
L21633 51241
L21577 51185
L21521 51073
L21465 50848
L21465 50566
L21521 50341
L21577 50229
L21633 50173
L21746 50116
" />
<path d="M22533 50116
L23264 50116
L22871 50566
L23039 50566
L23152 50623
L23208 50679
L23264 50791
L23264 51073
L23208 51185
L23152 51241
L23039 51298
L22702 51298
L22589 51241
L22533 51185
" />
<path d="M24277 50116
L24052 50116
L23939 50173
L23883 50229
L23771 50398
L23714 50623
L23714 51073
L23771 51185
L23827 51241
L23939 51298
L24164 51298
L24277 51241
L24333 51185
L24389 51073
L24389 50791
L24333 50679
L24277 50623
L24164 50566
L23939 50566
L23827 50623
L23771 50679
L23714 50791
" />
<path d="M24839 50116
L24839 50341
" />
<path d="M25289 50116
L25289 50341
" />
<path d="M27033 51748
L26976 51691
L26864 51523
L26808 51410
L26751 51241
L26695 50960
L26695 50735
L26751 50454
L26808 50285
L26864 50173
L26976 50004
L27033 49948
" />
<path d="M27989 50510
L27989 51298
" />
<path d="M27708 50060
L27426 50904
L28158 50904
" />
<path d="M29507 51298
L29507 50116
" />
<path d="M30014 51298
L30014 50679
L29957 50566
L29845 50510
L29676 50510
L29564 50566
L29507 50623
" />
<path d="M30745 51298
L30632 51241
L30576 51185
L30520 51073
L30520 50735
L30576 50623
L30632 50566
L30745 50510
L30913 50510
L31026 50566
L31082 50623
L31138 50735
L31138 51073
L31082 51185
L31026 51241
L30913 51298
L30745 51298
" />
<path d="M31813 51298
L31701 51241
L31645 51129
L31645 50116
" />
<path d="M32713 51241
L32601 51298
L32376 51298
L32263 51241
L32207 51129
L32207 50679
L32263 50566
L32376 50510
L32601 50510
L32713 50566
L32769 50679
L32769 50791
L32207 50904
" />
<path d="M33219 51241
L33332 51298
L33557 51298
L33669 51241
L33726 51129
L33726 51073
L33669 50960
L33557 50904
L33388 50904
L33276 50848
L33219 50735
L33219 50679
L33276 50566
L33388 50510
L33557 50510
L33669 50566
" />
<path d="M34119 51748
L34176 51691
L34288 51523
L34344 51410
L34401 51241
L34457 50960
L34457 50735
L34401 50454
L34344 50285
L34288 50173
L34176 50004
L34119 49948
" />
<path d="M8188 52125
L8582 52519
" />
<path d="M8582 52125
L8188 52519
" />
<circle cx="8385.83" cy="52322.8" r="196.85" /> 
<path d="M10329 52857
L9654 52857
" />
<path d="M9991 52857
L9991 51676
L9879 51844
L9766 51957
L9654 52013
" />
<path d="M10835 52744
L10891 52800
L10835 52857
L10778 52800
L10835 52744
L10835 52857
" />
<path d="M11622 51676
L11735 51676
L11847 51732
L11903 51788
L11960 51901
L12016 52125
L12016 52407
L11960 52632
L11903 52744
L11847 52800
L11735 52857
L11622 52857
L11510 52800
L11453 52744
L11397 52632
L11341 52407
L11341 52125
L11397 51901
L11453 51788
L11510 51732
L11622 51676
" />
<path d="M12747 51676
L12859 51676
L12972 51732
L13028 51788
L13084 51901
L13141 52125
L13141 52407
L13084 52632
L13028 52744
L12972 52800
L12859 52857
L12747 52857
L12634 52800
L12578 52744
L12522 52632
L12466 52407
L12466 52125
L12522 51901
L12578 51788
L12634 51732
L12747 51676
" />
<path d="M13647 52857
L13647 52069
" />
<path d="M13647 52182
L13703 52125
L13816 52069
L13984 52069
L14097 52125
L14153 52238
L14153 52857
" />
<path d="M14153 52238
L14209 52125
L14322 52069
L14491 52069
L14603 52125
L14659 52238
L14659 52857
" />
<path d="M15222 52857
L15222 52069
" />
<path d="M15222 52182
L15278 52125
L15390 52069
L15559 52069
L15672 52125
L15728 52238
L15728 52857
" />
<path d="M15728 52238
L15784 52125
L15897 52069
L16065 52069
L16178 52125
L16234 52238
L16234 52857
" />
<path d="M18540 51619
L17528 53138
" />
<path d="M20059 51676
L20171 51676
L20284 51732
L20340 51788
L20396 51901
L20452 52125
L20452 52407
L20396 52632
L20340 52744
L20284 52800
L20171 52857
L20059 52857
L19946 52800
L19890 52744
L19834 52632
L19777 52407
L19777 52125
L19834 51901
L19890 51788
L19946 51732
L20059 51676
" />
<path d="M20958 52744
L21015 52800
L20958 52857
L20902 52800
L20958 52744
L20958 52857
" />
<path d="M21746 51676
L21858 51676
L21971 51732
L22027 51788
L22083 51901
L22140 52125
L22140 52407
L22083 52632
L22027 52744
L21971 52800
L21858 52857
L21746 52857
L21633 52800
L21577 52744
L21521 52632
L21465 52407
L21465 52125
L21521 51901
L21577 51788
L21633 51732
L21746 51676
" />
<path d="M22533 51676
L23264 51676
L22871 52125
L23039 52125
L23152 52182
L23208 52238
L23264 52350
L23264 52632
L23208 52744
L23152 52800
L23039 52857
L22702 52857
L22589 52800
L22533 52744
" />
<path d="M23827 52857
L24052 52857
L24164 52800
L24221 52744
L24333 52575
L24389 52350
L24389 51901
L24333 51788
L24277 51732
L24164 51676
L23939 51676
L23827 51732
L23771 51788
L23714 51901
L23714 52182
L23771 52294
L23827 52350
L23939 52407
L24164 52407
L24277 52350
L24333 52294
L24389 52182
" />
<path d="M24839 51676
L24839 51901
" />
<path d="M25289 51676
L25289 51901
" />
<path d="M27033 53307
L26976 53250
L26864 53082
L26808 52969
L26751 52800
L26695 52519
L26695 52294
L26751 52013
L26808 51844
L26864 51732
L26976 51563
L27033 51507
" />
<path d="M27989 52069
L27989 52857
" />
<path d="M27708 51619
L27426 52463
L28158 52463
" />
<path d="M29507 52857
L29507 51676
" />
<path d="M30014 52857
L30014 52238
L29957 52125
L29845 52069
L29676 52069
L29564 52125
L29507 52182
" />
<path d="M30745 52857
L30632 52800
L30576 52744
L30520 52632
L30520 52294
L30576 52182
L30632 52125
L30745 52069
L30913 52069
L31026 52125
L31082 52182
L31138 52294
L31138 52632
L31082 52744
L31026 52800
L30913 52857
L30745 52857
" />
<path d="M31813 52857
L31701 52800
L31645 52688
L31645 51676
" />
<path d="M32713 52800
L32601 52857
L32376 52857
L32263 52800
L32207 52688
L32207 52238
L32263 52125
L32376 52069
L32601 52069
L32713 52125
L32769 52238
L32769 52350
L32207 52463
" />
<path d="M33219 52800
L33332 52857
L33557 52857
L33669 52800
L33726 52688
L33726 52632
L33669 52519
L33557 52463
L33388 52463
L33276 52407
L33219 52294
L33219 52238
L33276 52125
L33388 52069
L33557 52069
L33669 52125
" />
<path d="M34119 53307
L34176 53250
L34288 53082
L34344 52969
L34401 52800
L34457 52519
L34457 52294
L34401 52013
L34344 51844
L34288 51732
L34176 51563
L34119 51507
" />
<path d="M7401 53291
L8582 54472
" />
<path d="M8582 53291
L7401 54472
" />
<path d="M7992 53291
L7992 54472
" />
<path d="M7401 53881
L8582 53881
" />
<path d="M9597 53235
L10329 53235
L9935 53685
L10104 53685
L10216 53741
L10272 53797
L10329 53910
L10329 54191
L10272 54303
L10216 54359
L10104 54416
L9766 54416
L9654 54359
L9597 54303
" />
<path d="M10835 54303
L10891 54359
L10835 54416
L10778 54359
L10835 54303
L10835 54416
" />
<path d="M11622 53235
L11735 53235
L11847 53291
L11903 53347
L11960 53460
L12016 53685
L12016 53966
L11960 54191
L11903 54303
L11847 54359
L11735 54416
L11622 54416
L11510 54359
L11453 54303
L11397 54191
L11341 53966
L11341 53685
L11397 53460
L11453 53347
L11510 53291
L11622 53235
" />
<path d="M12747 53235
L12859 53235
L12972 53291
L13028 53347
L13084 53460
L13141 53685
L13141 53966
L13084 54191
L13028 54303
L12972 54359
L12859 54416
L12747 54416
L12634 54359
L12578 54303
L12522 54191
L12466 53966
L12466 53685
L12522 53460
L12578 53347
L12634 53291
L12747 53235
" />
<path d="M13647 54416
L13647 53628
" />
<path d="M13647 53741
L13703 53685
L13816 53628
L13984 53628
L14097 53685
L14153 53797
L14153 54416
" />
<path d="M14153 53797
L14209 53685
L14322 53628
L14491 53628
L14603 53685
L14659 53797
L14659 54416
" />
<path d="M15222 54416
L15222 53628
" />
<path d="M15222 53741
L15278 53685
L15390 53628
L15559 53628
L15672 53685
L15728 53797
L15728 54416
" />
<path d="M15728 53797
L15784 53685
L15897 53628
L16065 53628
L16178 53685
L16234 53797
L16234 54416
" />
<path d="M18540 53178
L17528 54697
" />
<path d="M20059 53235
L20171 53235
L20284 53291
L20340 53347
L20396 53460
L20452 53685
L20452 53966
L20396 54191
L20340 54303
L20284 54359
L20171 54416
L20059 54416
L19946 54359
L19890 54303
L19834 54191
L19777 53966
L19777 53685
L19834 53460
L19890 53347
L19946 53291
L20059 53235
" />
<path d="M20958 54303
L21015 54359
L20958 54416
L20902 54359
L20958 54303
L20958 54416
" />
<path d="M22140 54416
L21465 54416
" />
<path d="M21802 54416
L21802 53235
L21690 53403
L21577 53516
L21465 53572
" />
<path d="M23264 54416
L22589 54416
" />
<path d="M22927 54416
L22927 53235
L22814 53403
L22702 53516
L22589 53572
" />
<path d="M23939 53741
L23827 53685
L23771 53628
L23714 53516
L23714 53460
L23771 53347
L23827 53291
L23939 53235
L24164 53235
L24277 53291
L24333 53347
L24389 53460
L24389 53516
L24333 53628
L24277 53685
L24164 53741
L23939 53741
L23827 53797
L23771 53853
L23714 53966
L23714 54191
L23771 54303
L23827 54359
L23939 54416
L24164 54416
L24277 54359
L24333 54303
L24389 54191
L24389 53966
L24333 53853
L24277 53797
L24164 53741
" />
<path d="M24839 53235
L24839 53460
" />
<path d="M25289 53235
L25289 53460
" />
<path d="M27033 54866
L26976 54809
L26864 54641
L26808 54528
L26751 54359
L26695 54078
L26695 53853
L26751 53572
L26808 53403
L26864 53291
L26976 53122
L27033 53066
" />
<path d="M27989 53628
L27989 54416
" />
<path d="M27708 53178
L27426 54022
L28158 54022
" />
<path d="M29507 54416
L29507 53235
" />
<path d="M30014 54416
L30014 53797
L29957 53685
L29845 53628
L29676 53628
L29564 53685
L29507 53741
" />
<path d="M30745 54416
L30632 54359
L30576 54303
L30520 54191
L30520 53853
L30576 53741
L30632 53685
L30745 53628
L30913 53628
L31026 53685
L31082 53741
L31138 53853
L31138 54191
L31082 54303
L31026 54359
L30913 54416
L30745 54416
" />
<path d="M31813 54416
L31701 54359
L31645 54247
L31645 53235
" />
<path d="M32713 54359
L32601 54416
L32376 54416
L32263 54359
L32207 54247
L32207 53797
L32263 53685
L32376 53628
L32601 53628
L32713 53685
L32769 53797
L32769 53910
L32207 54022
" />
<path d="M33219 54359
L33332 54416
L33557 54416
L33669 54359
L33726 54247
L33726 54191
L33669 54078
L33557 54022
L33388 54022
L33276 53966
L33219 53853
L33219 53797
L33276 53685
L33388 53628
L33557 53628
L33669 53685
" />
<path d="M34119 54866
L34176 54809
L34288 54641
L34344 54528
L34401 54359
L34457 54078
L34457 53853
L34401 53572
L34344 53403
L34288 53291
L34176 53122
L34119 53066
" />
<path d="M36257 54866
L36200 54809
L36088 54641
L36032 54528
L35975 54359
L35919 54078
L35919 53853
L35975 53572
L36032 53403
L36088 53291
L36200 53122
L36257 53066
" />
<path d="M36706 53628
L36706 54416
" />
<path d="M36706 53741
L36763 53685
L36875 53628
L37044 53628
L37156 53685
L37213 53797
L37213 54416
" />
<path d="M37944 54416
L37831 54359
L37775 54303
L37719 54191
L37719 53853
L37775 53741
L37831 53685
L37944 53628
L38113 53628
L38225 53685
L38281 53741
L38338 53853
L38338 54191
L38281 54303
L38225 54359
L38113 54416
L37944 54416
" />
<path d="M38675 53628
L39125 53628
" />
<path d="M38844 53235
L38844 54247
L38900 54359
L39012 54416
L39125 54416
" />
<path d="M40419 53628
L40419 54809
" />
<path d="M40419 53685
L40531 53628
L40756 53628
L40868 53685
L40925 53741
L40981 53853
L40981 54191
L40925 54303
L40868 54359
L40756 54416
L40531 54416
L40419 54359
" />
<path d="M41656 54416
L41543 54359
L41487 54247
L41487 53235
" />
<path d="M42612 54416
L42612 53797
L42556 53685
L42443 53628
L42218 53628
L42106 53685
" />
<path d="M42612 54359
L42499 54416
L42218 54416
L42106 54359
L42050 54247
L42050 54134
L42106 54022
L42218 53966
L42499 53966
L42612 53910
" />
<path d="M43006 53628
L43456 53628
" />
<path d="M43174 53235
L43174 54247
L43231 54359
L43343 54416
L43456 54416
" />
<path d="M44299 54359
L44187 54416
L43962 54416
L43849 54359
L43793 54247
L43793 53797
L43849 53685
L43962 53628
L44187 53628
L44299 53685
L44356 53797
L44356 53910
L43793 54022
" />
<path d="M45368 54416
L45368 53235
" />
<path d="M45368 54359
L45255 54416
L45030 54416
L44918 54359
L44862 54303
L44805 54191
L44805 53853
L44862 53741
L44918 53685
L45030 53628
L45255 53628
L45368 53685
" />
<path d="M45818 54866
L45874 54809
L45987 54641
L46043 54528
L46099 54359
L46155 54078
L46155 53853
L46099 53572
L46043 53403
L45987 53291
L45874 53122
L45818 53066
" />
</g> 
</svg>
