G04 #@! TF.GenerationSoftware,KiCad,Pcbnew,(5.0.1)-3*
G04 #@! TF.CreationDate,2018-11-14T16:56:54-05:00*
G04 #@! TF.ProjectId,folding_amp,666F6C64696E675F616D702E6B696361,rev?*
G04 #@! TF.SameCoordinates,Original*
G04 #@! TF.FileFunction,Legend,Top*
G04 #@! TF.FilePolarity,Positive*
%FSLAX46Y46*%
G04 Gerber Fmt 4.6, Leading zero omitted, Abs format (unit mm)*
G04 Created by KiCad (PCBNEW (5.0.1)-3) date 11/14/2018 4:56:54 PM*
%MOMM*%
%LPD*%
G01*
G04 APERTURE LIST*
%ADD10C,0.100000*%
%ADD11C,0.250000*%
%ADD12C,0.300000*%
%ADD13C,0.200000*%
%ADD14C,0.152400*%
%ADD15C,0.120000*%
%ADD16C,0.150000*%
G04 APERTURE END LIST*
D10*
X151550000Y-71250000D02*
G75*
G02X151550000Y-70650000I0J300000D01*
G01*
X106200000Y-80200000D02*
X106000000Y-79850000D01*
X106400000Y-79850000D02*
X106200000Y-80200000D01*
X106000000Y-79850000D02*
X106400000Y-79850000D01*
X49250000Y-77600000D02*
G75*
G02X48550000Y-77600000I-350000J0D01*
G01*
X95650000Y-79000000D02*
G75*
G02X95050000Y-79000000I-300000J0D01*
G01*
D11*
X46466666Y-37852380D02*
X46800000Y-38852380D01*
X47133333Y-37852380D01*
X47228571Y-38947619D02*
X47990476Y-38947619D01*
X48704761Y-38852380D02*
X48228571Y-38852380D01*
X48228571Y-37852380D01*
X49180952Y-38852380D02*
X49085714Y-38804761D01*
X49038095Y-38757142D01*
X48990476Y-38661904D01*
X48990476Y-38376190D01*
X49038095Y-38280952D01*
X49085714Y-38233333D01*
X49180952Y-38185714D01*
X49323809Y-38185714D01*
X49419047Y-38233333D01*
X49466666Y-38280952D01*
X49514285Y-38376190D01*
X49514285Y-38661904D01*
X49466666Y-38757142D01*
X49419047Y-38804761D01*
X49323809Y-38852380D01*
X49180952Y-38852380D01*
X50371428Y-38852380D02*
X50371428Y-38328571D01*
X50323809Y-38233333D01*
X50228571Y-38185714D01*
X50038095Y-38185714D01*
X49942857Y-38233333D01*
X50371428Y-38804761D02*
X50276190Y-38852380D01*
X50038095Y-38852380D01*
X49942857Y-38804761D01*
X49895238Y-38709523D01*
X49895238Y-38614285D01*
X49942857Y-38519047D01*
X50038095Y-38471428D01*
X50276190Y-38471428D01*
X50371428Y-38423809D01*
X51276190Y-38852380D02*
X51276190Y-37852380D01*
X51276190Y-38804761D02*
X51180952Y-38852380D01*
X50990476Y-38852380D01*
X50895238Y-38804761D01*
X50847619Y-38757142D01*
X50800000Y-38661904D01*
X50800000Y-38376190D01*
X50847619Y-38280952D01*
X50895238Y-38233333D01*
X50990476Y-38185714D01*
X51180952Y-38185714D01*
X51276190Y-38233333D01*
X51514285Y-38947619D02*
X52276190Y-38947619D01*
X53038095Y-38852380D02*
X52466666Y-38852380D01*
X52752380Y-38852380D02*
X52752380Y-37852380D01*
X52657142Y-37995238D01*
X52561904Y-38090476D01*
X52466666Y-38138095D01*
X46466666Y-33352380D02*
X46800000Y-34352380D01*
X47133333Y-33352380D01*
X47228571Y-34447619D02*
X47990476Y-34447619D01*
X48704761Y-34352380D02*
X48228571Y-34352380D01*
X48228571Y-33352380D01*
X49180952Y-34352380D02*
X49085714Y-34304761D01*
X49038095Y-34257142D01*
X48990476Y-34161904D01*
X48990476Y-33876190D01*
X49038095Y-33780952D01*
X49085714Y-33733333D01*
X49180952Y-33685714D01*
X49323809Y-33685714D01*
X49419047Y-33733333D01*
X49466666Y-33780952D01*
X49514285Y-33876190D01*
X49514285Y-34161904D01*
X49466666Y-34257142D01*
X49419047Y-34304761D01*
X49323809Y-34352380D01*
X49180952Y-34352380D01*
X50371428Y-34352380D02*
X50371428Y-33828571D01*
X50323809Y-33733333D01*
X50228571Y-33685714D01*
X50038095Y-33685714D01*
X49942857Y-33733333D01*
X50371428Y-34304761D02*
X50276190Y-34352380D01*
X50038095Y-34352380D01*
X49942857Y-34304761D01*
X49895238Y-34209523D01*
X49895238Y-34114285D01*
X49942857Y-34019047D01*
X50038095Y-33971428D01*
X50276190Y-33971428D01*
X50371428Y-33923809D01*
X51276190Y-34352380D02*
X51276190Y-33352380D01*
X51276190Y-34304761D02*
X51180952Y-34352380D01*
X50990476Y-34352380D01*
X50895238Y-34304761D01*
X50847619Y-34257142D01*
X50800000Y-34161904D01*
X50800000Y-33876190D01*
X50847619Y-33780952D01*
X50895238Y-33733333D01*
X50990476Y-33685714D01*
X51180952Y-33685714D01*
X51276190Y-33733333D01*
X51514285Y-34447619D02*
X52276190Y-34447619D01*
X52466666Y-33447619D02*
X52514285Y-33400000D01*
X52609523Y-33352380D01*
X52847619Y-33352380D01*
X52942857Y-33400000D01*
X52990476Y-33447619D01*
X53038095Y-33542857D01*
X53038095Y-33638095D01*
X52990476Y-33780952D01*
X52419047Y-34352380D01*
X53038095Y-34352380D01*
X111697619Y-37102380D02*
X112030952Y-38102380D01*
X112364285Y-37102380D01*
X112459523Y-38197619D02*
X113221428Y-38197619D01*
X114030952Y-38102380D02*
X113697619Y-37626190D01*
X113459523Y-38102380D02*
X113459523Y-37102380D01*
X113840476Y-37102380D01*
X113935714Y-37150000D01*
X113983333Y-37197619D01*
X114030952Y-37292857D01*
X114030952Y-37435714D01*
X113983333Y-37530952D01*
X113935714Y-37578571D01*
X113840476Y-37626190D01*
X113459523Y-37626190D01*
X114459523Y-37578571D02*
X114792857Y-37578571D01*
X114935714Y-38102380D02*
X114459523Y-38102380D01*
X114459523Y-37102380D01*
X114935714Y-37102380D01*
X115697619Y-37578571D02*
X115364285Y-37578571D01*
X115364285Y-38102380D02*
X115364285Y-37102380D01*
X115840476Y-37102380D01*
X115983333Y-38197619D02*
X116745238Y-38197619D01*
X117459523Y-37102380D02*
X116983333Y-37102380D01*
X116935714Y-37578571D01*
X116983333Y-37530952D01*
X117078571Y-37483333D01*
X117316666Y-37483333D01*
X117411904Y-37530952D01*
X117459523Y-37578571D01*
X117507142Y-37673809D01*
X117507142Y-37911904D01*
X117459523Y-38007142D01*
X117411904Y-38054761D01*
X117316666Y-38102380D01*
X117078571Y-38102380D01*
X116983333Y-38054761D01*
X116935714Y-38007142D01*
X98697619Y-37302380D02*
X99030952Y-38302380D01*
X99364285Y-37302380D01*
X99459523Y-38397619D02*
X100221428Y-38397619D01*
X101030952Y-38302380D02*
X100697619Y-37826190D01*
X100459523Y-38302380D02*
X100459523Y-37302380D01*
X100840476Y-37302380D01*
X100935714Y-37350000D01*
X100983333Y-37397619D01*
X101030952Y-37492857D01*
X101030952Y-37635714D01*
X100983333Y-37730952D01*
X100935714Y-37778571D01*
X100840476Y-37826190D01*
X100459523Y-37826190D01*
X101459523Y-37778571D02*
X101792857Y-37778571D01*
X101935714Y-38302380D02*
X101459523Y-38302380D01*
X101459523Y-37302380D01*
X101935714Y-37302380D01*
X102697619Y-37778571D02*
X102364285Y-37778571D01*
X102364285Y-38302380D02*
X102364285Y-37302380D01*
X102840476Y-37302380D01*
X102983333Y-38397619D02*
X103745238Y-38397619D01*
X104411904Y-37635714D02*
X104411904Y-38302380D01*
X104173809Y-37254761D02*
X103935714Y-37969047D01*
X104554761Y-37969047D01*
X82647619Y-37302380D02*
X82980952Y-38302380D01*
X83314285Y-37302380D01*
X83409523Y-38397619D02*
X84171428Y-38397619D01*
X84980952Y-38302380D02*
X84647619Y-37826190D01*
X84409523Y-38302380D02*
X84409523Y-37302380D01*
X84790476Y-37302380D01*
X84885714Y-37350000D01*
X84933333Y-37397619D01*
X84980952Y-37492857D01*
X84980952Y-37635714D01*
X84933333Y-37730952D01*
X84885714Y-37778571D01*
X84790476Y-37826190D01*
X84409523Y-37826190D01*
X85409523Y-37778571D02*
X85742857Y-37778571D01*
X85885714Y-38302380D02*
X85409523Y-38302380D01*
X85409523Y-37302380D01*
X85885714Y-37302380D01*
X86647619Y-37778571D02*
X86314285Y-37778571D01*
X86314285Y-38302380D02*
X86314285Y-37302380D01*
X86790476Y-37302380D01*
X86933333Y-38397619D02*
X87695238Y-38397619D01*
X87838095Y-37302380D02*
X88457142Y-37302380D01*
X88123809Y-37683333D01*
X88266666Y-37683333D01*
X88361904Y-37730952D01*
X88409523Y-37778571D01*
X88457142Y-37873809D01*
X88457142Y-38111904D01*
X88409523Y-38207142D01*
X88361904Y-38254761D01*
X88266666Y-38302380D01*
X87980952Y-38302380D01*
X87885714Y-38254761D01*
X87838095Y-38207142D01*
X66047619Y-36852380D02*
X66380952Y-37852380D01*
X66714285Y-36852380D01*
X66809523Y-37947619D02*
X67571428Y-37947619D01*
X68380952Y-37852380D02*
X68047619Y-37376190D01*
X67809523Y-37852380D02*
X67809523Y-36852380D01*
X68190476Y-36852380D01*
X68285714Y-36900000D01*
X68333333Y-36947619D01*
X68380952Y-37042857D01*
X68380952Y-37185714D01*
X68333333Y-37280952D01*
X68285714Y-37328571D01*
X68190476Y-37376190D01*
X67809523Y-37376190D01*
X68809523Y-37328571D02*
X69142857Y-37328571D01*
X69285714Y-37852380D02*
X68809523Y-37852380D01*
X68809523Y-36852380D01*
X69285714Y-36852380D01*
X70047619Y-37328571D02*
X69714285Y-37328571D01*
X69714285Y-37852380D02*
X69714285Y-36852380D01*
X70190476Y-36852380D01*
X70333333Y-37947619D02*
X71095238Y-37947619D01*
X71285714Y-36947619D02*
X71333333Y-36900000D01*
X71428571Y-36852380D01*
X71666666Y-36852380D01*
X71761904Y-36900000D01*
X71809523Y-36947619D01*
X71857142Y-37042857D01*
X71857142Y-37138095D01*
X71809523Y-37280952D01*
X71238095Y-37852380D01*
X71857142Y-37852380D01*
X55047619Y-36852380D02*
X55380952Y-37852380D01*
X55714285Y-36852380D01*
X55809523Y-37947619D02*
X56571428Y-37947619D01*
X57380952Y-37852380D02*
X57047619Y-37376190D01*
X56809523Y-37852380D02*
X56809523Y-36852380D01*
X57190476Y-36852380D01*
X57285714Y-36900000D01*
X57333333Y-36947619D01*
X57380952Y-37042857D01*
X57380952Y-37185714D01*
X57333333Y-37280952D01*
X57285714Y-37328571D01*
X57190476Y-37376190D01*
X56809523Y-37376190D01*
X57809523Y-37328571D02*
X58142857Y-37328571D01*
X58285714Y-37852380D02*
X57809523Y-37852380D01*
X57809523Y-36852380D01*
X58285714Y-36852380D01*
X59047619Y-37328571D02*
X58714285Y-37328571D01*
X58714285Y-37852380D02*
X58714285Y-36852380D01*
X59190476Y-36852380D01*
X59333333Y-37947619D02*
X60095238Y-37947619D01*
X60857142Y-37852380D02*
X60285714Y-37852380D01*
X60571428Y-37852380D02*
X60571428Y-36852380D01*
X60476190Y-36995238D01*
X60380952Y-37090476D01*
X60285714Y-37138095D01*
D12*
X38314285Y-55828571D02*
X38814285Y-57328571D01*
X39314285Y-55828571D01*
X40028571Y-57328571D02*
X39885714Y-57257142D01*
X39814285Y-57185714D01*
X39742857Y-57042857D01*
X39742857Y-56614285D01*
X39814285Y-56471428D01*
X39885714Y-56400000D01*
X40028571Y-56328571D01*
X40242857Y-56328571D01*
X40385714Y-56400000D01*
X40457142Y-56471428D01*
X40528571Y-56614285D01*
X40528571Y-57042857D01*
X40457142Y-57185714D01*
X40385714Y-57257142D01*
X40242857Y-57328571D01*
X40028571Y-57328571D01*
X41814285Y-56328571D02*
X41814285Y-57328571D01*
X41171428Y-56328571D02*
X41171428Y-57114285D01*
X41242857Y-57257142D01*
X41385714Y-57328571D01*
X41600000Y-57328571D01*
X41742857Y-57257142D01*
X41814285Y-57185714D01*
X42314285Y-56328571D02*
X42885714Y-56328571D01*
X42528571Y-55828571D02*
X42528571Y-57114285D01*
X42600000Y-57257142D01*
X42742857Y-57328571D01*
X42885714Y-57328571D01*
X39457142Y-51950000D02*
X39314285Y-51878571D01*
X39100000Y-51878571D01*
X38885714Y-51950000D01*
X38742857Y-52092857D01*
X38671428Y-52235714D01*
X38600000Y-52521428D01*
X38600000Y-52735714D01*
X38671428Y-53021428D01*
X38742857Y-53164285D01*
X38885714Y-53307142D01*
X39100000Y-53378571D01*
X39242857Y-53378571D01*
X39457142Y-53307142D01*
X39528571Y-53235714D01*
X39528571Y-52735714D01*
X39242857Y-52735714D01*
X40171428Y-53378571D02*
X40171428Y-51878571D01*
X41028571Y-53378571D01*
X41028571Y-51878571D01*
X41742857Y-53378571D02*
X41742857Y-51878571D01*
X42100000Y-51878571D01*
X42314285Y-51950000D01*
X42457142Y-52092857D01*
X42528571Y-52235714D01*
X42600000Y-52521428D01*
X42600000Y-52735714D01*
X42528571Y-53021428D01*
X42457142Y-53164285D01*
X42314285Y-53307142D01*
X42100000Y-53378571D01*
X41742857Y-53378571D01*
X38814285Y-47228571D02*
X39314285Y-48728571D01*
X39814285Y-47228571D01*
X40314285Y-48728571D02*
X40314285Y-47728571D01*
X40314285Y-47228571D02*
X40242857Y-47300000D01*
X40314285Y-47371428D01*
X40385714Y-47300000D01*
X40314285Y-47228571D01*
X40314285Y-47371428D01*
X41028571Y-47728571D02*
X41028571Y-48728571D01*
X41028571Y-47871428D02*
X41100000Y-47800000D01*
X41242857Y-47728571D01*
X41457142Y-47728571D01*
X41600000Y-47800000D01*
X41671428Y-47942857D01*
X41671428Y-48728571D01*
X38264285Y-44828571D02*
X38264285Y-43328571D01*
X38835714Y-43328571D01*
X38978571Y-43400000D01*
X39050000Y-43471428D01*
X39121428Y-43614285D01*
X39121428Y-43828571D01*
X39050000Y-43971428D01*
X38978571Y-44042857D01*
X38835714Y-44114285D01*
X38264285Y-44114285D01*
X39978571Y-44828571D02*
X39835714Y-44757142D01*
X39764285Y-44685714D01*
X39692857Y-44542857D01*
X39692857Y-44114285D01*
X39764285Y-43971428D01*
X39835714Y-43900000D01*
X39978571Y-43828571D01*
X40192857Y-43828571D01*
X40335714Y-43900000D01*
X40407142Y-43971428D01*
X40478571Y-44114285D01*
X40478571Y-44542857D01*
X40407142Y-44685714D01*
X40335714Y-44757142D01*
X40192857Y-44828571D01*
X39978571Y-44828571D01*
X41050000Y-44757142D02*
X41192857Y-44828571D01*
X41478571Y-44828571D01*
X41621428Y-44757142D01*
X41692857Y-44614285D01*
X41692857Y-44542857D01*
X41621428Y-44400000D01*
X41478571Y-44328571D01*
X41264285Y-44328571D01*
X41121428Y-44257142D01*
X41050000Y-44114285D01*
X41050000Y-44042857D01*
X41121428Y-43900000D01*
X41264285Y-43828571D01*
X41478571Y-43828571D01*
X41621428Y-43900000D01*
X42335714Y-44685714D02*
X42407142Y-44757142D01*
X42335714Y-44828571D01*
X42264285Y-44757142D01*
X42335714Y-44685714D01*
X42335714Y-44828571D01*
X43978571Y-43328571D02*
X44478571Y-44828571D01*
X44978571Y-43328571D01*
X45478571Y-44828571D02*
X45478571Y-43828571D01*
X45478571Y-44114285D02*
X45550000Y-43971428D01*
X45621428Y-43900000D01*
X45764285Y-43828571D01*
X45907142Y-43828571D01*
X46978571Y-44757142D02*
X46835714Y-44828571D01*
X46550000Y-44828571D01*
X46407142Y-44757142D01*
X46335714Y-44614285D01*
X46335714Y-44042857D01*
X46407142Y-43900000D01*
X46550000Y-43828571D01*
X46835714Y-43828571D01*
X46978571Y-43900000D01*
X47050000Y-44042857D01*
X47050000Y-44185714D01*
X46335714Y-44328571D01*
X47478571Y-43828571D02*
X48050000Y-43828571D01*
X47692857Y-44828571D02*
X47692857Y-43542857D01*
X47764285Y-43400000D01*
X47907142Y-43328571D01*
X48050000Y-43328571D01*
D13*
X110200000Y-43100000D02*
G75*
G02X109400000Y-43100000I-400000J50000D01*
G01*
X110700000Y-59400000D02*
G75*
G02X109900000Y-59400000I-400000J50000D01*
G01*
X91450000Y-58950000D02*
G75*
G02X90650000Y-58950000I-400000J50000D01*
G01*
X54500000Y-59050000D02*
G75*
G02X53700000Y-59050000I-400000J50000D01*
G01*
X91350000Y-42900000D02*
G75*
G02X90550000Y-42900000I-400000J50000D01*
G01*
X73000000Y-42700000D02*
G75*
G02X72200000Y-42700000I-400000J50000D01*
G01*
X55050000Y-42750000D02*
G75*
G02X54250000Y-42750000I-400000J50000D01*
G01*
X73050000Y-58950000D02*
G75*
G02X72250000Y-58950000I-400000J50000D01*
G01*
D12*
X128685714Y-96178571D02*
X129542857Y-96178571D01*
X129114285Y-97678571D02*
X129114285Y-96178571D01*
X130328571Y-96178571D02*
X130614285Y-96178571D01*
X130757142Y-96250000D01*
X130900000Y-96392857D01*
X130971428Y-96678571D01*
X130971428Y-97178571D01*
X130900000Y-97464285D01*
X130757142Y-97607142D01*
X130614285Y-97678571D01*
X130328571Y-97678571D01*
X130185714Y-97607142D01*
X130042857Y-97464285D01*
X129971428Y-97178571D01*
X129971428Y-96678571D01*
X130042857Y-96392857D01*
X130185714Y-96250000D01*
X130328571Y-96178571D01*
X131614285Y-97678571D02*
X131614285Y-96178571D01*
X132185714Y-96178571D01*
X132328571Y-96250000D01*
X132400000Y-96321428D01*
X132471428Y-96464285D01*
X132471428Y-96678571D01*
X132400000Y-96821428D01*
X132328571Y-96892857D01*
X132185714Y-96964285D01*
X131614285Y-96964285D01*
D14*
G04 #@! TO.C,U7*
X106089500Y-54978000D02*
X113455500Y-54978000D01*
X113455500Y-54978000D02*
X113455500Y-54269551D01*
X113455500Y-43040000D02*
X106089500Y-43040000D01*
X106089500Y-43040000D02*
X106089500Y-43659760D01*
X106089500Y-45976240D02*
X106089500Y-46542449D01*
X106089500Y-48681551D02*
X106089500Y-49336449D01*
X106089500Y-51475551D02*
X106089500Y-52130449D01*
X106089500Y-54269551D02*
X106089500Y-54978000D01*
X113455500Y-52130449D02*
X113455500Y-51475551D01*
X113455500Y-49336449D02*
X113455500Y-48681551D01*
X113455500Y-46542449D02*
X113455500Y-45887551D01*
X113455500Y-43748449D02*
X113455500Y-43040000D01*
G04 #@! TO.C,R14*
X133752500Y-57000000D02*
X132561240Y-57000000D01*
X133117500Y-57635000D02*
X133117500Y-56365000D01*
X129091600Y-55564900D02*
X122538400Y-55564900D01*
X122538400Y-55564900D02*
X122538400Y-58435100D01*
X122538400Y-58435100D02*
X129091600Y-58435100D01*
X129091600Y-58435100D02*
X129091600Y-55564900D01*
G04 #@! TO.C,U11*
X122662599Y-61572997D02*
G75*
G02X122662600Y-61827000I-278679J-127003D01*
G01*
G04 #@! TO.C,R9*
X121550000Y-54552500D02*
X121550000Y-53361240D01*
X120915000Y-53917500D02*
X122185000Y-53917500D01*
X122985100Y-49891600D02*
X122985100Y-43338400D01*
X122985100Y-43338400D02*
X120114900Y-43338400D01*
X120114900Y-43338400D02*
X120114900Y-49891600D01*
X120114900Y-49891600D02*
X122985100Y-49891600D01*
D15*
G04 #@! TO.C,C4*
X61245000Y-82320000D02*
X60930000Y-82320000D01*
X63670000Y-82320000D02*
X63355000Y-82320000D01*
X61245000Y-77080000D02*
X60930000Y-77080000D01*
X63670000Y-77080000D02*
X63355000Y-77080000D01*
X60930000Y-77080000D02*
X60930000Y-82320000D01*
X63670000Y-77080000D02*
X63670000Y-82320000D01*
D14*
G04 #@! TO.C,L1*
X85850000Y-73220300D02*
X85850000Y-74490300D01*
X86485000Y-73855300D02*
X85215000Y-73855300D01*
X90587100Y-79354400D02*
G75*
G03X90587100Y-79354400I-4737100J0D01*
G01*
G04 #@! TO.C,R13*
X93997500Y-86600000D02*
X95188760Y-86600000D01*
X94632500Y-85965000D02*
X94632500Y-87235000D01*
X98658400Y-88035100D02*
X105211600Y-88035100D01*
X105211600Y-88035100D02*
X105211600Y-85164900D01*
X105211600Y-85164900D02*
X98658400Y-85164900D01*
X98658400Y-85164900D02*
X98658400Y-88035100D01*
G04 #@! TO.C,U6*
X87239500Y-54778000D02*
X94605500Y-54778000D01*
X94605500Y-54778000D02*
X94605500Y-54069551D01*
X94605500Y-42840000D02*
X87239500Y-42840000D01*
X87239500Y-42840000D02*
X87239500Y-43459760D01*
X87239500Y-45776240D02*
X87239500Y-46342449D01*
X87239500Y-48481551D02*
X87239500Y-49136449D01*
X87239500Y-51275551D02*
X87239500Y-51930449D01*
X87239500Y-54069551D02*
X87239500Y-54778000D01*
X94605500Y-51930449D02*
X94605500Y-51275551D01*
X94605500Y-49136449D02*
X94605500Y-48481551D01*
X94605500Y-46342449D02*
X94605500Y-45687551D01*
X94605500Y-43548449D02*
X94605500Y-42840000D01*
G04 #@! TO.C,R16*
X42000000Y-72602500D02*
X42000000Y-71411240D01*
X41365000Y-71967500D02*
X42635000Y-71967500D01*
X43435100Y-67941600D02*
X43435100Y-61388400D01*
X43435100Y-61388400D02*
X40564900Y-61388400D01*
X40564900Y-61388400D02*
X40564900Y-67941600D01*
X40564900Y-67941600D02*
X43435100Y-67941600D01*
G04 #@! TO.C,U4*
X50939500Y-54628000D02*
X58305500Y-54628000D01*
X58305500Y-54628000D02*
X58305500Y-53919551D01*
X58305500Y-42690000D02*
X50939500Y-42690000D01*
X50939500Y-42690000D02*
X50939500Y-43309760D01*
X50939500Y-45626240D02*
X50939500Y-46192449D01*
X50939500Y-48331551D02*
X50939500Y-48986449D01*
X50939500Y-51125551D02*
X50939500Y-51780449D01*
X50939500Y-53919551D02*
X50939500Y-54628000D01*
X58305500Y-51780449D02*
X58305500Y-51125551D01*
X58305500Y-48986449D02*
X58305500Y-48331551D01*
X58305500Y-46192449D02*
X58305500Y-45537551D01*
X58305500Y-43398449D02*
X58305500Y-42690000D01*
D15*
G04 #@! TO.C,C1*
X35195000Y-82220000D02*
X34880000Y-82220000D01*
X37620000Y-82220000D02*
X37305000Y-82220000D01*
X35195000Y-76980000D02*
X34880000Y-76980000D01*
X37620000Y-76980000D02*
X37305000Y-76980000D01*
X34880000Y-76980000D02*
X34880000Y-82220000D01*
X37620000Y-76980000D02*
X37620000Y-82220000D01*
G04 #@! TO.C,C2*
X40345000Y-82170000D02*
X40030000Y-82170000D01*
X42770000Y-82170000D02*
X42455000Y-82170000D01*
X40345000Y-76930000D02*
X40030000Y-76930000D01*
X42770000Y-76930000D02*
X42455000Y-76930000D01*
X40030000Y-76930000D02*
X40030000Y-82170000D01*
X42770000Y-76930000D02*
X42770000Y-82170000D01*
G04 #@! TO.C,C3*
X55695000Y-82320000D02*
X55380000Y-82320000D01*
X58120000Y-82320000D02*
X57805000Y-82320000D01*
X55695000Y-77080000D02*
X55380000Y-77080000D01*
X58120000Y-77080000D02*
X57805000Y-77080000D01*
X55380000Y-77080000D02*
X55380000Y-82320000D01*
X58120000Y-77080000D02*
X58120000Y-82320000D01*
G04 #@! TO.C,C5*
X66645000Y-82370000D02*
X66330000Y-82370000D01*
X69070000Y-82370000D02*
X68755000Y-82370000D01*
X66645000Y-77130000D02*
X66330000Y-77130000D01*
X69070000Y-77130000D02*
X68755000Y-77130000D01*
X66330000Y-77130000D02*
X66330000Y-82370000D01*
X69070000Y-77130000D02*
X69070000Y-82370000D01*
G04 #@! TO.C,C6*
X78855000Y-77130000D02*
X79170000Y-77130000D01*
X76430000Y-77130000D02*
X76745000Y-77130000D01*
X78855000Y-82370000D02*
X79170000Y-82370000D01*
X76430000Y-82370000D02*
X76745000Y-82370000D01*
X79170000Y-82370000D02*
X79170000Y-77130000D01*
X76430000Y-82370000D02*
X76430000Y-77130000D01*
G04 #@! TO.C,C7*
X102355000Y-77780000D02*
X102670000Y-77780000D01*
X99930000Y-77780000D02*
X100245000Y-77780000D01*
X102355000Y-83020000D02*
X102670000Y-83020000D01*
X99930000Y-83020000D02*
X100245000Y-83020000D01*
X102670000Y-83020000D02*
X102670000Y-77780000D01*
X99930000Y-83020000D02*
X99930000Y-77780000D01*
G04 #@! TO.C,C8*
X126045000Y-82820000D02*
X125730000Y-82820000D01*
X128470000Y-82820000D02*
X128155000Y-82820000D01*
X126045000Y-77580000D02*
X125730000Y-77580000D01*
X128470000Y-77580000D02*
X128155000Y-77580000D01*
X125730000Y-77580000D02*
X125730000Y-82820000D01*
X128470000Y-77580000D02*
X128470000Y-82820000D01*
G04 #@! TO.C,J1*
X37381600Y-47606600D02*
X37381600Y-48936600D01*
X36051600Y-47606600D02*
X37381600Y-47606600D01*
X34781600Y-47606600D02*
X34781600Y-50266600D01*
X34781600Y-50266600D02*
X34721600Y-50266600D01*
X34781600Y-47606600D02*
X34721600Y-47606600D01*
X34721600Y-47606600D02*
X34721600Y-50266600D01*
G04 #@! TO.C,J2*
X37281600Y-42906600D02*
X37281600Y-44236600D01*
X35951600Y-42906600D02*
X37281600Y-42906600D01*
X34681600Y-42906600D02*
X34681600Y-45566600D01*
X34681600Y-45566600D02*
X34621600Y-45566600D01*
X34681600Y-42906600D02*
X34621600Y-42906600D01*
X34621600Y-42906600D02*
X34621600Y-45566600D01*
G04 #@! TO.C,J3*
X37381600Y-56956600D02*
X37381600Y-58286600D01*
X36051600Y-56956600D02*
X37381600Y-56956600D01*
X34781600Y-56956600D02*
X34781600Y-59616600D01*
X34781600Y-59616600D02*
X34721600Y-59616600D01*
X34781600Y-56956600D02*
X34721600Y-56956600D01*
X34721600Y-56956600D02*
X34721600Y-59616600D01*
G04 #@! TO.C,J4*
X37431600Y-52256600D02*
X37431600Y-53586600D01*
X36101600Y-52256600D02*
X37431600Y-52256600D01*
X34831600Y-52256600D02*
X34831600Y-54916600D01*
X34831600Y-54916600D02*
X34771600Y-54916600D01*
X34831600Y-52256600D02*
X34771600Y-52256600D01*
X34771600Y-52256600D02*
X34771600Y-54916600D01*
D14*
G04 #@! TO.C,L2*
X130200000Y-63820300D02*
X130200000Y-65090300D01*
X130835000Y-64455300D02*
X129565000Y-64455300D01*
X134937100Y-69954400D02*
G75*
G03X134937100Y-69954400I-4737100J0D01*
G01*
G04 #@! TO.C,R1*
X33247500Y-34000000D02*
X34438760Y-34000000D01*
X33882500Y-33365000D02*
X33882500Y-34635000D01*
X37908400Y-35435100D02*
X44461600Y-35435100D01*
X44461600Y-35435100D02*
X44461600Y-32564900D01*
X44461600Y-32564900D02*
X37908400Y-32564900D01*
X37908400Y-32564900D02*
X37908400Y-35435100D01*
G04 #@! TO.C,R3*
X33147500Y-38600000D02*
X34338760Y-38600000D01*
X33782500Y-37965000D02*
X33782500Y-39235000D01*
X37808400Y-40035100D02*
X44361600Y-40035100D01*
X44361600Y-40035100D02*
X44361600Y-37164900D01*
X44361600Y-37164900D02*
X37808400Y-37164900D01*
X37808400Y-37164900D02*
X37808400Y-40035100D01*
G04 #@! TO.C,R4*
X68452500Y-34100000D02*
X67261240Y-34100000D01*
X67817500Y-34735000D02*
X67817500Y-33465000D01*
X63791600Y-32664900D02*
X57238400Y-32664900D01*
X57238400Y-32664900D02*
X57238400Y-35535100D01*
X57238400Y-35535100D02*
X63791600Y-35535100D01*
X63791600Y-35535100D02*
X63791600Y-32664900D01*
G04 #@! TO.C,R5*
X84802500Y-34150000D02*
X83611240Y-34150000D01*
X84167500Y-34785000D02*
X84167500Y-33515000D01*
X80141600Y-32714900D02*
X73588400Y-32714900D01*
X73588400Y-32714900D02*
X73588400Y-35585100D01*
X73588400Y-35585100D02*
X80141600Y-35585100D01*
X80141600Y-35585100D02*
X80141600Y-32714900D01*
G04 #@! TO.C,R6*
X101402500Y-34200000D02*
X100211240Y-34200000D01*
X100767500Y-34835000D02*
X100767500Y-33565000D01*
X96741600Y-32764900D02*
X90188400Y-32764900D01*
X90188400Y-32764900D02*
X90188400Y-35635100D01*
X90188400Y-35635100D02*
X96741600Y-35635100D01*
X96741600Y-35635100D02*
X96741600Y-32764900D01*
G04 #@! TO.C,R7*
X117752500Y-34300000D02*
X116561240Y-34300000D01*
X117117500Y-34935000D02*
X117117500Y-33665000D01*
X113091600Y-32864900D02*
X106538400Y-32864900D01*
X106538400Y-32864900D02*
X106538400Y-35735100D01*
X106538400Y-35735100D02*
X113091600Y-35735100D01*
X113091600Y-35735100D02*
X113091600Y-32864900D01*
G04 #@! TO.C,R8*
X72900000Y-90902500D02*
X72900000Y-89711240D01*
X72265000Y-90267500D02*
X73535000Y-90267500D01*
X74335100Y-86241600D02*
X74335100Y-79688400D01*
X74335100Y-79688400D02*
X71464900Y-79688400D01*
X71464900Y-79688400D02*
X71464900Y-86241600D01*
X71464900Y-86241600D02*
X74335100Y-86241600D01*
G04 #@! TO.C,R10*
X130300000Y-38747500D02*
X130300000Y-39938760D01*
X130935000Y-39382500D02*
X129665000Y-39382500D01*
X128864900Y-43408400D02*
X128864900Y-49961600D01*
X128864900Y-49961600D02*
X131735100Y-49961600D01*
X131735100Y-49961600D02*
X131735100Y-43408400D01*
X131735100Y-43408400D02*
X128864900Y-43408400D01*
G04 #@! TO.C,R11*
X125750000Y-54602500D02*
X125750000Y-53411240D01*
X125115000Y-53967500D02*
X126385000Y-53967500D01*
X127185100Y-49941600D02*
X127185100Y-43388400D01*
X127185100Y-43388400D02*
X124314900Y-43388400D01*
X124314900Y-43388400D02*
X124314900Y-49941600D01*
X124314900Y-49941600D02*
X127185100Y-49941600D01*
G04 #@! TO.C,R12*
X110850000Y-91452500D02*
X110850000Y-90261240D01*
X110215000Y-90817500D02*
X111485000Y-90817500D01*
X112285100Y-86791600D02*
X112285100Y-80238400D01*
X112285100Y-80238400D02*
X109414900Y-80238400D01*
X109414900Y-80238400D02*
X109414900Y-86791600D01*
X109414900Y-86791600D02*
X112285100Y-86791600D01*
G04 #@! TO.C,R15*
X115000000Y-75547500D02*
X115000000Y-76738760D01*
X115635000Y-76182500D02*
X114365000Y-76182500D01*
X113564900Y-80208400D02*
X113564900Y-86761600D01*
X113564900Y-86761600D02*
X116435100Y-86761600D01*
X116435100Y-86761600D02*
X116435100Y-80208400D01*
X116435100Y-80208400D02*
X113564900Y-80208400D01*
G04 #@! TO.C,U1*
X50539500Y-70928000D02*
X57905500Y-70928000D01*
X57905500Y-70928000D02*
X57905500Y-70219551D01*
X57905500Y-58990000D02*
X50539500Y-58990000D01*
X50539500Y-58990000D02*
X50539500Y-59609760D01*
X50539500Y-61926240D02*
X50539500Y-62492449D01*
X50539500Y-64631551D02*
X50539500Y-65286449D01*
X50539500Y-67425551D02*
X50539500Y-68080449D01*
X50539500Y-70219551D02*
X50539500Y-70928000D01*
X57905500Y-68080449D02*
X57905500Y-67425551D01*
X57905500Y-65286449D02*
X57905500Y-64631551D01*
X57905500Y-62492449D02*
X57905500Y-61837551D01*
X57905500Y-59698449D02*
X57905500Y-58990000D01*
G04 #@! TO.C,U2*
X68989500Y-70828000D02*
X76355500Y-70828000D01*
X76355500Y-70828000D02*
X76355500Y-70119551D01*
X76355500Y-58890000D02*
X68989500Y-58890000D01*
X68989500Y-58890000D02*
X68989500Y-59509760D01*
X68989500Y-61826240D02*
X68989500Y-62392449D01*
X68989500Y-64531551D02*
X68989500Y-65186449D01*
X68989500Y-67325551D02*
X68989500Y-67980449D01*
X68989500Y-70119551D02*
X68989500Y-70828000D01*
X76355500Y-67980449D02*
X76355500Y-67325551D01*
X76355500Y-65186449D02*
X76355500Y-64531551D01*
X76355500Y-62392449D02*
X76355500Y-61737551D01*
X76355500Y-59598449D02*
X76355500Y-58890000D01*
G04 #@! TO.C,U3*
X87389500Y-70828000D02*
X94755500Y-70828000D01*
X94755500Y-70828000D02*
X94755500Y-70119551D01*
X94755500Y-58890000D02*
X87389500Y-58890000D01*
X87389500Y-58890000D02*
X87389500Y-59509760D01*
X87389500Y-61826240D02*
X87389500Y-62392449D01*
X87389500Y-64531551D02*
X87389500Y-65186449D01*
X87389500Y-67325551D02*
X87389500Y-67980449D01*
X87389500Y-70119551D02*
X87389500Y-70828000D01*
X94755500Y-67980449D02*
X94755500Y-67325551D01*
X94755500Y-65186449D02*
X94755500Y-64531551D01*
X94755500Y-62392449D02*
X94755500Y-61737551D01*
X94755500Y-59598449D02*
X94755500Y-58890000D01*
G04 #@! TO.C,U5*
X68989500Y-54578000D02*
X76355500Y-54578000D01*
X76355500Y-54578000D02*
X76355500Y-53869551D01*
X76355500Y-42640000D02*
X68989500Y-42640000D01*
X68989500Y-42640000D02*
X68989500Y-43259760D01*
X68989500Y-45576240D02*
X68989500Y-46142449D01*
X68989500Y-48281551D02*
X68989500Y-48936449D01*
X68989500Y-51075551D02*
X68989500Y-51730449D01*
X68989500Y-53869551D02*
X68989500Y-54578000D01*
X76355500Y-51730449D02*
X76355500Y-51075551D01*
X76355500Y-48936449D02*
X76355500Y-48281551D01*
X76355500Y-46142449D02*
X76355500Y-45487551D01*
X76355500Y-43348449D02*
X76355500Y-42640000D01*
G04 #@! TO.C,U8*
X106589500Y-71278000D02*
X113955500Y-71278000D01*
X113955500Y-71278000D02*
X113955500Y-70569551D01*
X113955500Y-59340000D02*
X106589500Y-59340000D01*
X106589500Y-59340000D02*
X106589500Y-59959760D01*
X106589500Y-62276240D02*
X106589500Y-62842449D01*
X106589500Y-64981551D02*
X106589500Y-65636449D01*
X106589500Y-67775551D02*
X106589500Y-68430449D01*
X106589500Y-70569551D02*
X106589500Y-71278000D01*
X113955500Y-68430449D02*
X113955500Y-67775551D01*
X113955500Y-65636449D02*
X113955500Y-64981551D01*
X113955500Y-62842449D02*
X113955500Y-62187551D01*
X113955500Y-60048449D02*
X113955500Y-59340000D01*
G04 #@! TO.C,U9*
X47223600Y-80976400D02*
X50576400Y-80976400D01*
X50576400Y-80976400D02*
X50576400Y-80823639D01*
X50576400Y-77623600D02*
X47223600Y-77623600D01*
X47223600Y-77623600D02*
X47223600Y-77776361D01*
X47223600Y-80823639D02*
X47223600Y-80976400D01*
X50576400Y-77776361D02*
X50576400Y-77623600D01*
G04 #@! TO.C,U10*
X96490742Y-81524508D02*
X96490742Y-79517908D01*
X93341142Y-79517908D02*
X93341142Y-81524508D01*
D15*
G04 #@! TO.C,Neg. Vref*
X134670000Y-63180000D02*
X137330000Y-63180000D01*
X134670000Y-63060000D02*
X134670000Y-63180000D01*
X137330000Y-63060000D02*
X137330000Y-63180000D01*
X137330000Y-60520000D02*
X137330000Y-61850000D01*
X136000000Y-60520000D02*
X137330000Y-60520000D01*
G04 #@! TO.C,I5*
X63650000Y-39770000D02*
X64980000Y-39770000D01*
X64980000Y-39770000D02*
X64980000Y-41100000D01*
X64980000Y-42310000D02*
X64980000Y-42430000D01*
X62320000Y-42310000D02*
X62320000Y-42430000D01*
X62320000Y-42430000D02*
X64980000Y-42430000D01*
G04 #@! TO.C,Pos. Vref_Charged*
X57020000Y-88980000D02*
X59680000Y-88980000D01*
X57020000Y-88860000D02*
X57020000Y-88980000D01*
X59680000Y-88860000D02*
X59680000Y-88980000D01*
X59680000Y-86320000D02*
X59680000Y-87650000D01*
X58350000Y-86320000D02*
X59680000Y-86320000D01*
G04 #@! TO.C,U7*
D16*
X108888095Y-41202380D02*
X108888095Y-42011904D01*
X108935714Y-42107142D01*
X108983333Y-42154761D01*
X109078571Y-42202380D01*
X109269047Y-42202380D01*
X109364285Y-42154761D01*
X109411904Y-42107142D01*
X109459523Y-42011904D01*
X109459523Y-41202380D01*
X109840476Y-41202380D02*
X110507142Y-41202380D01*
X110078571Y-42202380D01*
X105645000Y-42682880D02*
X105645000Y-42920976D01*
X105406904Y-42825738D02*
X105645000Y-42920976D01*
X105883095Y-42825738D01*
X105502142Y-43111452D02*
X105645000Y-42920976D01*
X105787857Y-43111452D01*
G04 #@! TO.C,R14*
X130707142Y-55852380D02*
X130373809Y-55376190D01*
X130135714Y-55852380D02*
X130135714Y-54852380D01*
X130516666Y-54852380D01*
X130611904Y-54900000D01*
X130659523Y-54947619D01*
X130707142Y-55042857D01*
X130707142Y-55185714D01*
X130659523Y-55280952D01*
X130611904Y-55328571D01*
X130516666Y-55376190D01*
X130135714Y-55376190D01*
X131659523Y-55852380D02*
X131088095Y-55852380D01*
X131373809Y-55852380D02*
X131373809Y-54852380D01*
X131278571Y-54995238D01*
X131183333Y-55090476D01*
X131088095Y-55138095D01*
X132516666Y-55185714D02*
X132516666Y-55852380D01*
X132278571Y-54804761D02*
X132040476Y-55519047D01*
X132659523Y-55519047D01*
X120100000Y-56452380D02*
X120100000Y-56690476D01*
X119861904Y-56595238D02*
X120100000Y-56690476D01*
X120338095Y-56595238D01*
X119957142Y-56880952D02*
X120100000Y-56690476D01*
X120242857Y-56880952D01*
G04 #@! TO.C,U11*
X125461904Y-61102380D02*
X125461904Y-61911904D01*
X125509523Y-62007142D01*
X125557142Y-62054761D01*
X125652380Y-62102380D01*
X125842857Y-62102380D01*
X125938095Y-62054761D01*
X125985714Y-62007142D01*
X126033333Y-61911904D01*
X126033333Y-61102380D01*
X127033333Y-62102380D02*
X126461904Y-62102380D01*
X126747619Y-62102380D02*
X126747619Y-61102380D01*
X126652380Y-61245238D01*
X126557142Y-61340476D01*
X126461904Y-61388095D01*
X127985714Y-62102380D02*
X127414285Y-62102380D01*
X127700000Y-62102380D02*
X127700000Y-61102380D01*
X127604761Y-61245238D01*
X127509523Y-61340476D01*
X127414285Y-61388095D01*
G04 #@! TO.C,R9*
X121333333Y-37602380D02*
X121000000Y-37126190D01*
X120761904Y-37602380D02*
X120761904Y-36602380D01*
X121142857Y-36602380D01*
X121238095Y-36650000D01*
X121285714Y-36697619D01*
X121333333Y-36792857D01*
X121333333Y-36935714D01*
X121285714Y-37030952D01*
X121238095Y-37078571D01*
X121142857Y-37126190D01*
X120761904Y-37126190D01*
X121809523Y-37602380D02*
X122000000Y-37602380D01*
X122095238Y-37554761D01*
X122142857Y-37507142D01*
X122238095Y-37364285D01*
X122285714Y-37173809D01*
X122285714Y-36792857D01*
X122238095Y-36697619D01*
X122190476Y-36650000D01*
X122095238Y-36602380D01*
X121904761Y-36602380D01*
X121809523Y-36650000D01*
X121761904Y-36697619D01*
X121714285Y-36792857D01*
X121714285Y-37030952D01*
X121761904Y-37126190D01*
X121809523Y-37173809D01*
X121904761Y-37221428D01*
X122095238Y-37221428D01*
X122190476Y-37173809D01*
X122238095Y-37126190D01*
X122285714Y-37030952D01*
X121002380Y-40900000D02*
X121240476Y-40900000D01*
X121145238Y-41138095D02*
X121240476Y-40900000D01*
X121145238Y-40661904D01*
X121430952Y-41042857D02*
X121240476Y-40900000D01*
X121430952Y-40757142D01*
G04 #@! TO.C,C4*
X62183333Y-75557142D02*
X62135714Y-75604761D01*
X61992857Y-75652380D01*
X61897619Y-75652380D01*
X61754761Y-75604761D01*
X61659523Y-75509523D01*
X61611904Y-75414285D01*
X61564285Y-75223809D01*
X61564285Y-75080952D01*
X61611904Y-74890476D01*
X61659523Y-74795238D01*
X61754761Y-74700000D01*
X61897619Y-74652380D01*
X61992857Y-74652380D01*
X62135714Y-74700000D01*
X62183333Y-74747619D01*
X63040476Y-74985714D02*
X63040476Y-75652380D01*
X62802380Y-74604761D02*
X62564285Y-75319047D01*
X63183333Y-75319047D01*
G04 #@! TO.C,L1*
X90433333Y-75352380D02*
X89957142Y-75352380D01*
X89957142Y-74352380D01*
X91290476Y-75352380D02*
X90719047Y-75352380D01*
X91004761Y-75352380D02*
X91004761Y-74352380D01*
X90909523Y-74495238D01*
X90814285Y-74590476D01*
X90719047Y-74638095D01*
X85302380Y-82250000D02*
X85540476Y-82250000D01*
X85445238Y-82488095D02*
X85540476Y-82250000D01*
X85445238Y-82011904D01*
X85730952Y-82392857D02*
X85540476Y-82250000D01*
X85730952Y-82107142D01*
G04 #@! TO.C,R13*
X98807142Y-90052380D02*
X98473809Y-89576190D01*
X98235714Y-90052380D02*
X98235714Y-89052380D01*
X98616666Y-89052380D01*
X98711904Y-89100000D01*
X98759523Y-89147619D01*
X98807142Y-89242857D01*
X98807142Y-89385714D01*
X98759523Y-89480952D01*
X98711904Y-89528571D01*
X98616666Y-89576190D01*
X98235714Y-89576190D01*
X99759523Y-90052380D02*
X99188095Y-90052380D01*
X99473809Y-90052380D02*
X99473809Y-89052380D01*
X99378571Y-89195238D01*
X99283333Y-89290476D01*
X99188095Y-89338095D01*
X100092857Y-89052380D02*
X100711904Y-89052380D01*
X100378571Y-89433333D01*
X100521428Y-89433333D01*
X100616666Y-89480952D01*
X100664285Y-89528571D01*
X100711904Y-89623809D01*
X100711904Y-89861904D01*
X100664285Y-89957142D01*
X100616666Y-90004761D01*
X100521428Y-90052380D01*
X100235714Y-90052380D01*
X100140476Y-90004761D01*
X100092857Y-89957142D01*
X107650000Y-86052380D02*
X107650000Y-86290476D01*
X107411904Y-86195238D02*
X107650000Y-86290476D01*
X107888095Y-86195238D01*
X107507142Y-86480952D02*
X107650000Y-86290476D01*
X107792857Y-86480952D01*
G04 #@! TO.C,U6*
X90338095Y-40902380D02*
X90338095Y-41711904D01*
X90385714Y-41807142D01*
X90433333Y-41854761D01*
X90528571Y-41902380D01*
X90719047Y-41902380D01*
X90814285Y-41854761D01*
X90861904Y-41807142D01*
X90909523Y-41711904D01*
X90909523Y-40902380D01*
X91814285Y-40902380D02*
X91623809Y-40902380D01*
X91528571Y-40950000D01*
X91480952Y-40997619D01*
X91385714Y-41140476D01*
X91338095Y-41330952D01*
X91338095Y-41711904D01*
X91385714Y-41807142D01*
X91433333Y-41854761D01*
X91528571Y-41902380D01*
X91719047Y-41902380D01*
X91814285Y-41854761D01*
X91861904Y-41807142D01*
X91909523Y-41711904D01*
X91909523Y-41473809D01*
X91861904Y-41378571D01*
X91814285Y-41330952D01*
X91719047Y-41283333D01*
X91528571Y-41283333D01*
X91433333Y-41330952D01*
X91385714Y-41378571D01*
X91338095Y-41473809D01*
X86795000Y-42482880D02*
X86795000Y-42720976D01*
X86556904Y-42625738D02*
X86795000Y-42720976D01*
X87033095Y-42625738D01*
X86652142Y-42911452D02*
X86795000Y-42720976D01*
X86937857Y-42911452D01*
G04 #@! TO.C,R16*
X43957142Y-60652380D02*
X43623809Y-60176190D01*
X43385714Y-60652380D02*
X43385714Y-59652380D01*
X43766666Y-59652380D01*
X43861904Y-59700000D01*
X43909523Y-59747619D01*
X43957142Y-59842857D01*
X43957142Y-59985714D01*
X43909523Y-60080952D01*
X43861904Y-60128571D01*
X43766666Y-60176190D01*
X43385714Y-60176190D01*
X44909523Y-60652380D02*
X44338095Y-60652380D01*
X44623809Y-60652380D02*
X44623809Y-59652380D01*
X44528571Y-59795238D01*
X44433333Y-59890476D01*
X44338095Y-59938095D01*
X45766666Y-59652380D02*
X45576190Y-59652380D01*
X45480952Y-59700000D01*
X45433333Y-59747619D01*
X45338095Y-59890476D01*
X45290476Y-60080952D01*
X45290476Y-60461904D01*
X45338095Y-60557142D01*
X45385714Y-60604761D01*
X45480952Y-60652380D01*
X45671428Y-60652380D01*
X45766666Y-60604761D01*
X45814285Y-60557142D01*
X45861904Y-60461904D01*
X45861904Y-60223809D01*
X45814285Y-60128571D01*
X45766666Y-60080952D01*
X45671428Y-60033333D01*
X45480952Y-60033333D01*
X45385714Y-60080952D01*
X45338095Y-60128571D01*
X45290476Y-60223809D01*
G04 #@! TO.C,U4*
X53838095Y-41102380D02*
X53838095Y-41911904D01*
X53885714Y-42007142D01*
X53933333Y-42054761D01*
X54028571Y-42102380D01*
X54219047Y-42102380D01*
X54314285Y-42054761D01*
X54361904Y-42007142D01*
X54409523Y-41911904D01*
X54409523Y-41102380D01*
X55314285Y-41435714D02*
X55314285Y-42102380D01*
X55076190Y-41054761D02*
X54838095Y-41769047D01*
X55457142Y-41769047D01*
X50495000Y-42332880D02*
X50495000Y-42570976D01*
X50256904Y-42475738D02*
X50495000Y-42570976D01*
X50733095Y-42475738D01*
X50352142Y-42761452D02*
X50495000Y-42570976D01*
X50637857Y-42761452D01*
G04 #@! TO.C,C1*
X36083333Y-75357142D02*
X36035714Y-75404761D01*
X35892857Y-75452380D01*
X35797619Y-75452380D01*
X35654761Y-75404761D01*
X35559523Y-75309523D01*
X35511904Y-75214285D01*
X35464285Y-75023809D01*
X35464285Y-74880952D01*
X35511904Y-74690476D01*
X35559523Y-74595238D01*
X35654761Y-74500000D01*
X35797619Y-74452380D01*
X35892857Y-74452380D01*
X36035714Y-74500000D01*
X36083333Y-74547619D01*
X37035714Y-75452380D02*
X36464285Y-75452380D01*
X36750000Y-75452380D02*
X36750000Y-74452380D01*
X36654761Y-74595238D01*
X36559523Y-74690476D01*
X36464285Y-74738095D01*
G04 #@! TO.C,C2*
X41283333Y-75257142D02*
X41235714Y-75304761D01*
X41092857Y-75352380D01*
X40997619Y-75352380D01*
X40854761Y-75304761D01*
X40759523Y-75209523D01*
X40711904Y-75114285D01*
X40664285Y-74923809D01*
X40664285Y-74780952D01*
X40711904Y-74590476D01*
X40759523Y-74495238D01*
X40854761Y-74400000D01*
X40997619Y-74352380D01*
X41092857Y-74352380D01*
X41235714Y-74400000D01*
X41283333Y-74447619D01*
X41664285Y-74447619D02*
X41711904Y-74400000D01*
X41807142Y-74352380D01*
X42045238Y-74352380D01*
X42140476Y-74400000D01*
X42188095Y-74447619D01*
X42235714Y-74542857D01*
X42235714Y-74638095D01*
X42188095Y-74780952D01*
X41616666Y-75352380D01*
X42235714Y-75352380D01*
G04 #@! TO.C,C3*
X56533333Y-75257142D02*
X56485714Y-75304761D01*
X56342857Y-75352380D01*
X56247619Y-75352380D01*
X56104761Y-75304761D01*
X56009523Y-75209523D01*
X55961904Y-75114285D01*
X55914285Y-74923809D01*
X55914285Y-74780952D01*
X55961904Y-74590476D01*
X56009523Y-74495238D01*
X56104761Y-74400000D01*
X56247619Y-74352380D01*
X56342857Y-74352380D01*
X56485714Y-74400000D01*
X56533333Y-74447619D01*
X56866666Y-74352380D02*
X57485714Y-74352380D01*
X57152380Y-74733333D01*
X57295238Y-74733333D01*
X57390476Y-74780952D01*
X57438095Y-74828571D01*
X57485714Y-74923809D01*
X57485714Y-75161904D01*
X57438095Y-75257142D01*
X57390476Y-75304761D01*
X57295238Y-75352380D01*
X57009523Y-75352380D01*
X56914285Y-75304761D01*
X56866666Y-75257142D01*
G04 #@! TO.C,C5*
X67683333Y-75357142D02*
X67635714Y-75404761D01*
X67492857Y-75452380D01*
X67397619Y-75452380D01*
X67254761Y-75404761D01*
X67159523Y-75309523D01*
X67111904Y-75214285D01*
X67064285Y-75023809D01*
X67064285Y-74880952D01*
X67111904Y-74690476D01*
X67159523Y-74595238D01*
X67254761Y-74500000D01*
X67397619Y-74452380D01*
X67492857Y-74452380D01*
X67635714Y-74500000D01*
X67683333Y-74547619D01*
X68588095Y-74452380D02*
X68111904Y-74452380D01*
X68064285Y-74928571D01*
X68111904Y-74880952D01*
X68207142Y-74833333D01*
X68445238Y-74833333D01*
X68540476Y-74880952D01*
X68588095Y-74928571D01*
X68635714Y-75023809D01*
X68635714Y-75261904D01*
X68588095Y-75357142D01*
X68540476Y-75404761D01*
X68445238Y-75452380D01*
X68207142Y-75452380D01*
X68111904Y-75404761D01*
X68064285Y-75357142D01*
G04 #@! TO.C,C6*
X77583333Y-75457142D02*
X77535714Y-75504761D01*
X77392857Y-75552380D01*
X77297619Y-75552380D01*
X77154761Y-75504761D01*
X77059523Y-75409523D01*
X77011904Y-75314285D01*
X76964285Y-75123809D01*
X76964285Y-74980952D01*
X77011904Y-74790476D01*
X77059523Y-74695238D01*
X77154761Y-74600000D01*
X77297619Y-74552380D01*
X77392857Y-74552380D01*
X77535714Y-74600000D01*
X77583333Y-74647619D01*
X78440476Y-74552380D02*
X78250000Y-74552380D01*
X78154761Y-74600000D01*
X78107142Y-74647619D01*
X78011904Y-74790476D01*
X77964285Y-74980952D01*
X77964285Y-75361904D01*
X78011904Y-75457142D01*
X78059523Y-75504761D01*
X78154761Y-75552380D01*
X78345238Y-75552380D01*
X78440476Y-75504761D01*
X78488095Y-75457142D01*
X78535714Y-75361904D01*
X78535714Y-75123809D01*
X78488095Y-75028571D01*
X78440476Y-74980952D01*
X78345238Y-74933333D01*
X78154761Y-74933333D01*
X78059523Y-74980952D01*
X78011904Y-75028571D01*
X77964285Y-75123809D01*
G04 #@! TO.C,C7*
X101033333Y-75657142D02*
X100985714Y-75704761D01*
X100842857Y-75752380D01*
X100747619Y-75752380D01*
X100604761Y-75704761D01*
X100509523Y-75609523D01*
X100461904Y-75514285D01*
X100414285Y-75323809D01*
X100414285Y-75180952D01*
X100461904Y-74990476D01*
X100509523Y-74895238D01*
X100604761Y-74800000D01*
X100747619Y-74752380D01*
X100842857Y-74752380D01*
X100985714Y-74800000D01*
X101033333Y-74847619D01*
X101366666Y-74752380D02*
X102033333Y-74752380D01*
X101604761Y-75752380D01*
G04 #@! TO.C,C8*
X129983333Y-79957142D02*
X129935714Y-80004761D01*
X129792857Y-80052380D01*
X129697619Y-80052380D01*
X129554761Y-80004761D01*
X129459523Y-79909523D01*
X129411904Y-79814285D01*
X129364285Y-79623809D01*
X129364285Y-79480952D01*
X129411904Y-79290476D01*
X129459523Y-79195238D01*
X129554761Y-79100000D01*
X129697619Y-79052380D01*
X129792857Y-79052380D01*
X129935714Y-79100000D01*
X129983333Y-79147619D01*
X130554761Y-79480952D02*
X130459523Y-79433333D01*
X130411904Y-79385714D01*
X130364285Y-79290476D01*
X130364285Y-79242857D01*
X130411904Y-79147619D01*
X130459523Y-79100000D01*
X130554761Y-79052380D01*
X130745238Y-79052380D01*
X130840476Y-79100000D01*
X130888095Y-79147619D01*
X130935714Y-79242857D01*
X130935714Y-79290476D01*
X130888095Y-79385714D01*
X130840476Y-79433333D01*
X130745238Y-79480952D01*
X130554761Y-79480952D01*
X130459523Y-79528571D01*
X130411904Y-79576190D01*
X130364285Y-79671428D01*
X130364285Y-79861904D01*
X130411904Y-79957142D01*
X130459523Y-80004761D01*
X130554761Y-80052380D01*
X130745238Y-80052380D01*
X130840476Y-80004761D01*
X130888095Y-79957142D01*
X130935714Y-79861904D01*
X130935714Y-79671428D01*
X130888095Y-79576190D01*
X130840476Y-79528571D01*
X130745238Y-79480952D01*
G04 #@! TO.C,D1*
X105461904Y-78002380D02*
X105461904Y-77002380D01*
X105700000Y-77002380D01*
X105842857Y-77050000D01*
X105938095Y-77145238D01*
X105985714Y-77240476D01*
X106033333Y-77430952D01*
X106033333Y-77573809D01*
X105985714Y-77764285D01*
X105938095Y-77859523D01*
X105842857Y-77954761D01*
X105700000Y-78002380D01*
X105461904Y-78002380D01*
X106985714Y-78002380D02*
X106414285Y-78002380D01*
X106700000Y-78002380D02*
X106700000Y-77002380D01*
X106604761Y-77145238D01*
X106509523Y-77240476D01*
X106414285Y-77288095D01*
G04 #@! TO.C,L2*
X135683333Y-67002380D02*
X135207142Y-67002380D01*
X135207142Y-66002380D01*
X135969047Y-66097619D02*
X136016666Y-66050000D01*
X136111904Y-66002380D01*
X136350000Y-66002380D01*
X136445238Y-66050000D01*
X136492857Y-66097619D01*
X136540476Y-66192857D01*
X136540476Y-66288095D01*
X136492857Y-66430952D01*
X135921428Y-67002380D01*
X136540476Y-67002380D01*
X129652380Y-72850000D02*
X129890476Y-72850000D01*
X129795238Y-73088095D02*
X129890476Y-72850000D01*
X129795238Y-72611904D01*
X130080952Y-72992857D02*
X129890476Y-72850000D01*
X130080952Y-72707142D01*
G04 #@! TO.C,R1*
X45533333Y-31852380D02*
X45200000Y-31376190D01*
X44961904Y-31852380D02*
X44961904Y-30852380D01*
X45342857Y-30852380D01*
X45438095Y-30900000D01*
X45485714Y-30947619D01*
X45533333Y-31042857D01*
X45533333Y-31185714D01*
X45485714Y-31280952D01*
X45438095Y-31328571D01*
X45342857Y-31376190D01*
X44961904Y-31376190D01*
X46485714Y-31852380D02*
X45914285Y-31852380D01*
X46200000Y-31852380D02*
X46200000Y-30852380D01*
X46104761Y-30995238D01*
X46009523Y-31090476D01*
X45914285Y-31138095D01*
G04 #@! TO.C,R3*
X45633333Y-37052380D02*
X45300000Y-36576190D01*
X45061904Y-37052380D02*
X45061904Y-36052380D01*
X45442857Y-36052380D01*
X45538095Y-36100000D01*
X45585714Y-36147619D01*
X45633333Y-36242857D01*
X45633333Y-36385714D01*
X45585714Y-36480952D01*
X45538095Y-36528571D01*
X45442857Y-36576190D01*
X45061904Y-36576190D01*
X45966666Y-36052380D02*
X46585714Y-36052380D01*
X46252380Y-36433333D01*
X46395238Y-36433333D01*
X46490476Y-36480952D01*
X46538095Y-36528571D01*
X46585714Y-36623809D01*
X46585714Y-36861904D01*
X46538095Y-36957142D01*
X46490476Y-37004761D01*
X46395238Y-37052380D01*
X46109523Y-37052380D01*
X46014285Y-37004761D01*
X45966666Y-36957142D01*
G04 #@! TO.C,R4*
X60433333Y-31952380D02*
X60100000Y-31476190D01*
X59861904Y-31952380D02*
X59861904Y-30952380D01*
X60242857Y-30952380D01*
X60338095Y-31000000D01*
X60385714Y-31047619D01*
X60433333Y-31142857D01*
X60433333Y-31285714D01*
X60385714Y-31380952D01*
X60338095Y-31428571D01*
X60242857Y-31476190D01*
X59861904Y-31476190D01*
X61290476Y-31285714D02*
X61290476Y-31952380D01*
X61052380Y-30904761D02*
X60814285Y-31619047D01*
X61433333Y-31619047D01*
G04 #@! TO.C,R5*
X76733333Y-31702380D02*
X76400000Y-31226190D01*
X76161904Y-31702380D02*
X76161904Y-30702380D01*
X76542857Y-30702380D01*
X76638095Y-30750000D01*
X76685714Y-30797619D01*
X76733333Y-30892857D01*
X76733333Y-31035714D01*
X76685714Y-31130952D01*
X76638095Y-31178571D01*
X76542857Y-31226190D01*
X76161904Y-31226190D01*
X77638095Y-30702380D02*
X77161904Y-30702380D01*
X77114285Y-31178571D01*
X77161904Y-31130952D01*
X77257142Y-31083333D01*
X77495238Y-31083333D01*
X77590476Y-31130952D01*
X77638095Y-31178571D01*
X77685714Y-31273809D01*
X77685714Y-31511904D01*
X77638095Y-31607142D01*
X77590476Y-31654761D01*
X77495238Y-31702380D01*
X77257142Y-31702380D01*
X77161904Y-31654761D01*
X77114285Y-31607142D01*
G04 #@! TO.C,R6*
X93383333Y-31752380D02*
X93050000Y-31276190D01*
X92811904Y-31752380D02*
X92811904Y-30752380D01*
X93192857Y-30752380D01*
X93288095Y-30800000D01*
X93335714Y-30847619D01*
X93383333Y-30942857D01*
X93383333Y-31085714D01*
X93335714Y-31180952D01*
X93288095Y-31228571D01*
X93192857Y-31276190D01*
X92811904Y-31276190D01*
X94240476Y-30752380D02*
X94050000Y-30752380D01*
X93954761Y-30800000D01*
X93907142Y-30847619D01*
X93811904Y-30990476D01*
X93764285Y-31180952D01*
X93764285Y-31561904D01*
X93811904Y-31657142D01*
X93859523Y-31704761D01*
X93954761Y-31752380D01*
X94145238Y-31752380D01*
X94240476Y-31704761D01*
X94288095Y-31657142D01*
X94335714Y-31561904D01*
X94335714Y-31323809D01*
X94288095Y-31228571D01*
X94240476Y-31180952D01*
X94145238Y-31133333D01*
X93954761Y-31133333D01*
X93859523Y-31180952D01*
X93811904Y-31228571D01*
X93764285Y-31323809D01*
G04 #@! TO.C,R7*
X109483333Y-31602380D02*
X109150000Y-31126190D01*
X108911904Y-31602380D02*
X108911904Y-30602380D01*
X109292857Y-30602380D01*
X109388095Y-30650000D01*
X109435714Y-30697619D01*
X109483333Y-30792857D01*
X109483333Y-30935714D01*
X109435714Y-31030952D01*
X109388095Y-31078571D01*
X109292857Y-31126190D01*
X108911904Y-31126190D01*
X109816666Y-30602380D02*
X110483333Y-30602380D01*
X110054761Y-31602380D01*
G04 #@! TO.C,R8*
X72583333Y-75352380D02*
X72250000Y-74876190D01*
X72011904Y-75352380D02*
X72011904Y-74352380D01*
X72392857Y-74352380D01*
X72488095Y-74400000D01*
X72535714Y-74447619D01*
X72583333Y-74542857D01*
X72583333Y-74685714D01*
X72535714Y-74780952D01*
X72488095Y-74828571D01*
X72392857Y-74876190D01*
X72011904Y-74876190D01*
X73154761Y-74780952D02*
X73059523Y-74733333D01*
X73011904Y-74685714D01*
X72964285Y-74590476D01*
X72964285Y-74542857D01*
X73011904Y-74447619D01*
X73059523Y-74400000D01*
X73154761Y-74352380D01*
X73345238Y-74352380D01*
X73440476Y-74400000D01*
X73488095Y-74447619D01*
X73535714Y-74542857D01*
X73535714Y-74590476D01*
X73488095Y-74685714D01*
X73440476Y-74733333D01*
X73345238Y-74780952D01*
X73154761Y-74780952D01*
X73059523Y-74828571D01*
X73011904Y-74876190D01*
X72964285Y-74971428D01*
X72964285Y-75161904D01*
X73011904Y-75257142D01*
X73059523Y-75304761D01*
X73154761Y-75352380D01*
X73345238Y-75352380D01*
X73440476Y-75304761D01*
X73488095Y-75257142D01*
X73535714Y-75161904D01*
X73535714Y-74971428D01*
X73488095Y-74876190D01*
X73440476Y-74828571D01*
X73345238Y-74780952D01*
X72352380Y-77250000D02*
X72590476Y-77250000D01*
X72495238Y-77488095D02*
X72590476Y-77250000D01*
X72495238Y-77011904D01*
X72780952Y-77392857D02*
X72590476Y-77250000D01*
X72780952Y-77107142D01*
G04 #@! TO.C,R10*
X129907142Y-37602380D02*
X129573809Y-37126190D01*
X129335714Y-37602380D02*
X129335714Y-36602380D01*
X129716666Y-36602380D01*
X129811904Y-36650000D01*
X129859523Y-36697619D01*
X129907142Y-36792857D01*
X129907142Y-36935714D01*
X129859523Y-37030952D01*
X129811904Y-37078571D01*
X129716666Y-37126190D01*
X129335714Y-37126190D01*
X130859523Y-37602380D02*
X130288095Y-37602380D01*
X130573809Y-37602380D02*
X130573809Y-36602380D01*
X130478571Y-36745238D01*
X130383333Y-36840476D01*
X130288095Y-36888095D01*
X131478571Y-36602380D02*
X131573809Y-36602380D01*
X131669047Y-36650000D01*
X131716666Y-36697619D01*
X131764285Y-36792857D01*
X131811904Y-36983333D01*
X131811904Y-37221428D01*
X131764285Y-37411904D01*
X131716666Y-37507142D01*
X131669047Y-37554761D01*
X131573809Y-37602380D01*
X131478571Y-37602380D01*
X131383333Y-37554761D01*
X131335714Y-37507142D01*
X131288095Y-37411904D01*
X131240476Y-37221428D01*
X131240476Y-36983333D01*
X131288095Y-36792857D01*
X131335714Y-36697619D01*
X131383333Y-36650000D01*
X131478571Y-36602380D01*
X129752380Y-52400000D02*
X129990476Y-52400000D01*
X129895238Y-52638095D02*
X129990476Y-52400000D01*
X129895238Y-52161904D01*
X130180952Y-52542857D02*
X129990476Y-52400000D01*
X130180952Y-52257142D01*
G04 #@! TO.C,R11*
X125207142Y-37502380D02*
X124873809Y-37026190D01*
X124635714Y-37502380D02*
X124635714Y-36502380D01*
X125016666Y-36502380D01*
X125111904Y-36550000D01*
X125159523Y-36597619D01*
X125207142Y-36692857D01*
X125207142Y-36835714D01*
X125159523Y-36930952D01*
X125111904Y-36978571D01*
X125016666Y-37026190D01*
X124635714Y-37026190D01*
X126159523Y-37502380D02*
X125588095Y-37502380D01*
X125873809Y-37502380D02*
X125873809Y-36502380D01*
X125778571Y-36645238D01*
X125683333Y-36740476D01*
X125588095Y-36788095D01*
X127111904Y-37502380D02*
X126540476Y-37502380D01*
X126826190Y-37502380D02*
X126826190Y-36502380D01*
X126730952Y-36645238D01*
X126635714Y-36740476D01*
X126540476Y-36788095D01*
X125202380Y-40950000D02*
X125440476Y-40950000D01*
X125345238Y-41188095D02*
X125440476Y-40950000D01*
X125345238Y-40711904D01*
X125630952Y-41092857D02*
X125440476Y-40950000D01*
X125630952Y-40807142D01*
G04 #@! TO.C,R12*
X110307142Y-76252380D02*
X109973809Y-75776190D01*
X109735714Y-76252380D02*
X109735714Y-75252380D01*
X110116666Y-75252380D01*
X110211904Y-75300000D01*
X110259523Y-75347619D01*
X110307142Y-75442857D01*
X110307142Y-75585714D01*
X110259523Y-75680952D01*
X110211904Y-75728571D01*
X110116666Y-75776190D01*
X109735714Y-75776190D01*
X111259523Y-76252380D02*
X110688095Y-76252380D01*
X110973809Y-76252380D02*
X110973809Y-75252380D01*
X110878571Y-75395238D01*
X110783333Y-75490476D01*
X110688095Y-75538095D01*
X111640476Y-75347619D02*
X111688095Y-75300000D01*
X111783333Y-75252380D01*
X112021428Y-75252380D01*
X112116666Y-75300000D01*
X112164285Y-75347619D01*
X112211904Y-75442857D01*
X112211904Y-75538095D01*
X112164285Y-75680952D01*
X111592857Y-76252380D01*
X112211904Y-76252380D01*
X110302380Y-77800000D02*
X110540476Y-77800000D01*
X110445238Y-78038095D02*
X110540476Y-77800000D01*
X110445238Y-77561904D01*
X110730952Y-77942857D02*
X110540476Y-77800000D01*
X110730952Y-77657142D01*
G04 #@! TO.C,R15*
X114507142Y-74952380D02*
X114173809Y-74476190D01*
X113935714Y-74952380D02*
X113935714Y-73952380D01*
X114316666Y-73952380D01*
X114411904Y-74000000D01*
X114459523Y-74047619D01*
X114507142Y-74142857D01*
X114507142Y-74285714D01*
X114459523Y-74380952D01*
X114411904Y-74428571D01*
X114316666Y-74476190D01*
X113935714Y-74476190D01*
X115459523Y-74952380D02*
X114888095Y-74952380D01*
X115173809Y-74952380D02*
X115173809Y-73952380D01*
X115078571Y-74095238D01*
X114983333Y-74190476D01*
X114888095Y-74238095D01*
X116364285Y-73952380D02*
X115888095Y-73952380D01*
X115840476Y-74428571D01*
X115888095Y-74380952D01*
X115983333Y-74333333D01*
X116221428Y-74333333D01*
X116316666Y-74380952D01*
X116364285Y-74428571D01*
X116411904Y-74523809D01*
X116411904Y-74761904D01*
X116364285Y-74857142D01*
X116316666Y-74904761D01*
X116221428Y-74952380D01*
X115983333Y-74952380D01*
X115888095Y-74904761D01*
X115840476Y-74857142D01*
X114452380Y-89200000D02*
X114690476Y-89200000D01*
X114595238Y-89438095D02*
X114690476Y-89200000D01*
X114595238Y-88961904D01*
X114880952Y-89342857D02*
X114690476Y-89200000D01*
X114880952Y-89057142D01*
G04 #@! TO.C,U1*
X53338095Y-57302380D02*
X53338095Y-58111904D01*
X53385714Y-58207142D01*
X53433333Y-58254761D01*
X53528571Y-58302380D01*
X53719047Y-58302380D01*
X53814285Y-58254761D01*
X53861904Y-58207142D01*
X53909523Y-58111904D01*
X53909523Y-57302380D01*
X54909523Y-58302380D02*
X54338095Y-58302380D01*
X54623809Y-58302380D02*
X54623809Y-57302380D01*
X54528571Y-57445238D01*
X54433333Y-57540476D01*
X54338095Y-57588095D01*
X50095000Y-58632880D02*
X50095000Y-58870976D01*
X49856904Y-58775738D02*
X50095000Y-58870976D01*
X50333095Y-58775738D01*
X49952142Y-59061452D02*
X50095000Y-58870976D01*
X50237857Y-59061452D01*
G04 #@! TO.C,U2*
X72088095Y-57302380D02*
X72088095Y-58111904D01*
X72135714Y-58207142D01*
X72183333Y-58254761D01*
X72278571Y-58302380D01*
X72469047Y-58302380D01*
X72564285Y-58254761D01*
X72611904Y-58207142D01*
X72659523Y-58111904D01*
X72659523Y-57302380D01*
X73088095Y-57397619D02*
X73135714Y-57350000D01*
X73230952Y-57302380D01*
X73469047Y-57302380D01*
X73564285Y-57350000D01*
X73611904Y-57397619D01*
X73659523Y-57492857D01*
X73659523Y-57588095D01*
X73611904Y-57730952D01*
X73040476Y-58302380D01*
X73659523Y-58302380D01*
X68545000Y-58532880D02*
X68545000Y-58770976D01*
X68306904Y-58675738D02*
X68545000Y-58770976D01*
X68783095Y-58675738D01*
X68402142Y-58961452D02*
X68545000Y-58770976D01*
X68687857Y-58961452D01*
G04 #@! TO.C,U3*
X90238095Y-57302380D02*
X90238095Y-58111904D01*
X90285714Y-58207142D01*
X90333333Y-58254761D01*
X90428571Y-58302380D01*
X90619047Y-58302380D01*
X90714285Y-58254761D01*
X90761904Y-58207142D01*
X90809523Y-58111904D01*
X90809523Y-57302380D01*
X91190476Y-57302380D02*
X91809523Y-57302380D01*
X91476190Y-57683333D01*
X91619047Y-57683333D01*
X91714285Y-57730952D01*
X91761904Y-57778571D01*
X91809523Y-57873809D01*
X91809523Y-58111904D01*
X91761904Y-58207142D01*
X91714285Y-58254761D01*
X91619047Y-58302380D01*
X91333333Y-58302380D01*
X91238095Y-58254761D01*
X91190476Y-58207142D01*
X86945000Y-58532880D02*
X86945000Y-58770976D01*
X86706904Y-58675738D02*
X86945000Y-58770976D01*
X87183095Y-58675738D01*
X86802142Y-58961452D02*
X86945000Y-58770976D01*
X87087857Y-58961452D01*
G04 #@! TO.C,U5*
X72088095Y-40702380D02*
X72088095Y-41511904D01*
X72135714Y-41607142D01*
X72183333Y-41654761D01*
X72278571Y-41702380D01*
X72469047Y-41702380D01*
X72564285Y-41654761D01*
X72611904Y-41607142D01*
X72659523Y-41511904D01*
X72659523Y-40702380D01*
X73611904Y-40702380D02*
X73135714Y-40702380D01*
X73088095Y-41178571D01*
X73135714Y-41130952D01*
X73230952Y-41083333D01*
X73469047Y-41083333D01*
X73564285Y-41130952D01*
X73611904Y-41178571D01*
X73659523Y-41273809D01*
X73659523Y-41511904D01*
X73611904Y-41607142D01*
X73564285Y-41654761D01*
X73469047Y-41702380D01*
X73230952Y-41702380D01*
X73135714Y-41654761D01*
X73088095Y-41607142D01*
X68545000Y-42282880D02*
X68545000Y-42520976D01*
X68306904Y-42425738D02*
X68545000Y-42520976D01*
X68783095Y-42425738D01*
X68402142Y-42711452D02*
X68545000Y-42520976D01*
X68687857Y-42711452D01*
G04 #@! TO.C,U8*
X109088095Y-57602380D02*
X109088095Y-58411904D01*
X109135714Y-58507142D01*
X109183333Y-58554761D01*
X109278571Y-58602380D01*
X109469047Y-58602380D01*
X109564285Y-58554761D01*
X109611904Y-58507142D01*
X109659523Y-58411904D01*
X109659523Y-57602380D01*
X110278571Y-58030952D02*
X110183333Y-57983333D01*
X110135714Y-57935714D01*
X110088095Y-57840476D01*
X110088095Y-57792857D01*
X110135714Y-57697619D01*
X110183333Y-57650000D01*
X110278571Y-57602380D01*
X110469047Y-57602380D01*
X110564285Y-57650000D01*
X110611904Y-57697619D01*
X110659523Y-57792857D01*
X110659523Y-57840476D01*
X110611904Y-57935714D01*
X110564285Y-57983333D01*
X110469047Y-58030952D01*
X110278571Y-58030952D01*
X110183333Y-58078571D01*
X110135714Y-58126190D01*
X110088095Y-58221428D01*
X110088095Y-58411904D01*
X110135714Y-58507142D01*
X110183333Y-58554761D01*
X110278571Y-58602380D01*
X110469047Y-58602380D01*
X110564285Y-58554761D01*
X110611904Y-58507142D01*
X110659523Y-58411904D01*
X110659523Y-58221428D01*
X110611904Y-58126190D01*
X110564285Y-58078571D01*
X110469047Y-58030952D01*
X106145000Y-58982880D02*
X106145000Y-59220976D01*
X105906904Y-59125738D02*
X106145000Y-59220976D01*
X106383095Y-59125738D01*
X106002142Y-59411452D02*
X106145000Y-59220976D01*
X106287857Y-59411452D01*
G04 #@! TO.C,U9*
X48238095Y-75052380D02*
X48238095Y-75861904D01*
X48285714Y-75957142D01*
X48333333Y-76004761D01*
X48428571Y-76052380D01*
X48619047Y-76052380D01*
X48714285Y-76004761D01*
X48761904Y-75957142D01*
X48809523Y-75861904D01*
X48809523Y-75052380D01*
X49333333Y-76052380D02*
X49523809Y-76052380D01*
X49619047Y-76004761D01*
X49666666Y-75957142D01*
X49761904Y-75814285D01*
X49809523Y-75623809D01*
X49809523Y-75242857D01*
X49761904Y-75147619D01*
X49714285Y-75100000D01*
X49619047Y-75052380D01*
X49428571Y-75052380D01*
X49333333Y-75100000D01*
X49285714Y-75147619D01*
X49238095Y-75242857D01*
X49238095Y-75480952D01*
X49285714Y-75576190D01*
X49333333Y-75623809D01*
X49428571Y-75671428D01*
X49619047Y-75671428D01*
X49714285Y-75623809D01*
X49761904Y-75576190D01*
X49809523Y-75480952D01*
X46144100Y-77025180D02*
X46144100Y-77263276D01*
X45906004Y-77168038D02*
X46144100Y-77263276D01*
X46382195Y-77168038D01*
X46001242Y-77453752D02*
X46144100Y-77263276D01*
X46286957Y-77453752D01*
G04 #@! TO.C,U10*
X93611904Y-74452380D02*
X93611904Y-75261904D01*
X93659523Y-75357142D01*
X93707142Y-75404761D01*
X93802380Y-75452380D01*
X93992857Y-75452380D01*
X94088095Y-75404761D01*
X94135714Y-75357142D01*
X94183333Y-75261904D01*
X94183333Y-74452380D01*
X95183333Y-75452380D02*
X94611904Y-75452380D01*
X94897619Y-75452380D02*
X94897619Y-74452380D01*
X94802380Y-74595238D01*
X94707142Y-74690476D01*
X94611904Y-74738095D01*
X95802380Y-74452380D02*
X95897619Y-74452380D01*
X95992857Y-74500000D01*
X96040476Y-74547619D01*
X96088095Y-74642857D01*
X96135714Y-74833333D01*
X96135714Y-75071428D01*
X96088095Y-75261904D01*
X96040476Y-75357142D01*
X95992857Y-75404761D01*
X95897619Y-75452380D01*
X95802380Y-75452380D01*
X95707142Y-75404761D01*
X95659523Y-75357142D01*
X95611904Y-75261904D01*
X95564285Y-75071428D01*
X95564285Y-74833333D01*
X95611904Y-74642857D01*
X95659523Y-74547619D01*
X95707142Y-74500000D01*
X95802380Y-74452380D01*
X92679222Y-82146808D02*
X92917318Y-82146808D01*
X92822080Y-82384903D02*
X92917318Y-82146808D01*
X92822080Y-81908712D01*
X93107794Y-82289665D02*
X92917318Y-82146808D01*
X93107794Y-82003950D01*
G04 #@! TO.C,Neg. Vref*
X132761904Y-59532380D02*
X132761904Y-58532380D01*
X133333333Y-59532380D01*
X133333333Y-58532380D01*
X134190476Y-59484761D02*
X134095238Y-59532380D01*
X133904761Y-59532380D01*
X133809523Y-59484761D01*
X133761904Y-59389523D01*
X133761904Y-59008571D01*
X133809523Y-58913333D01*
X133904761Y-58865714D01*
X134095238Y-58865714D01*
X134190476Y-58913333D01*
X134238095Y-59008571D01*
X134238095Y-59103809D01*
X133761904Y-59199047D01*
X135095238Y-58865714D02*
X135095238Y-59675238D01*
X135047619Y-59770476D01*
X135000000Y-59818095D01*
X134904761Y-59865714D01*
X134761904Y-59865714D01*
X134666666Y-59818095D01*
X135095238Y-59484761D02*
X135000000Y-59532380D01*
X134809523Y-59532380D01*
X134714285Y-59484761D01*
X134666666Y-59437142D01*
X134619047Y-59341904D01*
X134619047Y-59056190D01*
X134666666Y-58960952D01*
X134714285Y-58913333D01*
X134809523Y-58865714D01*
X135000000Y-58865714D01*
X135095238Y-58913333D01*
X135571428Y-59437142D02*
X135619047Y-59484761D01*
X135571428Y-59532380D01*
X135523809Y-59484761D01*
X135571428Y-59437142D01*
X135571428Y-59532380D01*
X136666666Y-58532380D02*
X137000000Y-59532380D01*
X137333333Y-58532380D01*
X137666666Y-59532380D02*
X137666666Y-58865714D01*
X137666666Y-59056190D02*
X137714285Y-58960952D01*
X137761904Y-58913333D01*
X137857142Y-58865714D01*
X137952380Y-58865714D01*
X138666666Y-59484761D02*
X138571428Y-59532380D01*
X138380952Y-59532380D01*
X138285714Y-59484761D01*
X138238095Y-59389523D01*
X138238095Y-59008571D01*
X138285714Y-58913333D01*
X138380952Y-58865714D01*
X138571428Y-58865714D01*
X138666666Y-58913333D01*
X138714285Y-59008571D01*
X138714285Y-59103809D01*
X138238095Y-59199047D01*
X139000000Y-58865714D02*
X139380952Y-58865714D01*
X139142857Y-59532380D02*
X139142857Y-58675238D01*
X139190476Y-58580000D01*
X139285714Y-58532380D01*
X139380952Y-58532380D01*
G04 #@! TO.C,I5*
X63173809Y-38782380D02*
X63173809Y-37782380D01*
X64126190Y-37782380D02*
X63650000Y-37782380D01*
X63602380Y-38258571D01*
X63650000Y-38210952D01*
X63745238Y-38163333D01*
X63983333Y-38163333D01*
X64078571Y-38210952D01*
X64126190Y-38258571D01*
X64173809Y-38353809D01*
X64173809Y-38591904D01*
X64126190Y-38687142D01*
X64078571Y-38734761D01*
X63983333Y-38782380D01*
X63745238Y-38782380D01*
X63650000Y-38734761D01*
X63602380Y-38687142D01*
G04 #@! TO.C,Pos. Vref_Charged*
X51730952Y-85332380D02*
X51730952Y-84332380D01*
X52111904Y-84332380D01*
X52207142Y-84380000D01*
X52254761Y-84427619D01*
X52302380Y-84522857D01*
X52302380Y-84665714D01*
X52254761Y-84760952D01*
X52207142Y-84808571D01*
X52111904Y-84856190D01*
X51730952Y-84856190D01*
X52873809Y-85332380D02*
X52778571Y-85284761D01*
X52730952Y-85237142D01*
X52683333Y-85141904D01*
X52683333Y-84856190D01*
X52730952Y-84760952D01*
X52778571Y-84713333D01*
X52873809Y-84665714D01*
X53016666Y-84665714D01*
X53111904Y-84713333D01*
X53159523Y-84760952D01*
X53207142Y-84856190D01*
X53207142Y-85141904D01*
X53159523Y-85237142D01*
X53111904Y-85284761D01*
X53016666Y-85332380D01*
X52873809Y-85332380D01*
X53588095Y-85284761D02*
X53683333Y-85332380D01*
X53873809Y-85332380D01*
X53969047Y-85284761D01*
X54016666Y-85189523D01*
X54016666Y-85141904D01*
X53969047Y-85046666D01*
X53873809Y-84999047D01*
X53730952Y-84999047D01*
X53635714Y-84951428D01*
X53588095Y-84856190D01*
X53588095Y-84808571D01*
X53635714Y-84713333D01*
X53730952Y-84665714D01*
X53873809Y-84665714D01*
X53969047Y-84713333D01*
X54445238Y-85237142D02*
X54492857Y-85284761D01*
X54445238Y-85332380D01*
X54397619Y-85284761D01*
X54445238Y-85237142D01*
X54445238Y-85332380D01*
X55540476Y-84332380D02*
X55873809Y-85332380D01*
X56207142Y-84332380D01*
X56540476Y-85332380D02*
X56540476Y-84665714D01*
X56540476Y-84856190D02*
X56588095Y-84760952D01*
X56635714Y-84713333D01*
X56730952Y-84665714D01*
X56826190Y-84665714D01*
X57540476Y-85284761D02*
X57445238Y-85332380D01*
X57254761Y-85332380D01*
X57159523Y-85284761D01*
X57111904Y-85189523D01*
X57111904Y-84808571D01*
X57159523Y-84713333D01*
X57254761Y-84665714D01*
X57445238Y-84665714D01*
X57540476Y-84713333D01*
X57588095Y-84808571D01*
X57588095Y-84903809D01*
X57111904Y-84999047D01*
X57873809Y-84665714D02*
X58254761Y-84665714D01*
X58016666Y-85332380D02*
X58016666Y-84475238D01*
X58064285Y-84380000D01*
X58159523Y-84332380D01*
X58254761Y-84332380D01*
X58350000Y-85427619D02*
X59111904Y-85427619D01*
X59921428Y-85237142D02*
X59873809Y-85284761D01*
X59730952Y-85332380D01*
X59635714Y-85332380D01*
X59492857Y-85284761D01*
X59397619Y-85189523D01*
X59350000Y-85094285D01*
X59302380Y-84903809D01*
X59302380Y-84760952D01*
X59350000Y-84570476D01*
X59397619Y-84475238D01*
X59492857Y-84380000D01*
X59635714Y-84332380D01*
X59730952Y-84332380D01*
X59873809Y-84380000D01*
X59921428Y-84427619D01*
X60350000Y-85332380D02*
X60350000Y-84332380D01*
X60778571Y-85332380D02*
X60778571Y-84808571D01*
X60730952Y-84713333D01*
X60635714Y-84665714D01*
X60492857Y-84665714D01*
X60397619Y-84713333D01*
X60350000Y-84760952D01*
X61683333Y-85332380D02*
X61683333Y-84808571D01*
X61635714Y-84713333D01*
X61540476Y-84665714D01*
X61350000Y-84665714D01*
X61254761Y-84713333D01*
X61683333Y-85284761D02*
X61588095Y-85332380D01*
X61350000Y-85332380D01*
X61254761Y-85284761D01*
X61207142Y-85189523D01*
X61207142Y-85094285D01*
X61254761Y-84999047D01*
X61350000Y-84951428D01*
X61588095Y-84951428D01*
X61683333Y-84903809D01*
X62159523Y-85332380D02*
X62159523Y-84665714D01*
X62159523Y-84856190D02*
X62207142Y-84760952D01*
X62254761Y-84713333D01*
X62350000Y-84665714D01*
X62445238Y-84665714D01*
X63207142Y-84665714D02*
X63207142Y-85475238D01*
X63159523Y-85570476D01*
X63111904Y-85618095D01*
X63016666Y-85665714D01*
X62873809Y-85665714D01*
X62778571Y-85618095D01*
X63207142Y-85284761D02*
X63111904Y-85332380D01*
X62921428Y-85332380D01*
X62826190Y-85284761D01*
X62778571Y-85237142D01*
X62730952Y-85141904D01*
X62730952Y-84856190D01*
X62778571Y-84760952D01*
X62826190Y-84713333D01*
X62921428Y-84665714D01*
X63111904Y-84665714D01*
X63207142Y-84713333D01*
X64064285Y-85284761D02*
X63969047Y-85332380D01*
X63778571Y-85332380D01*
X63683333Y-85284761D01*
X63635714Y-85189523D01*
X63635714Y-84808571D01*
X63683333Y-84713333D01*
X63778571Y-84665714D01*
X63969047Y-84665714D01*
X64064285Y-84713333D01*
X64111904Y-84808571D01*
X64111904Y-84903809D01*
X63635714Y-84999047D01*
X64969047Y-85332380D02*
X64969047Y-84332380D01*
X64969047Y-85284761D02*
X64873809Y-85332380D01*
X64683333Y-85332380D01*
X64588095Y-85284761D01*
X64540476Y-85237142D01*
X64492857Y-85141904D01*
X64492857Y-84856190D01*
X64540476Y-84760952D01*
X64588095Y-84713333D01*
X64683333Y-84665714D01*
X64873809Y-84665714D01*
X64969047Y-84713333D01*
G04 #@! TD*
M02*
